<?xml version="1.0" encoding="UTF-8"?>
<svg xmlns="http://www.w3.org/2000/svg" xmlns:xlink="http://www.w3.org/1999/xlink" width="75px" height="75px" viewBox="0 0 75 75" version="1.1">
<g id="surface1">
<path style=" stroke:none;fill-rule:nonzero;fill:rgb(9.803922%,9.803922%,9.803922%);fill-opacity:1;" d="M 41.71875 75.039062 C 27.8125 75.039062 13.925781 75.039062 0.0390625 75.039062 C 0.0390625 50.039062 0.0390625 25.039062 0.0390625 0.0390625 C 25.039062 0.0390625 50.039062 0.0390625 75.039062 0.0390625 C 75.039062 25.039062 75.039062 50.039062 75.039062 75.039062 C 63.9375 75.039062 52.839844 75.039062 41.71875 75.039062 M 50.324219 16.730469 C 50.335938 16.734375 50.351562 16.742188 50.359375 16.746094 C 50.359375 16.746094 50.363281 16.742188 50.367188 16.765625 C 50.390625 16.777344 50.414062 16.785156 50.433594 16.792969 C 50.433594 16.792969 50.433594 16.789062 50.441406 16.808594 C 50.453125 16.816406 50.464844 16.824219 50.472656 16.832031 C 50.472656 16.832031 50.472656 16.824219 50.480469 16.847656 C 50.492188 16.851562 50.507812 16.859375 50.515625 16.867188 C 50.515625 16.867188 50.515625 16.859375 50.523438 16.886719 C 50.546875 16.894531 50.570312 16.902344 50.589844 16.910156 C 50.589844 16.910156 50.585938 16.90625 50.597656 16.925781 C 50.609375 16.933594 50.621094 16.941406 50.628906 16.949219 C 50.628906 16.949219 50.628906 16.945312 50.636719 16.964844 C 50.648438 16.972656 50.664062 16.976562 50.667969 16.984375 C 50.667969 16.984375 50.671875 16.976562 50.679688 17.003906 C 50.699219 17.011719 50.722656 17.019531 50.742188 17.03125 C 50.742188 17.03125 50.742188 17.027344 50.753906 17.046875 C 50.769531 17.054688 50.78125 17.0625 50.820312 17.074219 C 52 18.003906 53.089844 19.027344 54.085938 20.148438 C 57.589844 24.105469 59.738281 28.699219 60.476562 33.941406 C 60.746094 35.839844 60.8125 37.746094 60.636719 39.660156 C 60.445312 41.71875 60.003906 43.71875 59.265625 45.648438 C 57.4375 50.449219 54.367188 54.257812 50.0625 57.050781 C 46.390625 59.425781 42.347656 60.628906 37.980469 60.734375 C 36.679688 60.765625 35.382812 60.667969 34.09375 60.476562 C 32.171875 60.191406 30.320312 59.664062 28.53125 58.917969 C 28.398438 58.863281 28.375 58.796875 28.402344 58.671875 C 28.515625 58.128906 28.621094 57.585938 28.726562 57.046875 C 28.996094 55.675781 29.265625 54.304688 29.53125 52.933594 C 29.558594 52.792969 29.613281 52.734375 29.773438 52.734375 C 31.941406 52.742188 34.109375 52.738281 36.277344 52.738281 C 36.351562 52.738281 36.429688 52.738281 36.519531 52.738281 C 36.9375 50.683594 37.355469 48.640625 37.777344 46.574219 C 31.910156 46.574219 26.070312 46.574219 20.203125 46.574219 C 21.613281 39.472656 23.019531 32.402344 24.429688 25.320312 C 24.371094 25.3125 24.339844 25.308594 24.308594 25.308594 C 21.808594 25.304688 19.308594 25.308594 16.808594 25.304688 C 16.675781 25.304688 16.652344 25.359375 16.628906 25.472656 C 16.226562 27.5 15.820312 29.527344 15.414062 31.554688 C 14.765625 34.785156 14.121094 38.019531 13.472656 41.25 C 12.832031 44.46875 12.1875 47.6875 11.542969 50.90625 C 11.421875 51.511719 11.300781 52.113281 11.179688 52.730469 C 11.292969 52.738281 11.390625 52.742188 11.484375 52.78125 C 11.480469 52.847656 11.472656 52.917969 11.464844 53.007812 C 11.550781 53.007812 11.628906 53.007812 11.707031 53.007812 C 13.695312 53.007812 15.683594 53.007812 17.675781 53.007812 C 19.066406 53.007812 20.457031 53.011719 21.847656 53.042969 C 21.84375 53.078125 21.839844 53.109375 21.832031 53.140625 C 21.292969 55.523438 20.753906 57.90625 20.214844 60.289062 C 20.113281 60.738281 20.105469 60.738281 20.503906 60.996094 C 22.042969 61.984375 23.582031 62.976562 25.222656 63.785156 C 28.648438 65.46875 32.289062 66.339844 36.097656 66.511719 C 37.273438 66.566406 38.460938 66.523438 39.636719 66.472656 C 40.417969 66.4375 41.199219 66.328125 41.972656 66.210938 C 44.902344 65.78125 47.691406 64.890625 50.347656 63.582031 C 53.550781 62.007812 56.367188 59.90625 58.796875 57.289062 C 61.898438 53.953125 64.089844 50.09375 65.382812 45.730469 C 65.871094 44.082031 66.230469 42.40625 66.367188 40.6875 C 66.429688 39.921875 66.519531 39.15625 66.535156 38.386719 C 66.554688 37.511719 66.515625 36.636719 66.480469 35.757812 C 66.457031 35.210938 66.433594 34.660156 66.351562 34.117188 C 66.191406 33.058594 66.042969 31.992188 65.800781 30.949219 C 64.613281 25.886719 62.238281 21.453125 58.679688 17.660156 C 56.226562 15.046875 53.386719 12.960938 50.15625 11.402344 C 46.453125 9.613281 42.546875 8.664062 38.441406 8.53125 C 36.566406 8.472656 34.699219 8.597656 32.84375 8.898438 C 29.992188 9.363281 27.273438 10.238281 24.6875 11.515625 C 21.492188 13.09375 18.683594 15.199219 16.257812 17.808594 C 14.238281 19.984375 12.589844 22.414062 11.316406 25.097656 C 10.09375 27.675781 9.265625 30.375 8.828125 33.226562 C 8.769531 33.726562 8.710938 34.226562 8.640625 34.753906 C 8.5 36.160156 8.480469 37.566406 8.566406 38.976562 C 8.585938 38.898438 8.585938 38.820312 8.585938 38.742188 C 8.578125 38.074219 8.542969 37.40625 8.5625 36.742188 C 8.585938 36.066406 8.65625 35.398438 8.710938 34.691406 C 8.71875 34.628906 8.726562 34.566406 8.734375 34.5 C 8.789062 34.066406 8.847656 33.632812 8.90625 33.171875 C 9.195312 31.5 9.617188 29.867188 10.238281 28.289062 C 10.542969 27.519531 10.90625 26.769531 11.261719 26.027344 C 11.25 26.070312 11.25 26.117188 11.234375 26.15625 C 11 26.75 10.753906 27.335938 10.527344 27.929688 C 10.054688 29.191406 9.691406 30.484375 9.417969 31.800781 C 9.265625 32.539062 9.152344 33.289062 9.03125 34.035156 C 8.984375 34.339844 8.964844 34.648438 8.933594 34.953125 C 9 34.746094 9.023438 34.535156 9.0625 34.328125 C 9.210938 33.480469 9.320312 32.621094 9.527344 31.789062 C 9.777344 30.789062 10.066406 29.796875 10.421875 28.832031 C 10.78125 27.863281 11.21875 26.925781 11.65625 25.992188 C 12.230469 24.78125 12.933594 23.636719 13.742188 22.570312 C 14.425781 21.667969 15.15625 20.796875 15.90625 19.949219 C 16.359375 19.429688 16.871094 18.960938 17.382812 18.503906 C 17.96875 17.980469 18.554688 17.453125 19.191406 17 C 20.082031 16.359375 21.003906 15.765625 21.933594 15.1875 C 23.214844 14.394531 24.589844 13.792969 26.007812 13.28125 C 27.796875 12.636719 29.632812 12.15625 31.53125 11.953125 C 32.394531 11.859375 33.257812 11.769531 34.121094 11.726562 C 34.738281 11.695312 35.355469 11.730469 35.972656 11.761719 C 36.644531 11.796875 37.316406 11.835938 37.984375 11.917969 C 38.804688 12.023438 39.625 12.144531 40.433594 12.3125 C 42.554688 12.753906 44.59375 13.457031 46.519531 14.445312 C 47.519531 14.953125 48.464844 15.566406 49.433594 16.132812 C 49.515625 16.179688 49.605469 16.207031 49.691406 16.246094 C 49.691406 16.246094 49.691406 16.242188 49.691406 16.269531 C 49.730469 16.289062 49.769531 16.308594 49.804688 16.328125 C 49.804688 16.328125 49.808594 16.324219 49.808594 16.351562 C 49.863281 16.382812 49.914062 16.410156 49.964844 16.441406 C 49.964844 16.441406 49.964844 16.4375 49.964844 16.46875 C 50.003906 16.484375 50.046875 16.503906 50.101562 16.523438 C 50.113281 16.527344 50.117188 16.535156 50.121094 16.578125 C 50.160156 16.597656 50.203125 16.621094 50.257812 16.640625 C 50.269531 16.644531 50.273438 16.652344 50.285156 16.6875 C 50.296875 16.695312 50.308594 16.707031 50.316406 16.714844 C 50.316406 16.714844 50.316406 16.707031 50.324219 16.730469 M 40.207031 33.429688 C 40.121094 33.867188 40.039062 34.304688 39.945312 34.738281 C 39.925781 34.835938 39.925781 34.890625 40.039062 34.914062 C 40.054688 35.117188 40.152344 35.253906 40.34375 35.328125 C 40.785156 35.492188 41.210938 35.277344 41.324219 34.824219 C 41.34375 34.753906 41.351562 34.683594 41.367188 34.613281 C 41.464844 34.152344 41.566406 33.691406 41.664062 33.230469 C 41.695312 33.082031 41.789062 33.03125 41.933594 33.046875 C 42.0625 33.0625 42.191406 33.074219 42.320312 33.125 C 42.214844 33.644531 42.109375 34.167969 42.007812 34.6875 C 41.988281 34.78125 41.941406 34.890625 42.109375 34.917969 C 42.082031 35.128906 42.203125 35.25 42.375 35.324219 C 42.828125 35.523438 43.300781 35.265625 43.394531 34.777344 C 43.46875 34.417969 43.5625 34.0625 43.613281 33.695312 C 43.703125 33.027344 43.855469 33.082031 44.375 33.117188 C 44.265625 33.660156 44.15625 34.199219 44.054688 34.742188 C 44.046875 34.785156 44.085938 34.835938 44.101562 34.914062 C 44.136719 35.085938 44.183594 35.257812 44.363281 35.320312 C 44.8125 35.476562 45.378906 35.4375 45.472656 34.757812 C 45.542969 34.277344 45.589844 34.253906 46.078125 34.257812 C 46.085938 34.257812 46.089844 34.257812 46.101562 34.292969 C 46.066406 34.480469 46.03125 34.671875 45.996094 34.863281 C 46.058594 34.875 46.09375 34.878906 46.132812 34.917969 C 46.121094 35.09375 46.207031 35.214844 46.359375 35.289062 C 46.804688 35.5 47.277344 35.28125 47.378906 34.804688 C 47.542969 34.0625 47.695312 33.316406 47.84375 32.570312 C 47.90625 32.265625 47.742188 32.050781 47.417969 31.957031 C 47.140625 31.9375 46.859375 31.917969 46.585938 31.894531 C 46.503906 32.296875 46.433594 32.648438 46.359375 33.007812 C 45.984375 33.007812 45.621094 33.007812 45.242188 33.007812 C 45.3125 32.640625 45.382812 32.285156 45.457031 31.914062 C 45.195312 31.914062 44.957031 31.90625 44.714844 31.917969 C 44.667969 31.921875 44.625 31.992188 44.546875 32.027344 C 44.464844 32.015625 44.386719 32.003906 44.300781 31.957031 C 44.285156 31.941406 44.265625 31.917969 44.25 31.917969 C 43.414062 31.914062 42.582031 31.914062 41.75 31.917969 C 41.710938 31.917969 41.671875 31.992188 41.601562 32.03125 C 41.519531 32.015625 41.4375 32.003906 41.351562 31.957031 C 41.339844 31.945312 41.332031 31.917969 41.320312 31.917969 C 41.078125 31.914062 40.832031 31.910156 40.589844 31.917969 C 40.550781 31.921875 40.515625 31.992188 40.445312 32.03125 C 40.363281 32.019531 40.28125 32.003906 40.203125 31.957031 C 40.179688 31.941406 40.15625 31.917969 40.132812 31.917969 C 39.886719 31.914062 39.640625 31.914062 39.386719 31.914062 C 39.066406 32.53125 38.742188 33.140625 38.421875 33.753906 C 38.410156 33.75 38.398438 33.746094 38.386719 33.746094 C 38.320312 33.140625 38.253906 32.535156 38.183594 31.914062 C 37.96875 31.914062 37.761719 31.917969 37.554688 31.910156 C 37.445312 31.90625 37.386719 31.941406 37.332031 32.042969 C 37.097656 32.507812 36.851562 32.964844 36.609375 33.421875 C 36.554688 33.527344 36.496094 33.632812 36.417969 33.777344 C 36.34375 33.171875 36.273438 32.617188 36.214844 32.0625 C 36.203125 31.949219 36.167969 31.898438 36.054688 31.878906 C 36.085938 31.800781 36.101562 31.710938 36.15625 31.648438 C 36.4375 31.332031 36.375 31.039062 36.078125 30.746094 C 35.621094 30.296875 35.160156 29.847656 34.695312 29.40625 C 34.578125 29.292969 34.4375 29.203125 34.230469 29.289062 C 34.183594 29.21875 34.132812 29.152344 34.097656 29.101562 C 33.957031 29.234375 33.851562 29.328125 33.746094 29.421875 C 32.71875 30.375 31.527344 30.609375 30.191406 30.199219 C 30.136719 30.148438 30.085938 30.085938 30.023438 30.042969 C 29.535156 29.714844 29.242188 29.25 29.144531 28.679688 C 29.039062 28.089844 29.089844 27.503906 29.261719 26.929688 C 29.484375 26.179688 29.882812 25.550781 30.535156 25.101562 C 31.308594 24.566406 32.171875 24.425781 33.082031 24.582031 C 33.628906 24.675781 34.117188 24.925781 34.476562 25.367188 C 34.792969 25.765625 35.027344 25.808594 35.425781 25.492188 C 35.980469 25.046875 36.53125 24.597656 37.089844 24.152344 C 37.332031 23.960938 37.390625 23.671875 37.226562 23.417969 C 36.917969 22.949219 36.511719 22.582031 36.03125 22.296875 C 35.828125 22.179688 35.640625 22.007812 35.351562 22.035156 C 35.128906 21.941406 34.914062 21.835938 34.6875 21.757812 C 33.445312 21.332031 32.175781 21.304688 30.898438 21.527344 C 29.199219 21.820312 27.753906 22.589844 26.726562 23.992188 C 25.386719 25.828125 25.023438 27.855469 25.71875 30.0625 C 25.726562 30.125 25.722656 30.1875 25.742188 30.246094 C 26.011719 31.082031 26.539062 31.738281 27.199219 32.277344 C 28.230469 33.117188 29.457031 33.472656 30.765625 33.550781 C 31.503906 33.59375 32.242188 33.542969 32.972656 33.398438 C 33.632812 33.265625 34.261719 33.050781 34.847656 32.714844 C 35.027344 32.613281 35.230469 32.542969 35.429688 32.492188 C 35.484375 32.9375 35.535156 33.382812 35.59375 33.824219 C 35.640625 34.175781 35.691406 34.527344 35.746094 34.910156 C 35.796875 35.082031 35.867188 35.238281 36.050781 35.308594 C 36.382812 35.441406 36.976562 35.445312 37.230469 35.011719 C 37.277344 34.929688 37.3125 34.832031 37.371094 34.757812 C 37.472656 34.625 37.589844 34.503906 37.71875 34.402344 C 37.75 34.5625 37.78125 34.722656 37.816406 34.914062 C 37.898438 35.027344 37.957031 35.171875 38.0625 35.25 C 38.425781 35.515625 39.074219 35.347656 39.285156 34.949219 C 39.515625 34.507812 39.746094 34.0625 39.988281 33.625 C 40.035156 33.539062 40.128906 33.472656 40.207031 33.429688 M 43.542969 28.789062 C 43.519531 28.914062 43.492188 29.039062 43.46875 29.171875 C 43.546875 29.175781 43.609375 29.183594 43.671875 29.214844 C 43.753906 29.46875 43.886719 29.570312 44.15625 29.570312 C 44.78125 29.570312 45.40625 29.566406 46.03125 29.570312 C 46.222656 29.574219 46.375 29.496094 46.484375 29.351562 C 46.597656 29.199219 46.644531 29.023438 46.558594 28.835938 C 46.496094 28.707031 46.402344 28.613281 46.238281 28.597656 C 46.242188 28.550781 46.246094 28.503906 46.246094 28.433594 C 45.910156 28.433594 45.59375 28.433594 45.28125 28.40625 C 45.300781 28.390625 45.320312 28.363281 45.339844 28.363281 C 45.566406 28.347656 45.789062 28.328125 46.015625 28.320312 C 46.335938 28.308594 46.519531 28.1875 46.609375 27.914062 C 46.707031 27.628906 46.644531 27.4375 46.382812 27.238281 C 46.347656 27.210938 46.300781 27.203125 46.261719 27.1875 C 46.277344 27.167969 46.292969 27.148438 46.308594 27.125 C 46.433594 27.09375 46.558594 27.0625 46.683594 27.03125 C 46.921875 26.96875 47.097656 26.714844 47.109375 26.417969 C 47.117188 26.191406 46.992188 26.054688 46.707031 25.941406 C 46.660156 25.914062 46.613281 25.871094 46.566406 25.867188 C 45.800781 25.863281 45.035156 25.867188 44.273438 25.863281 C 44.160156 25.863281 44.117188 25.890625 44.09375 26.007812 C 44.023438 26.402344 43.9375 26.792969 43.828125 27.183594 C 43.742188 27.023438 43.664062 26.855469 43.5625 26.703125 C 43.371094 26.414062 43.144531 26.167969 42.738281 26.132812 C 42.519531 26.054688 42.304688 25.921875 42.082031 25.910156 C 41.472656 25.878906 40.863281 25.902344 40.238281 25.902344 C 40.160156 26.273438 40.078125 26.671875 39.964844 27.066406 C 39.898438 26.960938 39.828125 26.855469 39.761719 26.746094 C 39.515625 26.335938 39.199219 26.023438 38.664062 25.980469 C 38.367188 25.925781 38.070312 25.824219 37.773438 25.820312 C 36.085938 25.796875 35.386719 27.417969 35.902344 28.535156 C 35.925781 28.648438 35.929688 28.773438 35.984375 28.871094 C 36.179688 29.226562 36.46875 29.492188 36.855469 29.601562 C 37.796875 29.875 38.664062 29.777344 39.386719 29.035156 C 39.453125 28.964844 39.550781 28.925781 39.636719 28.90625 C 39.617188 28.992188 39.601562 29.078125 39.585938 29.167969 C 39.640625 29.175781 39.683594 29.179688 39.726562 29.214844 C 39.773438 29.515625 39.898438 29.644531 40.222656 29.644531 C 40.820312 29.644531 41.417969 29.652344 42.007812 29.597656 C 42.546875 29.550781 43.003906 29.292969 43.351562 28.863281 C 43.394531 28.8125 43.476562 28.792969 43.542969 28.789062 M 33.066406 35.929688 C 30.476562 35.929688 27.886719 35.929688 25.28125 35.929688 C 24.746094 38.609375 24.214844 41.273438 23.679688 43.949219 C 23.738281 43.953125 23.769531 43.960938 23.800781 43.960938 C 26.253906 43.960938 28.710938 43.964844 31.164062 43.96875 C 31.289062 43.96875 31.332031 43.921875 31.351562 43.808594 C 31.453125 43.265625 31.585938 42.726562 31.664062 42.179688 C 31.695312 41.953125 31.78125 41.933594 31.972656 41.933594 C 36.386719 41.9375 40.796875 41.933594 45.210938 41.933594 C 45.269531 41.933594 45.328125 41.929688 45.386719 41.9375 C 45.515625 41.945312 45.566406 41.894531 45.589844 41.765625 C 45.871094 40.363281 46.15625 38.960938 46.441406 37.5625 C 46.546875 37.027344 46.65625 36.492188 46.769531 35.929688 C 42.203125 35.929688 37.652344 35.929688 33.066406 35.929688 Z M 33.066406 35.929688 "/>
<path style=" stroke:none;fill-rule:nonzero;fill:rgb(100%,0%,7.450981%);fill-opacity:1;" d="M 8.84375 33.199219 C 9.265625 30.375 10.09375 27.675781 11.316406 25.097656 C 12.589844 22.414062 14.238281 19.984375 16.257812 17.808594 C 18.683594 15.199219 21.492188 13.09375 24.6875 11.515625 C 27.273438 10.238281 29.992188 9.363281 32.84375 8.898438 C 34.699219 8.597656 36.566406 8.472656 38.441406 8.53125 C 42.546875 8.664062 46.453125 9.613281 50.15625 11.402344 C 53.386719 12.960938 56.226562 15.046875 58.679688 17.660156 C 62.238281 21.453125 64.613281 25.886719 65.800781 30.949219 C 66.042969 31.992188 66.191406 33.058594 66.351562 34.117188 C 66.433594 34.660156 66.457031 35.210938 66.480469 35.757812 C 66.515625 36.636719 66.554688 37.511719 66.535156 38.386719 C 66.519531 39.15625 66.429688 39.921875 66.367188 40.6875 C 66.230469 42.40625 65.871094 44.082031 65.382812 45.730469 C 64.089844 50.09375 61.898438 53.953125 58.796875 57.289062 C 56.367188 59.90625 53.550781 62.007812 50.347656 63.582031 C 47.691406 64.890625 44.902344 65.78125 41.972656 66.210938 C 41.199219 66.328125 40.417969 66.4375 39.636719 66.472656 C 38.460938 66.523438 37.273438 66.566406 36.097656 66.511719 C 32.289062 66.339844 28.648438 65.46875 25.222656 63.785156 C 23.582031 62.976562 22.042969 61.984375 20.503906 60.996094 C 20.105469 60.738281 20.113281 60.738281 20.214844 60.289062 C 20.753906 57.90625 21.292969 55.523438 21.832031 53.140625 C 21.839844 53.109375 21.84375 53.078125 21.855469 53.015625 C 21.878906 52.914062 21.894531 52.839844 21.914062 52.742188 C 21.835938 52.742188 21.773438 52.742188 21.710938 52.742188 C 18.367188 52.742188 15.023438 52.742188 11.679688 52.742188 C 11.617188 52.742188 11.550781 52.746094 11.484375 52.75 C 11.390625 52.742188 11.292969 52.738281 11.179688 52.730469 C 11.300781 52.113281 11.421875 51.511719 11.542969 50.90625 C 12.1875 47.6875 12.832031 44.46875 13.472656 41.25 C 14.121094 38.019531 14.765625 34.785156 15.414062 31.554688 C 15.820312 29.527344 16.226562 27.5 16.628906 25.472656 C 16.652344 25.359375 16.675781 25.304688 16.808594 25.304688 C 19.308594 25.308594 21.808594 25.304688 24.308594 25.308594 C 24.339844 25.308594 24.371094 25.3125 24.429688 25.320312 C 23.019531 32.402344 21.613281 39.472656 20.203125 46.574219 C 26.070312 46.574219 31.910156 46.574219 37.777344 46.574219 C 37.355469 48.640625 36.9375 50.683594 36.519531 52.738281 C 36.429688 52.738281 36.351562 52.738281 36.277344 52.738281 C 34.109375 52.738281 31.941406 52.742188 29.773438 52.734375 C 29.613281 52.734375 29.558594 52.792969 29.53125 52.933594 C 29.265625 54.304688 28.996094 55.675781 28.726562 57.046875 C 28.621094 57.585938 28.515625 58.128906 28.402344 58.671875 C 28.375 58.796875 28.398438 58.863281 28.53125 58.917969 C 30.320312 59.664062 32.171875 60.191406 34.09375 60.476562 C 35.382812 60.667969 36.679688 60.765625 37.980469 60.734375 C 42.347656 60.628906 46.390625 59.425781 50.0625 57.050781 C 54.367188 54.257812 57.4375 50.449219 59.265625 45.648438 C 60.003906 43.71875 60.445312 41.71875 60.636719 39.660156 C 60.8125 37.746094 60.746094 35.839844 60.476562 33.941406 C 59.738281 28.699219 57.589844 24.105469 54.085938 20.148438 C 53.089844 19.027344 52 18.003906 50.800781 17.0625 C 50.769531 17.039062 50.757812 17.035156 50.742188 17.027344 C 50.742188 17.027344 50.742188 17.03125 50.738281 17.019531 C 50.714844 17 50.691406 16.988281 50.671875 16.976562 C 50.671875 16.976562 50.667969 16.984375 50.667969 16.972656 C 50.65625 16.957031 50.644531 16.949219 50.628906 16.945312 C 50.628906 16.945312 50.628906 16.949219 50.628906 16.9375 C 50.613281 16.921875 50.601562 16.914062 50.585938 16.90625 C 50.585938 16.90625 50.589844 16.910156 50.585938 16.898438 C 50.558594 16.878906 50.539062 16.871094 50.515625 16.859375 C 50.515625 16.859375 50.515625 16.867188 50.515625 16.855469 C 50.5 16.835938 50.488281 16.832031 50.472656 16.824219 C 50.472656 16.824219 50.472656 16.832031 50.472656 16.820312 C 50.460938 16.800781 50.445312 16.796875 50.433594 16.789062 C 50.433594 16.789062 50.433594 16.792969 50.429688 16.78125 C 50.40625 16.761719 50.382812 16.75 50.363281 16.742188 C 50.363281 16.742188 50.359375 16.746094 50.359375 16.734375 C 50.347656 16.71875 50.332031 16.714844 50.316406 16.707031 C 50.316406 16.707031 50.316406 16.714844 50.316406 16.703125 C 50.304688 16.683594 50.289062 16.675781 50.277344 16.664062 C 50.273438 16.652344 50.269531 16.644531 50.242188 16.628906 C 50.191406 16.59375 50.15625 16.570312 50.121094 16.550781 C 50.117188 16.535156 50.113281 16.527344 50.085938 16.511719 C 50.035156 16.480469 50 16.460938 49.964844 16.4375 C 49.964844 16.4375 49.964844 16.441406 49.960938 16.429688 C 49.90625 16.386719 49.855469 16.355469 49.808594 16.324219 C 49.808594 16.324219 49.804688 16.328125 49.800781 16.316406 C 49.761719 16.285156 49.726562 16.261719 49.691406 16.242188 C 49.691406 16.242188 49.691406 16.246094 49.683594 16.234375 C 45.789062 13.484375 41.472656 11.925781 36.734375 11.53125 C 35.101562 11.394531 33.472656 11.421875 31.84375 11.597656 C 29.859375 11.808594 27.917969 12.226562 26.039062 12.898438 C 20.40625 14.910156 15.957031 18.425781 12.691406 23.433594 C 12.234375 24.136719 11.855469 24.886719 11.429688 25.621094 C 11.414062 25.652344 11.40625 25.675781 11.402344 25.699219 C 11.402344 25.699219 11.402344 25.695312 11.390625 25.703125 C 11.375 25.734375 11.367188 25.757812 11.363281 25.777344 C 11.363281 25.777344 11.363281 25.773438 11.351562 25.78125 C 11.332031 25.808594 11.324219 25.832031 11.320312 25.855469 C 11.324219 25.855469 11.320312 25.851562 11.3125 25.855469 C 11.300781 25.871094 11.296875 25.886719 11.285156 25.910156 C 11.265625 25.949219 11.253906 25.980469 11.242188 26.011719 C 10.90625 26.769531 10.542969 27.519531 10.238281 28.289062 C 9.617188 29.867188 9.195312 31.5 8.894531 33.1875 C 8.871094 33.203125 8.855469 33.199219 8.84375 33.199219 Z M 8.84375 33.199219 "/>
<path style=" stroke:none;fill-rule:nonzero;fill:rgb(100%,0%,7.450981%);fill-opacity:1;" d="M 33.085938 35.929688 C 37.652344 35.929688 42.203125 35.929688 46.769531 35.929688 C 46.65625 36.492188 46.546875 37.027344 46.441406 37.5625 C 46.15625 38.960938 45.871094 40.363281 45.589844 41.765625 C 45.566406 41.894531 45.515625 41.945312 45.386719 41.9375 C 45.328125 41.929688 45.269531 41.933594 45.210938 41.933594 C 40.796875 41.933594 36.386719 41.9375 31.972656 41.933594 C 31.78125 41.933594 31.695312 41.953125 31.664062 42.179688 C 31.585938 42.726562 31.453125 43.265625 31.351562 43.808594 C 31.332031 43.921875 31.289062 43.96875 31.164062 43.96875 C 28.710938 43.964844 26.253906 43.960938 23.800781 43.960938 C 23.769531 43.960938 23.738281 43.953125 23.679688 43.949219 C 24.214844 41.273438 24.746094 38.609375 25.28125 35.929688 C 27.886719 35.929688 30.476562 35.929688 33.085938 35.929688 Z M 33.085938 35.929688 "/>
<path style=" stroke:none;fill-rule:nonzero;fill:rgb(99.607843%,99.607843%,99.607843%);fill-opacity:1;" d="M 30.195312 30.226562 C 31.527344 30.609375 32.71875 30.375 33.746094 29.421875 C 33.851562 29.328125 33.957031 29.234375 34.097656 29.101562 C 34.132812 29.152344 34.183594 29.21875 34.25 29.304688 C 34.800781 29.878906 35.335938 30.4375 35.875 31 C 35.53125 31.460938 34.847656 32.050781 34.238281 32.335938 C 32.46875 33.164062 30.636719 33.230469 28.773438 32.703125 C 28.242188 32.554688 27.738281 32.332031 27.296875 31.996094 C 26.613281 31.476562 26.078125 30.835938 25.738281 30.039062 C 25.023438 27.855469 25.386719 25.828125 26.726562 23.992188 C 27.753906 22.589844 29.199219 21.820312 30.898438 21.527344 C 32.175781 21.304688 33.445312 21.332031 34.6875 21.757812 C 34.914062 21.835938 35.128906 21.941406 35.371094 22.046875 C 35.984375 22.367188 36.480469 22.789062 36.847656 23.351562 C 36.925781 23.46875 36.921875 23.542969 36.800781 23.632812 C 36.445312 23.898438 36.105469 24.183594 35.757812 24.457031 C 35.394531 24.746094 35.03125 25.039062 34.664062 25.328125 C 34.640625 25.304688 34.621094 25.292969 34.613281 25.277344 C 34.113281 24.53125 33.417969 24.105469 32.519531 24.039062 C 31.375 23.957031 30.371094 24.265625 29.582031 25.132812 C 28.8125 25.976562 28.550781 27.003906 28.597656 28.121094 C 28.644531 29.132812 29.25 29.914062 30.195312 30.226562 Z M 30.195312 30.226562 "/>
<path style=" stroke:none;fill-rule:nonzero;fill:rgb(3.529412%,2.352941%,2.352941%);fill-opacity:1;" d="M 11.441406 25.613281 C 11.855469 24.886719 12.234375 24.136719 12.691406 23.433594 C 15.957031 18.425781 20.40625 14.910156 26.039062 12.898438 C 27.917969 12.226562 29.859375 11.808594 31.84375 11.597656 C 33.472656 11.421875 35.101562 11.394531 36.734375 11.53125 C 41.472656 11.925781 45.789062 13.484375 49.6875 16.234375 C 49.605469 16.207031 49.515625 16.179688 49.433594 16.132812 C 48.464844 15.566406 47.519531 14.953125 46.519531 14.445312 C 44.59375 13.457031 42.554688 12.753906 40.433594 12.3125 C 39.625 12.144531 38.804688 12.023438 37.984375 11.917969 C 37.316406 11.835938 36.644531 11.796875 35.972656 11.761719 C 35.355469 11.730469 34.738281 11.695312 34.121094 11.726562 C 33.257812 11.769531 32.394531 11.859375 31.53125 11.953125 C 29.632812 12.15625 27.796875 12.636719 26.007812 13.28125 C 24.589844 13.792969 23.214844 14.394531 21.933594 15.1875 C 21.003906 15.765625 20.082031 16.359375 19.191406 17 C 18.554688 17.453125 17.96875 17.980469 17.382812 18.503906 C 16.871094 18.960938 16.359375 19.429688 15.90625 19.949219 C 15.15625 20.796875 14.425781 21.667969 13.742188 22.570312 C 12.933594 23.636719 12.230469 24.78125 11.65625 25.992188 C 11.21875 26.925781 10.78125 27.863281 10.421875 28.832031 C 10.066406 29.796875 9.777344 30.789062 9.527344 31.789062 C 9.320312 32.621094 9.210938 33.480469 9.0625 34.328125 C 9.023438 34.535156 9 34.746094 8.933594 34.953125 C 8.964844 34.648438 8.984375 34.339844 9.03125 34.035156 C 9.152344 33.289062 9.265625 32.539062 9.417969 31.800781 C 9.691406 30.484375 10.054688 29.191406 10.527344 27.929688 C 10.753906 27.335938 11 26.75 11.234375 26.15625 C 11.25 26.117188 11.25 26.070312 11.25 26.019531 C 11.253906 25.980469 11.265625 25.949219 11.292969 25.902344 C 11.3125 25.875 11.316406 25.863281 11.320312 25.851562 C 11.320312 25.851562 11.324219 25.855469 11.332031 25.851562 C 11.347656 25.820312 11.355469 25.796875 11.363281 25.773438 C 11.363281 25.773438 11.363281 25.777344 11.371094 25.773438 C 11.386719 25.742188 11.394531 25.71875 11.402344 25.695312 C 11.402344 25.695312 11.402344 25.699219 11.414062 25.695312 C 11.429688 25.664062 11.433594 25.636719 11.441406 25.613281 Z M 11.441406 25.613281 "/>
<path style=" stroke:none;fill-rule:nonzero;fill:rgb(99.215686%,99.215686%,99.215686%);fill-opacity:1;" d="M 36.054688 31.90625 C 36.167969 31.898438 36.203125 31.949219 36.214844 32.0625 C 36.273438 32.617188 36.34375 33.171875 36.417969 33.777344 C 36.496094 33.632812 36.554688 33.527344 36.609375 33.421875 C 36.851562 32.964844 37.097656 32.507812 37.332031 32.042969 C 37.386719 31.941406 37.445312 31.90625 37.554688 31.910156 C 37.761719 31.917969 37.96875 31.914062 38.183594 31.914062 C 38.253906 32.535156 38.320312 33.140625 38.386719 33.746094 C 38.398438 33.746094 38.410156 33.75 38.421875 33.753906 C 38.742188 33.140625 39.066406 32.53125 39.386719 31.914062 C 39.640625 31.914062 39.886719 31.914062 40.132812 31.917969 C 40.15625 31.917969 40.179688 31.941406 40.191406 31.984375 C 39.703125 32.917969 39.226562 33.824219 38.753906 34.734375 C 38.699219 34.839844 38.636719 34.882812 38.515625 34.878906 C 38.28125 34.871094 38.046875 34.882812 37.8125 34.886719 C 37.78125 34.722656 37.75 34.5625 37.710938 34.371094 C 37.660156 33.949219 37.617188 33.554688 37.5625 33.105469 C 37.257812 33.679688 36.984375 34.203125 36.710938 34.722656 C 36.65625 34.832031 36.597656 34.886719 36.460938 34.878906 C 36.222656 34.867188 35.980469 34.878906 35.742188 34.878906 C 35.691406 34.527344 35.640625 34.175781 35.59375 33.824219 C 35.535156 33.382812 35.484375 32.9375 35.429688 32.460938 C 35.40625 32.261719 35.386719 32.09375 35.363281 31.90625 C 35.605469 31.90625 35.832031 31.90625 36.054688 31.90625 Z M 36.054688 31.90625 "/>
<path style=" stroke:none;fill-rule:nonzero;fill:rgb(99.215686%,99.215686%,99.215686%);fill-opacity:1;" d="M 39.992188 27.070312 C 40.078125 26.671875 40.160156 26.273438 40.238281 25.902344 C 40.863281 25.902344 41.472656 25.878906 42.082031 25.910156 C 42.304688 25.921875 42.519531 26.054688 42.757812 26.144531 C 42.882812 26.257812 43 26.34375 43.082031 26.457031 C 43.386719 26.875 43.382812 27.34375 43.257812 27.8125 C 43.046875 28.625 42.324219 29.152344 41.402344 29.171875 C 40.84375 29.183594 40.285156 29.183594 39.726562 29.1875 C 39.683594 29.179688 39.640625 29.175781 39.585938 29.167969 C 39.601562 29.078125 39.617188 28.992188 39.640625 28.875 C 39.761719 28.253906 39.878906 27.664062 39.992188 27.070312 M 42.382812 27.3125 C 42.355469 26.9375 42.210938 26.730469 41.878906 26.667969 C 41.601562 26.617188 41.316406 26.625 41.03125 26.605469 C 40.910156 27.230469 40.796875 27.816406 40.679688 28.40625 C 40.90625 28.40625 41.097656 28.40625 41.324219 28.414062 C 41.960938 28.402344 42.367188 27.988281 42.382812 27.3125 Z M 42.382812 27.3125 "/>
<path style=" stroke:none;fill-rule:nonzero;fill:rgb(99.215686%,99.215686%,99.215686%);fill-opacity:1;" d="M 35.902344 28.503906 C 35.386719 27.417969 36.085938 25.796875 37.773438 25.820312 C 38.070312 25.824219 38.367188 25.925781 38.683594 25.992188 C 39.09375 26.203125 39.328125 26.523438 39.414062 26.945312 C 39.585938 27.808594 39.125 28.695312 38.335938 29.046875 C 37.40625 29.460938 36.453125 29.246094 35.902344 28.503906 M 38.476562 27.15625 C 38.390625 26.800781 38.164062 26.617188 37.808594 26.59375 C 36.96875 26.535156 36.625 27.308594 36.710938 27.871094 C 36.757812 28.195312 36.96875 28.394531 37.332031 28.449219 C 38.066406 28.503906 38.613281 27.898438 38.476562 27.15625 Z M 38.476562 27.15625 "/>
<path style=" stroke:none;fill-rule:nonzero;fill:rgb(5.882353%,5.882353%,5.882353%);fill-opacity:1;" d="M 30.191406 30.210938 C 29.25 29.914062 28.644531 29.132812 28.597656 28.121094 C 28.550781 27.003906 28.8125 25.976562 29.582031 25.132812 C 30.371094 24.265625 31.375 23.957031 32.519531 24.039062 C 33.417969 24.105469 34.113281 24.53125 34.613281 25.277344 C 34.621094 25.292969 34.640625 25.304688 34.664062 25.328125 C 35.03125 25.039062 35.394531 24.746094 35.757812 24.457031 C 36.105469 24.183594 36.445312 23.898438 36.800781 23.632812 C 36.921875 23.542969 36.925781 23.46875 36.847656 23.351562 C 36.480469 22.789062 35.984375 22.367188 35.386719 22.046875 C 35.640625 22.007812 35.828125 22.179688 36.03125 22.296875 C 36.511719 22.582031 36.917969 22.949219 37.226562 23.417969 C 37.390625 23.671875 37.332031 23.960938 37.089844 24.152344 C 36.53125 24.597656 35.980469 25.046875 35.425781 25.492188 C 35.027344 25.808594 34.792969 25.765625 34.476562 25.367188 C 34.117188 24.925781 33.628906 24.675781 33.082031 24.582031 C 32.171875 24.425781 31.308594 24.566406 30.535156 25.101562 C 29.882812 25.550781 29.484375 26.179688 29.261719 26.929688 C 29.089844 27.503906 29.039062 28.089844 29.144531 28.679688 C 29.242188 29.25 29.535156 29.714844 30.023438 30.042969 C 30.085938 30.085938 30.136719 30.148438 30.191406 30.210938 Z M 30.191406 30.210938 "/>
<path style=" stroke:none;fill-rule:nonzero;fill:rgb(99.215686%,99.215686%,99.215686%);fill-opacity:1;" d="M 43.671875 29.1875 C 43.609375 29.183594 43.546875 29.175781 43.46875 29.171875 C 43.492188 29.039062 43.519531 28.914062 43.546875 28.761719 C 43.652344 28.214844 43.753906 27.703125 43.855469 27.1875 C 43.9375 26.792969 44.023438 26.402344 44.09375 26.007812 C 44.117188 25.890625 44.160156 25.863281 44.273438 25.863281 C 45.035156 25.867188 45.800781 25.863281 46.566406 25.867188 C 46.613281 25.871094 46.660156 25.914062 46.695312 25.96875 C 46.648438 26.195312 46.605469 26.398438 46.5625 26.605469 C 46.003906 26.605469 45.460938 26.605469 44.90625 26.605469 C 44.871094 26.789062 44.835938 26.960938 44.796875 27.15625 C 45.296875 27.15625 45.773438 27.15625 46.261719 27.15625 C 46.214844 27.398438 46.167969 27.617188 46.121094 27.855469 C 45.632812 27.855469 45.144531 27.855469 44.65625 27.855469 C 44.617188 28.054688 44.582031 28.242188 44.546875 28.433594 C 44.808594 28.433594 45.039062 28.433594 45.273438 28.433594 C 45.59375 28.433594 45.910156 28.433594 46.246094 28.433594 C 46.246094 28.503906 46.242188 28.550781 46.230469 28.625 C 46.1875 28.824219 46.152344 28.996094 46.113281 29.1875 C 45.292969 29.1875 44.484375 29.1875 43.671875 29.1875 Z M 43.671875 29.1875 "/>
<path style=" stroke:none;fill-rule:nonzero;fill:rgb(6.666667%,6.666667%,6.666667%);fill-opacity:1;" d="M 36.054688 31.894531 C 35.832031 31.90625 35.605469 31.90625 35.363281 31.90625 C 35.386719 32.09375 35.40625 32.261719 35.421875 32.445312 C 35.230469 32.542969 35.027344 32.613281 34.847656 32.714844 C 34.261719 33.050781 33.632812 33.265625 32.972656 33.398438 C 32.242188 33.542969 31.503906 33.59375 30.765625 33.550781 C 29.457031 33.472656 28.230469 33.117188 27.199219 32.277344 C 26.539062 31.738281 26.011719 31.082031 25.742188 30.246094 C 25.722656 30.1875 25.726562 30.125 25.726562 30.050781 C 26.078125 30.835938 26.613281 31.476562 27.296875 31.996094 C 27.738281 32.332031 28.242188 32.554688 28.773438 32.703125 C 30.636719 33.230469 32.46875 33.164062 34.238281 32.335938 C 34.847656 32.050781 35.53125 31.460938 35.875 31 C 35.335938 30.4375 34.800781 29.878906 34.261719 29.308594 C 34.4375 29.203125 34.578125 29.292969 34.695312 29.40625 C 35.160156 29.847656 35.621094 30.296875 36.078125 30.746094 C 36.375 31.039062 36.4375 31.332031 36.15625 31.648438 C 36.101562 31.710938 36.085938 31.800781 36.054688 31.894531 Z M 36.054688 31.894531 "/>
<path style=" stroke:none;fill-rule:nonzero;fill:rgb(98.823529%,98.823529%,98.823529%);fill-opacity:1;" d="M 44.578125 32.03125 C 44.625 31.992188 44.667969 31.921875 44.714844 31.917969 C 44.957031 31.90625 45.195312 31.914062 45.457031 31.914062 C 45.382812 32.285156 45.3125 32.640625 45.242188 33.007812 C 45.621094 33.007812 45.984375 33.007812 46.359375 33.007812 C 46.433594 32.648438 46.503906 32.296875 46.585938 31.894531 C 46.859375 31.917969 47.140625 31.9375 47.414062 31.988281 C 47.21875 32.96875 47.023438 33.921875 46.828125 34.886719 C 46.585938 34.886719 46.359375 34.886719 46.132812 34.886719 C 46.09375 34.878906 46.058594 34.875 45.996094 34.863281 C 46.03125 34.671875 46.066406 34.480469 46.109375 34.261719 C 46.148438 34.066406 46.179688 33.898438 46.21875 33.714844 C 45.863281 33.714844 45.535156 33.710938 45.203125 33.722656 C 45.160156 33.722656 45.089844 33.792969 45.078125 33.84375 C 45.003906 34.179688 44.9375 34.523438 44.863281 34.886719 C 44.605469 34.886719 44.351562 34.886719 44.101562 34.886719 C 44.085938 34.835938 44.046875 34.785156 44.054688 34.742188 C 44.15625 34.199219 44.265625 33.660156 44.378906 33.085938 C 44.445312 32.714844 44.511719 32.371094 44.578125 32.03125 Z M 44.578125 32.03125 "/>
<path style=" stroke:none;fill-rule:nonzero;fill:rgb(99.215686%,99.215686%,99.215686%);fill-opacity:1;" d="M 41.628906 32.03125 C 41.671875 31.992188 41.710938 31.917969 41.75 31.917969 C 42.582031 31.914062 43.414062 31.914062 44.25 31.917969 C 44.265625 31.917969 44.285156 31.941406 44.296875 31.988281 C 44.253906 32.210938 44.210938 32.398438 44.171875 32.585938 C 43.863281 32.585938 43.578125 32.585938 43.277344 32.585938 C 43.121094 33.351562 42.96875 34.113281 42.8125 34.886719 C 42.5625 34.886719 42.335938 34.886719 42.109375 34.886719 C 41.941406 34.890625 41.988281 34.78125 42.007812 34.6875 C 42.109375 34.167969 42.214844 33.644531 42.328125 33.09375 C 42.363281 32.910156 42.394531 32.753906 42.429688 32.582031 C 42.117188 32.582031 41.824219 32.582031 41.53125 32.582031 C 41.566406 32.386719 41.597656 32.210938 41.628906 32.03125 Z M 41.628906 32.03125 "/>
<path style=" stroke:none;fill-rule:nonzero;fill:rgb(6.666667%,6.666667%,6.666667%);fill-opacity:1;" d="M 35.902344 28.519531 C 36.453125 29.246094 37.40625 29.460938 38.335938 29.046875 C 39.125 28.695312 39.585938 27.808594 39.414062 26.945312 C 39.328125 26.523438 39.09375 26.203125 38.699219 25.992188 C 39.199219 26.023438 39.515625 26.335938 39.761719 26.746094 C 39.828125 26.855469 39.898438 26.960938 39.980469 27.070312 C 39.878906 27.664062 39.761719 28.253906 39.640625 28.859375 C 39.550781 28.925781 39.453125 28.964844 39.386719 29.035156 C 38.664062 29.777344 37.796875 29.875 36.855469 29.601562 C 36.46875 29.492188 36.179688 29.226562 35.984375 28.871094 C 35.929688 28.773438 35.925781 28.648438 35.902344 28.519531 Z M 35.902344 28.519531 "/>
<path style=" stroke:none;fill-rule:nonzero;fill:rgb(5.882353%,5.882353%,5.882353%);fill-opacity:1;" d="M 43.84375 27.1875 C 43.753906 27.703125 43.652344 28.214844 43.546875 28.746094 C 43.476562 28.792969 43.394531 28.8125 43.351562 28.863281 C 43.003906 29.292969 42.546875 29.550781 42.007812 29.597656 C 41.417969 29.652344 40.820312 29.644531 40.222656 29.644531 C 39.898438 29.644531 39.773438 29.515625 39.726562 29.203125 C 40.285156 29.183594 40.84375 29.183594 41.402344 29.171875 C 42.324219 29.152344 43.046875 28.625 43.257812 27.8125 C 43.382812 27.34375 43.386719 26.875 43.082031 26.457031 C 43 26.34375 42.882812 26.257812 42.773438 26.148438 C 43.144531 26.167969 43.371094 26.414062 43.5625 26.703125 C 43.664062 26.855469 43.742188 27.023438 43.84375 27.1875 Z M 43.84375 27.1875 "/>
<path style=" stroke:none;fill-rule:nonzero;fill:rgb(2.352941%,2.352941%,2.352941%);fill-opacity:1;" d="M 11.484375 52.765625 C 11.550781 52.746094 11.617188 52.742188 11.679688 52.742188 C 15.023438 52.742188 18.367188 52.742188 21.710938 52.742188 C 21.773438 52.742188 21.835938 52.742188 21.914062 52.742188 C 21.894531 52.839844 21.878906 52.914062 21.855469 53 C 20.457031 53.011719 19.066406 53.007812 17.675781 53.007812 C 15.683594 53.007812 13.695312 53.007812 11.707031 53.007812 C 11.628906 53.007812 11.550781 53.007812 11.464844 53.007812 C 11.472656 52.917969 11.480469 52.847656 11.484375 52.765625 Z M 11.484375 52.765625 "/>
<path style=" stroke:none;fill-rule:nonzero;fill:rgb(5.882353%,5.882353%,5.882353%);fill-opacity:1;" d="M 45.277344 28.421875 C 45.039062 28.433594 44.808594 28.433594 44.546875 28.433594 C 44.582031 28.242188 44.617188 28.054688 44.65625 27.855469 C 45.144531 27.855469 45.632812 27.855469 46.121094 27.855469 C 46.167969 27.617188 46.214844 27.398438 46.261719 27.15625 C 45.773438 27.15625 45.296875 27.15625 44.796875 27.15625 C 44.835938 26.960938 44.871094 26.789062 44.90625 26.605469 C 45.460938 26.605469 46.003906 26.605469 46.5625 26.605469 C 46.605469 26.398438 46.648438 26.195312 46.699219 25.984375 C 46.992188 26.054688 47.117188 26.191406 47.109375 26.417969 C 47.097656 26.714844 46.921875 26.96875 46.683594 27.03125 C 46.558594 27.0625 46.433594 27.09375 46.308594 27.125 C 46.292969 27.148438 46.277344 27.167969 46.261719 27.1875 C 46.300781 27.203125 46.347656 27.210938 46.382812 27.238281 C 46.644531 27.4375 46.707031 27.628906 46.609375 27.914062 C 46.519531 28.1875 46.335938 28.308594 46.015625 28.320312 C 45.789062 28.328125 45.566406 28.347656 45.339844 28.363281 C 45.320312 28.363281 45.300781 28.390625 45.277344 28.421875 Z M 45.277344 28.421875 "/>
<path style=" stroke:none;fill-rule:nonzero;fill:rgb(98.823529%,98.823529%,98.823529%);fill-opacity:1;" d="M 40.039062 34.886719 C 39.925781 34.890625 39.925781 34.835938 39.945312 34.738281 C 40.039062 34.304688 40.121094 33.867188 40.210938 33.402344 C 40.304688 32.925781 40.390625 32.480469 40.476562 32.03125 C 40.515625 31.992188 40.550781 31.921875 40.589844 31.917969 C 40.832031 31.910156 41.078125 31.914062 41.320312 31.917969 C 41.332031 31.917969 41.339844 31.945312 41.34375 31.984375 C 41.148438 32.960938 40.957031 33.914062 40.765625 34.886719 C 40.515625 34.886719 40.277344 34.886719 40.039062 34.886719 Z M 40.039062 34.886719 "/>
<path style=" stroke:none;fill-rule:nonzero;fill:rgb(6.666667%,6.666667%,6.666667%);fill-opacity:1;" d="M 42.109375 34.902344 C 42.335938 34.886719 42.5625 34.886719 42.8125 34.886719 C 42.96875 34.113281 43.121094 33.351562 43.277344 32.585938 C 43.578125 32.585938 43.863281 32.585938 44.171875 32.585938 C 44.210938 32.398438 44.253906 32.210938 44.300781 32.007812 C 44.386719 32.003906 44.464844 32.015625 44.5625 32.03125 C 44.511719 32.371094 44.445312 32.714844 44.375 33.070312 C 43.855469 33.082031 43.703125 33.027344 43.613281 33.695312 C 43.5625 34.0625 43.46875 34.417969 43.394531 34.777344 C 43.300781 35.265625 42.828125 35.523438 42.375 35.324219 C 42.203125 35.25 42.082031 35.128906 42.109375 34.902344 Z M 42.109375 34.902344 "/>
<path style=" stroke:none;fill-rule:nonzero;fill:rgb(5.882353%,5.882353%,5.882353%);fill-opacity:1;" d="M 40.460938 32.03125 C 40.390625 32.480469 40.304688 32.925781 40.210938 33.386719 C 40.128906 33.472656 40.035156 33.539062 39.988281 33.625 C 39.746094 34.0625 39.515625 34.507812 39.285156 34.949219 C 39.074219 35.347656 38.425781 35.515625 38.0625 35.25 C 37.957031 35.171875 37.898438 35.027344 37.8125 34.898438 C 38.046875 34.882812 38.28125 34.871094 38.515625 34.878906 C 38.636719 34.882812 38.699219 34.839844 38.753906 34.734375 C 39.226562 33.824219 39.703125 32.917969 40.1875 32.003906 C 40.28125 32.003906 40.363281 32.019531 40.460938 32.03125 Z M 40.460938 32.03125 "/>
<path style=" stroke:none;fill-rule:nonzero;fill:rgb(5.882353%,5.882353%,5.882353%);fill-opacity:1;" d="M 40.039062 34.902344 C 40.277344 34.886719 40.515625 34.886719 40.765625 34.886719 C 40.957031 33.914062 41.148438 32.960938 41.347656 32 C 41.4375 32.003906 41.519531 32.015625 41.617188 32.03125 C 41.597656 32.210938 41.566406 32.386719 41.53125 32.582031 C 41.824219 32.582031 42.117188 32.582031 42.429688 32.582031 C 42.394531 32.753906 42.363281 32.910156 42.328125 33.078125 C 42.191406 33.074219 42.0625 33.0625 41.933594 33.046875 C 41.789062 33.03125 41.695312 33.082031 41.664062 33.230469 C 41.566406 33.691406 41.464844 34.152344 41.367188 34.613281 C 41.351562 34.683594 41.34375 34.753906 41.324219 34.824219 C 41.210938 35.277344 40.785156 35.492188 40.34375 35.328125 C 40.152344 35.253906 40.054688 35.117188 40.039062 34.902344 Z M 40.039062 34.902344 "/>
<path style=" stroke:none;fill-rule:nonzero;fill:rgb(5.882353%,5.882353%,5.882353%);fill-opacity:1;" d="M 46.132812 34.902344 C 46.359375 34.886719 46.585938 34.886719 46.828125 34.886719 C 47.023438 33.921875 47.21875 32.96875 47.417969 32.007812 C 47.742188 32.050781 47.90625 32.265625 47.84375 32.570312 C 47.695312 33.316406 47.542969 34.0625 47.378906 34.804688 C 47.277344 35.28125 46.804688 35.5 46.359375 35.289062 C 46.207031 35.214844 46.121094 35.09375 46.132812 34.902344 Z M 46.132812 34.902344 "/>
<path style=" stroke:none;fill-rule:nonzero;fill:rgb(6.666667%,6.666667%,6.666667%);fill-opacity:1;" d="M 44.101562 34.898438 C 44.351562 34.886719 44.605469 34.886719 44.863281 34.886719 C 44.9375 34.523438 45.003906 34.179688 45.078125 33.84375 C 45.089844 33.792969 45.160156 33.722656 45.203125 33.722656 C 45.535156 33.710938 45.863281 33.714844 46.21875 33.714844 C 46.179688 33.898438 46.148438 34.066406 46.105469 34.246094 C 46.089844 34.257812 46.085938 34.257812 46.078125 34.257812 C 45.589844 34.253906 45.542969 34.277344 45.472656 34.757812 C 45.378906 35.4375 44.8125 35.476562 44.363281 35.320312 C 44.183594 35.257812 44.136719 35.085938 44.101562 34.898438 Z M 44.101562 34.898438 "/>
<path style=" stroke:none;fill-rule:nonzero;fill:rgb(5.882353%,5.882353%,5.882353%);fill-opacity:1;" d="M 35.742188 34.894531 C 35.980469 34.878906 36.222656 34.867188 36.460938 34.878906 C 36.597656 34.886719 36.65625 34.832031 36.710938 34.722656 C 36.984375 34.203125 37.257812 33.679688 37.5625 33.105469 C 37.617188 33.554688 37.660156 33.949219 37.703125 34.359375 C 37.589844 34.503906 37.472656 34.625 37.371094 34.757812 C 37.3125 34.832031 37.277344 34.929688 37.230469 35.011719 C 36.976562 35.445312 36.382812 35.441406 36.050781 35.308594 C 35.867188 35.238281 35.796875 35.082031 35.742188 34.894531 Z M 35.742188 34.894531 "/>
<path style=" stroke:none;fill-rule:nonzero;fill:rgb(5.882353%,5.882353%,5.882353%);fill-opacity:1;" d="M 43.671875 29.199219 C 44.484375 29.1875 45.292969 29.1875 46.113281 29.1875 C 46.152344 28.996094 46.1875 28.824219 46.230469 28.644531 C 46.402344 28.613281 46.496094 28.707031 46.558594 28.835938 C 46.644531 29.023438 46.597656 29.199219 46.484375 29.351562 C 46.375 29.496094 46.222656 29.574219 46.03125 29.570312 C 45.40625 29.566406 44.78125 29.570312 44.15625 29.570312 C 43.886719 29.570312 43.753906 29.46875 43.671875 29.199219 Z M 43.671875 29.199219 "/>
<path style=" stroke:none;fill-rule:nonzero;fill:rgb(51.372552%,1.176471%,5.098039%);fill-opacity:1;" d="M 8.707031 34.726562 C 8.65625 35.398438 8.585938 36.066406 8.5625 36.742188 C 8.542969 37.40625 8.578125 38.074219 8.585938 38.742188 C 8.585938 38.820312 8.585938 38.898438 8.566406 38.976562 C 8.480469 37.566406 8.5 36.160156 8.660156 34.738281 C 8.6875 34.726562 8.699219 34.726562 8.707031 34.726562 Z M 8.707031 34.726562 "/>
<path style=" stroke:none;fill-rule:nonzero;fill:rgb(67.058825%,0.784314%,5.882353%);fill-opacity:1;" d="M 8.710938 34.710938 C 8.699219 34.726562 8.6875 34.726562 8.664062 34.726562 C 8.710938 34.226562 8.769531 33.726562 8.835938 33.210938 C 8.855469 33.199219 8.871094 33.203125 8.894531 33.203125 C 8.847656 33.632812 8.789062 34.066406 8.734375 34.5 C 8.726562 34.566406 8.71875 34.628906 8.710938 34.710938 Z M 8.710938 34.710938 "/>
<path style=" stroke:none;fill-rule:nonzero;fill:rgb(3.529412%,2.352941%,2.352941%);fill-opacity:1;" d="M 49.808594 16.339844 C 49.855469 16.355469 49.90625 16.386719 49.960938 16.429688 C 49.914062 16.410156 49.863281 16.382812 49.808594 16.339844 Z M 49.808594 16.339844 "/>
<path style=" stroke:none;fill-rule:nonzero;fill:rgb(3.529412%,2.352941%,2.352941%);fill-opacity:1;" d="M 49.691406 16.257812 C 49.726562 16.261719 49.761719 16.285156 49.800781 16.316406 C 49.769531 16.308594 49.730469 16.289062 49.691406 16.257812 Z M 49.691406 16.257812 "/>
<path style=" stroke:none;fill-rule:nonzero;fill:rgb(3.529412%,2.352941%,2.352941%);fill-opacity:1;" d="M 50.121094 16.5625 C 50.15625 16.570312 50.191406 16.59375 50.234375 16.628906 C 50.203125 16.621094 50.160156 16.597656 50.121094 16.5625 Z M 50.121094 16.5625 "/>
<path style=" stroke:none;fill-rule:nonzero;fill:rgb(3.529412%,2.352941%,2.352941%);fill-opacity:1;" d="M 49.964844 16.453125 C 50 16.460938 50.035156 16.480469 50.078125 16.511719 C 50.046875 16.503906 50.003906 16.484375 49.964844 16.453125 Z M 49.964844 16.453125 "/>
<path style=" stroke:none;fill-rule:nonzero;fill:rgb(3.529412%,2.352941%,2.352941%);fill-opacity:1;" d="M 50.675781 16.992188 C 50.691406 16.988281 50.714844 17 50.742188 17.019531 C 50.722656 17.019531 50.699219 17.011719 50.675781 16.992188 Z M 50.675781 16.992188 "/>
<path style=" stroke:none;fill-rule:nonzero;fill:rgb(3.529412%,2.352941%,2.352941%);fill-opacity:1;" d="M 50.363281 16.753906 C 50.382812 16.75 50.40625 16.761719 50.429688 16.78125 C 50.414062 16.785156 50.390625 16.777344 50.363281 16.753906 Z M 50.363281 16.753906 "/>
<path style=" stroke:none;fill-rule:nonzero;fill:rgb(3.529412%,2.352941%,2.352941%);fill-opacity:1;" d="M 50.519531 16.871094 C 50.539062 16.871094 50.558594 16.878906 50.585938 16.898438 C 50.570312 16.902344 50.546875 16.894531 50.519531 16.871094 Z M 50.519531 16.871094 "/>
<path style=" stroke:none;fill-rule:nonzero;fill:rgb(3.529412%,2.352941%,2.352941%);fill-opacity:1;" d="M 50.75 17.039062 C 50.757812 17.035156 50.769531 17.039062 50.789062 17.058594 C 50.78125 17.0625 50.769531 17.054688 50.75 17.039062 Z M 50.75 17.039062 "/>
<path style=" stroke:none;fill-rule:nonzero;fill:rgb(3.529412%,2.352941%,2.352941%);fill-opacity:1;" d="M 50.632812 16.953125 C 50.644531 16.949219 50.65625 16.957031 50.671875 16.972656 C 50.664062 16.976562 50.648438 16.972656 50.632812 16.953125 Z M 50.632812 16.953125 "/>
<path style=" stroke:none;fill-rule:nonzero;fill:rgb(3.529412%,2.352941%,2.352941%);fill-opacity:1;" d="M 50.59375 16.917969 C 50.601562 16.914062 50.613281 16.921875 50.628906 16.9375 C 50.621094 16.941406 50.609375 16.933594 50.59375 16.917969 Z M 50.59375 16.917969 "/>
<path style=" stroke:none;fill-rule:nonzero;fill:rgb(3.529412%,2.352941%,2.352941%);fill-opacity:1;" d="M 50.4375 16.800781 C 50.445312 16.796875 50.460938 16.800781 50.476562 16.820312 C 50.464844 16.824219 50.453125 16.816406 50.4375 16.800781 Z M 50.4375 16.800781 "/>
<path style=" stroke:none;fill-rule:nonzero;fill:rgb(3.529412%,2.352941%,2.352941%);fill-opacity:1;" d="M 50.28125 16.675781 C 50.289062 16.675781 50.304688 16.683594 50.320312 16.703125 C 50.308594 16.707031 50.296875 16.695312 50.28125 16.675781 Z M 50.28125 16.675781 "/>
<path style=" stroke:none;fill-rule:nonzero;fill:rgb(3.529412%,2.352941%,2.352941%);fill-opacity:1;" d="M 50.320312 16.71875 C 50.332031 16.714844 50.347656 16.71875 50.363281 16.734375 C 50.351562 16.742188 50.335938 16.734375 50.320312 16.71875 Z M 50.320312 16.71875 "/>
<path style=" stroke:none;fill-rule:nonzero;fill:rgb(3.529412%,2.352941%,2.352941%);fill-opacity:1;" d="M 50.476562 16.835938 C 50.488281 16.832031 50.5 16.835938 50.519531 16.855469 C 50.507812 16.859375 50.492188 16.851562 50.476562 16.835938 Z M 50.476562 16.835938 "/>
<path style=" stroke:none;fill-rule:nonzero;fill:rgb(9.803922%,9.803922%,9.803922%);fill-opacity:1;" d="M 11.351562 25.78125 C 11.355469 25.796875 11.347656 25.820312 11.328125 25.851562 C 11.324219 25.832031 11.332031 25.808594 11.351562 25.78125 Z M 11.351562 25.78125 "/>
<path style=" stroke:none;fill-rule:nonzero;fill:rgb(9.803922%,9.803922%,9.803922%);fill-opacity:1;" d="M 11.390625 25.703125 C 11.394531 25.71875 11.386719 25.742188 11.371094 25.773438 C 11.367188 25.757812 11.375 25.734375 11.390625 25.703125 Z M 11.390625 25.703125 "/>
<path style=" stroke:none;fill-rule:nonzero;fill:rgb(9.803922%,9.803922%,9.803922%);fill-opacity:1;" d="M 11.429688 25.621094 C 11.433594 25.636719 11.429688 25.664062 11.410156 25.695312 C 11.40625 25.675781 11.414062 25.652344 11.429688 25.621094 Z M 11.429688 25.621094 "/>
<path style=" stroke:none;fill-rule:nonzero;fill:rgb(9.803922%,9.803922%,9.803922%);fill-opacity:1;" d="M 11.3125 25.855469 C 11.316406 25.863281 11.3125 25.875 11.300781 25.894531 C 11.296875 25.886719 11.300781 25.871094 11.3125 25.855469 Z M 11.3125 25.855469 "/>
<path style=" stroke:none;fill-rule:nonzero;fill:rgb(6.666667%,6.666667%,6.666667%);fill-opacity:1;" d="M 41.292969 28.40625 C 41.097656 28.40625 40.90625 28.40625 40.679688 28.40625 C 40.796875 27.816406 40.910156 27.230469 41.03125 26.605469 C 41.316406 26.625 41.601562 26.617188 41.878906 26.667969 C 42.210938 26.730469 42.355469 26.9375 42.367188 27.324219 C 42.199219 27.277344 42.058594 27.195312 41.902344 27.15625 C 41.667969 27.101562 41.515625 27.175781 41.464844 27.394531 C 41.390625 27.726562 41.347656 28.066406 41.292969 28.40625 Z M 41.292969 28.40625 "/>
<path style=" stroke:none;fill-rule:nonzero;fill:rgb(9.803922%,9.803922%,9.803922%);fill-opacity:1;" d="M 41.308594 28.410156 C 41.347656 28.066406 41.390625 27.726562 41.464844 27.394531 C 41.515625 27.175781 41.667969 27.101562 41.902344 27.15625 C 42.058594 27.195312 42.199219 27.277344 42.363281 27.339844 C 42.367188 27.988281 41.960938 28.402344 41.308594 28.410156 Z M 41.308594 28.410156 "/>
<path style=" stroke:none;fill-rule:nonzero;fill:rgb(9.803922%,9.803922%,9.803922%);fill-opacity:1;" d="M 38.472656 27.1875 C 38.613281 27.898438 38.066406 28.503906 37.316406 28.425781 C 37.199219 28.195312 37.109375 27.992188 37.183594 27.738281 C 37.292969 27.371094 37.566406 27.027344 37.992188 27.074219 C 38.15625 27.09375 38.3125 27.148438 38.472656 27.1875 Z M 38.472656 27.1875 "/>
<path style=" stroke:none;fill-rule:nonzero;fill:rgb(5.882353%,5.882353%,5.882353%);fill-opacity:1;" d="M 38.476562 27.171875 C 38.3125 27.148438 38.15625 27.09375 37.992188 27.074219 C 37.566406 27.027344 37.292969 27.371094 37.183594 27.738281 C 37.109375 27.992188 37.199219 28.195312 37.304688 28.421875 C 36.96875 28.394531 36.757812 28.195312 36.710938 27.871094 C 36.625 27.308594 36.96875 26.535156 37.808594 26.59375 C 38.164062 26.617188 38.390625 26.800781 38.476562 27.171875 Z M 38.476562 27.171875 "/>
</g>
</svg>
