<?xml version="1.0" encoding="UTF-8"?>
<svg xmlns="http://www.w3.org/2000/svg" xmlns:xlink="http://www.w3.org/1999/xlink" width="150px" height="150px" viewBox="0 0 150 150" version="1.1">
<g id="surface1">
<path style=" stroke:none;fill-rule:nonzero;fill:rgb(9.803922%,9.803922%,9.803922%);fill-opacity:1;" d="M 83.4375 150.078125 C 55.625 150.078125 27.851562 150.078125 0.078125 150.078125 C 0.078125 100.078125 0.078125 50.078125 0.078125 0.078125 C 50.078125 0.078125 100.078125 0.078125 150.078125 0.078125 C 150.078125 50.078125 150.078125 100.078125 150.078125 150.078125 C 127.878906 150.078125 105.675781 150.078125 83.4375 150.078125 M 100.648438 33.457031 C 100.675781 33.472656 100.703125 33.484375 100.714844 33.492188 C 100.714844 33.492188 100.722656 33.484375 100.734375 33.535156 C 100.78125 33.550781 100.828125 33.566406 100.867188 33.585938 C 100.867188 33.585938 100.863281 33.578125 100.882812 33.621094 C 100.90625 33.632812 100.933594 33.648438 100.945312 33.660156 C 100.945312 33.660156 100.949219 33.648438 100.960938 33.695312 C 100.988281 33.707031 101.015625 33.71875 101.027344 33.730469 C 101.027344 33.730469 101.03125 33.71875 101.046875 33.769531 C 101.089844 33.785156 101.136719 33.804688 101.175781 33.824219 C 101.175781 33.824219 101.175781 33.816406 101.195312 33.855469 C 101.21875 33.871094 101.242188 33.882812 101.257812 33.898438 C 101.257812 33.898438 101.257812 33.886719 101.273438 33.929688 C 101.300781 33.941406 101.324219 33.957031 101.339844 33.96875 C 101.339844 33.96875 101.34375 33.957031 101.355469 34.003906 C 101.402344 34.023438 101.445312 34.039062 101.488281 34.058594 C 101.488281 34.058594 101.484375 34.054688 101.511719 34.09375 C 101.539062 34.109375 101.566406 34.121094 101.640625 34.152344 C 104 36.003906 106.179688 38.050781 108.167969 40.296875 C 115.183594 48.214844 119.476562 57.398438 120.953125 67.878906 C 121.488281 71.679688 121.625 75.492188 121.269531 79.320312 C 120.890625 83.4375 120.003906 87.433594 118.535156 91.296875 C 114.878906 100.898438 108.738281 108.515625 100.121094 114.097656 C 92.785156 118.851562 84.699219 121.257812 75.964844 121.464844 C 73.359375 121.527344 70.765625 121.339844 68.183594 120.953125 C 64.34375 120.378906 60.644531 119.328125 57.0625 117.835938 C 56.796875 117.722656 56.75 117.597656 56.804688 117.339844 C 57.027344 116.257812 57.238281 115.175781 57.453125 114.089844 C 57.988281 111.351562 58.527344 108.609375 59.0625 105.867188 C 59.113281 105.589844 59.222656 105.46875 59.542969 105.46875 C 63.878906 105.480469 68.214844 105.476562 72.550781 105.476562 C 72.707031 105.476562 72.859375 105.476562 73.035156 105.476562 C 73.875 101.367188 74.707031 97.285156 75.550781 93.144531 C 63.824219 93.144531 52.140625 93.144531 40.40625 93.144531 C 43.230469 78.945312 46.042969 64.804688 48.859375 50.640625 C 48.742188 50.625 48.675781 50.613281 48.613281 50.613281 C 43.613281 50.613281 38.613281 50.613281 33.613281 50.605469 C 33.351562 50.605469 33.300781 50.71875 33.257812 50.945312 C 32.453125 55 31.640625 59.054688 30.828125 63.109375 C 29.535156 69.570312 28.242188 76.035156 26.949219 82.5 C 25.660156 88.9375 24.371094 95.378906 23.082031 101.816406 C 22.84375 103.023438 22.601562 104.230469 22.355469 105.460938 C 22.585938 105.476562 22.777344 105.488281 22.96875 105.558594 C 22.957031 105.699219 22.945312 105.835938 22.933594 106.015625 C 23.105469 106.015625 23.257812 106.015625 23.414062 106.015625 C 27.390625 106.015625 31.371094 106.015625 35.347656 106.015625 C 38.132812 106.015625 40.914062 106.023438 43.695312 106.089844 C 43.683594 106.152344 43.679688 106.21875 43.664062 106.28125 C 42.585938 111.046875 41.507812 115.8125 40.425781 120.578125 C 40.222656 121.476562 40.214844 121.476562 41.007812 121.988281 C 44.082031 123.96875 47.160156 125.953125 50.441406 127.566406 C 57.292969 130.941406 64.582031 132.679688 72.191406 133.023438 C 74.546875 133.128906 76.917969 133.050781 79.277344 132.945312 C 80.839844 132.875 82.398438 132.652344 83.945312 132.425781 C 89.804688 131.5625 95.382812 129.777344 100.695312 127.167969 C 107.101562 124.015625 112.730469 119.808594 117.59375 114.574219 C 123.792969 107.902344 128.175781 100.191406 130.761719 91.464844 C 131.742188 88.167969 132.457031 84.816406 132.734375 81.378906 C 132.855469 79.84375 133.039062 78.3125 133.070312 76.777344 C 133.109375 75.023438 133.027344 73.269531 132.960938 71.519531 C 132.917969 70.421875 132.867188 69.316406 132.703125 68.234375 C 132.386719 66.117188 132.085938 63.984375 131.597656 61.898438 C 129.230469 51.773438 124.472656 42.90625 117.359375 35.324219 C 112.457031 30.09375 106.769531 25.917969 100.308594 22.800781 C 92.90625 19.230469 85.09375 17.332031 76.882812 17.066406 C 73.128906 16.945312 69.398438 17.195312 65.6875 17.796875 C 59.984375 18.722656 54.550781 20.472656 49.375 23.03125 C 42.980469 26.1875 37.371094 30.394531 32.519531 35.621094 C 28.476562 39.972656 25.179688 44.828125 22.632812 50.195312 C 20.1875 55.351562 18.535156 60.75 17.660156 66.457031 C 17.539062 67.453125 17.421875 68.453125 17.277344 69.503906 C 17 72.316406 16.960938 75.132812 17.128906 77.949219 C 17.171875 77.796875 17.175781 77.640625 17.171875 77.484375 C 17.152344 76.152344 17.089844 74.8125 17.128906 73.480469 C 17.167969 72.136719 17.316406 70.792969 17.425781 69.386719 C 17.4375 69.257812 17.449219 69.128906 17.464844 69 C 17.578125 68.136719 17.691406 67.269531 17.816406 66.339844 C 18.394531 63.003906 19.234375 59.734375 20.480469 56.582031 C 21.089844 55.039062 21.8125 53.539062 22.519531 52.054688 C 22.503906 52.140625 22.5 52.234375 22.46875 52.316406 C 22 53.5 21.503906 54.671875 21.054688 55.863281 C 20.105469 58.378906 19.382812 60.964844 18.839844 63.601562 C 18.535156 65.082031 18.304688 66.578125 18.0625 68.074219 C 17.964844 68.679688 17.929688 69.292969 17.867188 69.90625 C 18 69.492188 18.050781 69.070312 18.125 68.652344 C 18.421875 66.960938 18.636719 65.246094 19.054688 63.582031 C 19.554688 61.582031 20.136719 59.59375 20.847656 57.660156 C 21.558594 55.730469 22.433594 53.851562 23.316406 51.988281 C 24.460938 49.558594 25.871094 47.277344 27.484375 45.140625 C 28.851562 43.335938 30.316406 41.597656 31.8125 39.894531 C 32.71875 38.863281 33.742188 37.925781 34.769531 37.003906 C 35.9375 35.960938 37.113281 34.910156 38.382812 34 C 40.160156 32.722656 42.007812 31.53125 43.871094 30.378906 C 46.433594 28.792969 49.183594 27.585938 52.011719 26.5625 C 55.597656 25.273438 59.265625 24.3125 63.0625 23.90625 C 64.789062 23.722656 66.515625 23.542969 68.246094 23.457031 C 69.472656 23.394531 70.714844 23.460938 71.945312 23.523438 C 73.289062 23.589844 74.636719 23.671875 75.96875 23.839844 C 77.609375 24.046875 79.253906 24.285156 80.871094 24.625 C 85.113281 25.503906 89.183594 26.917969 93.039062 28.890625 C 95.035156 29.910156 96.925781 31.136719 98.871094 32.265625 C 99.03125 32.359375 99.214844 32.417969 99.378906 32.492188 C 99.378906 32.492188 99.382812 32.484375 99.386719 32.542969 C 99.464844 32.578125 99.539062 32.617188 99.609375 32.652344 C 99.609375 32.652344 99.613281 32.648438 99.617188 32.707031 C 99.722656 32.765625 99.828125 32.824219 99.925781 32.882812 C 99.925781 32.882812 99.929688 32.875 99.933594 32.933594 C 100.011719 32.972656 100.089844 33.007812 100.203125 33.050781 C 100.222656 33.058594 100.238281 33.074219 100.246094 33.15625 C 100.324219 33.199219 100.402344 33.238281 100.511719 33.285156 C 100.535156 33.292969 100.546875 33.308594 100.566406 33.375 C 100.59375 33.394531 100.617188 33.410156 100.632812 33.425781 C 100.632812 33.425781 100.636719 33.414062 100.648438 33.457031 M 80.410156 66.863281 C 80.238281 67.734375 80.074219 68.609375 79.894531 69.480469 C 79.855469 69.667969 79.847656 69.78125 80.078125 69.832031 C 80.109375 70.234375 80.304688 70.507812 80.6875 70.652344 C 81.570312 70.988281 82.425781 70.550781 82.648438 69.648438 C 82.683594 69.511719 82.707031 69.371094 82.734375 69.230469 C 82.933594 68.308594 83.132812 67.386719 83.328125 66.464844 C 83.390625 66.164062 83.582031 66.0625 83.867188 66.09375 C 84.125 66.121094 84.382812 66.152344 84.640625 66.246094 C 84.429688 67.289062 84.222656 68.335938 84.011719 69.378906 C 83.976562 69.5625 83.886719 69.78125 84.21875 69.835938 C 84.164062 70.253906 84.40625 70.496094 84.746094 70.648438 C 85.65625 71.042969 86.597656 70.53125 86.792969 69.558594 C 86.9375 68.835938 87.128906 68.121094 87.226562 67.394531 C 87.40625 66.054688 87.707031 66.164062 88.746094 66.234375 C 88.53125 67.316406 88.3125 68.398438 88.109375 69.484375 C 88.089844 69.570312 88.167969 69.675781 88.203125 69.832031 C 88.269531 70.167969 88.363281 70.515625 88.726562 70.640625 C 89.625 70.953125 90.757812 70.871094 90.949219 69.515625 C 91.085938 68.554688 91.179688 68.507812 92.15625 68.515625 C 92.167969 68.515625 92.183594 68.519531 92.203125 68.582031 C 92.132812 68.964844 92.0625 69.347656 91.996094 69.730469 C 92.117188 69.75 92.191406 69.757812 92.265625 69.832031 C 92.242188 70.1875 92.414062 70.429688 92.722656 70.574219 C 93.609375 70.996094 94.550781 70.5625 94.761719 69.609375 C 95.085938 68.125 95.386719 66.632812 95.6875 65.140625 C 95.8125 64.53125 95.488281 64.101562 94.839844 63.917969 C 94.277344 63.875 93.71875 63.832031 93.171875 63.792969 C 93.007812 64.589844 92.863281 65.300781 92.71875 66.015625 C 91.964844 66.015625 91.242188 66.015625 90.484375 66.015625 C 90.628906 65.285156 90.769531 64.570312 90.914062 63.828125 C 90.394531 63.828125 89.910156 63.816406 89.433594 63.839844 C 89.335938 63.84375 89.246094 63.984375 89.09375 64.054688 C 88.933594 64.03125 88.769531 64.007812 88.601562 63.914062 C 88.566406 63.886719 88.53125 63.832031 88.496094 63.832031 C 86.832031 63.828125 85.164062 63.824219 83.5 63.835938 C 83.417969 63.839844 83.339844 63.984375 83.199219 64.0625 C 83.039062 64.03125 82.875 64.003906 82.703125 63.914062 C 82.683594 63.886719 82.660156 63.839844 82.640625 63.839844 C 82.152344 63.832031 81.667969 63.820312 81.183594 63.839844 C 81.101562 63.839844 81.027344 63.984375 80.886719 64.0625 C 80.722656 64.035156 80.5625 64.011719 80.402344 63.914062 C 80.359375 63.886719 80.3125 63.832031 80.265625 63.832031 C 79.773438 63.824219 79.277344 63.828125 78.777344 63.828125 C 78.128906 65.058594 77.488281 66.28125 76.847656 67.503906 C 76.820312 67.5 76.796875 67.496094 76.773438 67.488281 C 76.640625 66.28125 76.503906 65.070312 76.367188 63.828125 C 75.9375 63.828125 75.523438 63.839844 75.109375 63.824219 C 74.890625 63.8125 74.773438 63.882812 74.667969 64.085938 C 74.195312 65.011719 73.703125 65.925781 73.21875 66.84375 C 73.105469 67.054688 72.988281 67.261719 72.832031 67.550781 C 72.6875 66.339844 72.546875 65.234375 72.429688 64.128906 C 72.40625 63.894531 72.332031 63.800781 72.109375 63.757812 C 72.175781 63.601562 72.203125 63.417969 72.308594 63.300781 C 72.871094 62.664062 72.753906 62.082031 72.15625 61.496094 C 71.242188 60.59375 70.320312 59.699219 69.390625 58.8125 C 69.152344 58.585938 68.871094 58.40625 68.464844 58.574219 C 68.363281 58.4375 68.265625 58.300781 68.195312 58.207031 C 67.914062 58.464844 67.703125 58.65625 67.492188 58.847656 C 65.433594 60.75 63.050781 61.222656 60.378906 60.398438 C 60.269531 60.296875 60.171875 60.171875 60.046875 60.089844 C 59.066406 59.429688 58.488281 58.503906 58.285156 57.359375 C 58.078125 56.179688 58.175781 55.011719 58.519531 53.863281 C 58.972656 52.359375 59.769531 51.101562 61.074219 50.203125 C 62.617188 49.136719 64.34375 48.855469 66.160156 49.164062 C 67.261719 49.351562 68.238281 49.851562 68.949219 50.738281 C 69.585938 51.527344 70.054688 51.617188 70.851562 50.980469 C 71.964844 50.09375 73.066406 49.191406 74.179688 48.308594 C 74.664062 47.921875 74.785156 47.34375 74.449219 46.832031 C 73.835938 45.894531 73.023438 45.160156 72.066406 44.59375 C 71.660156 44.355469 71.285156 44.011719 70.699219 44.066406 C 70.257812 43.882812 69.824219 43.671875 69.375 43.519531 C 66.890625 42.664062 64.347656 42.613281 61.792969 43.054688 C 58.398438 43.644531 55.503906 45.175781 53.453125 47.988281 C 50.773438 51.65625 50.042969 55.707031 51.4375 60.121094 C 51.453125 60.246094 51.445312 60.378906 51.484375 60.496094 C 52.019531 62.160156 53.074219 63.480469 54.398438 64.558594 C 56.460938 66.238281 58.917969 66.941406 61.535156 67.097656 C 63.011719 67.1875 64.488281 67.089844 65.945312 66.792969 C 67.265625 66.527344 68.519531 66.101562 69.695312 65.433594 C 70.058594 65.226562 70.460938 65.089844 70.859375 64.988281 C 70.96875 65.875 71.070312 66.761719 71.1875 67.648438 C 71.277344 68.355469 71.382812 69.054688 71.492188 69.816406 C 71.59375 70.164062 71.734375 70.476562 72.101562 70.621094 C 72.765625 70.882812 73.953125 70.890625 74.460938 70.027344 C 74.558594 69.855469 74.625 69.667969 74.742188 69.515625 C 74.945312 69.25 75.179688 69.003906 75.433594 68.804688 C 75.496094 69.128906 75.5625 69.449219 75.632812 69.824219 C 75.792969 70.054688 75.910156 70.347656 76.125 70.503906 C 76.855469 71.035156 78.144531 70.695312 78.566406 69.898438 C 79.035156 69.015625 79.492188 68.128906 79.976562 67.253906 C 80.074219 67.078125 80.257812 66.949219 80.410156 66.863281 M 87.085938 57.582031 C 87.035156 57.828125 86.988281 58.074219 86.9375 58.34375 C 87.09375 58.355469 87.21875 58.363281 87.34375 58.429688 C 87.503906 58.9375 87.773438 59.136719 88.316406 59.140625 C 89.5625 59.144531 90.8125 59.132812 92.058594 59.144531 C 92.445312 59.148438 92.746094 58.988281 92.96875 58.699219 C 93.199219 58.394531 93.289062 58.042969 93.117188 57.675781 C 92.992188 57.414062 92.804688 57.226562 92.480469 57.195312 C 92.484375 57.101562 92.488281 57.003906 92.496094 56.871094 C 91.824219 56.871094 91.183594 56.871094 90.5625 56.8125 C 90.601562 56.78125 90.636719 56.730469 90.679688 56.726562 C 91.128906 56.695312 91.582031 56.660156 92.035156 56.640625 C 92.671875 56.621094 93.042969 56.375 93.222656 55.832031 C 93.414062 55.253906 93.289062 54.871094 92.765625 54.472656 C 92.699219 54.421875 92.601562 54.410156 92.519531 54.378906 C 92.554688 54.335938 92.585938 54.292969 92.621094 54.253906 C 92.867188 54.1875 93.117188 54.125 93.363281 54.0625 C 93.84375 53.9375 94.199219 53.429688 94.21875 52.835938 C 94.230469 52.378906 93.988281 52.105469 93.410156 51.882812 C 93.320312 51.832031 93.226562 51.738281 93.136719 51.738281 C 91.605469 51.730469 90.074219 51.734375 88.542969 51.726562 C 88.320312 51.726562 88.234375 51.78125 88.191406 52.015625 C 88.046875 52.804688 87.875 53.589844 87.660156 54.367188 C 87.484375 54.046875 87.328125 53.710938 87.125 53.40625 C 86.742188 52.828125 86.289062 52.332031 85.476562 52.265625 C 85.039062 52.109375 84.609375 51.84375 84.164062 51.824219 C 82.949219 51.761719 81.726562 51.800781 80.476562 51.800781 C 80.320312 52.546875 80.152344 53.34375 79.933594 54.132812 C 79.796875 53.921875 79.652344 53.710938 79.523438 53.496094 C 79.027344 52.675781 78.398438 52.046875 77.324219 51.957031 C 76.730469 51.847656 76.140625 51.648438 75.542969 51.640625 C 72.171875 51.59375 70.777344 54.832031 71.800781 57.074219 C 71.855469 57.296875 71.863281 57.546875 71.96875 57.742188 C 72.355469 58.449219 72.941406 58.984375 73.710938 59.207031 C 75.589844 59.75 77.328125 59.554688 78.773438 58.070312 C 78.90625 57.933594 79.101562 57.855469 79.269531 57.8125 C 79.238281 57.984375 79.203125 58.15625 79.167969 58.339844 C 79.28125 58.351562 79.367188 58.363281 79.453125 58.433594 C 79.546875 59.03125 79.796875 59.285156 80.449219 59.289062 C 81.640625 59.289062 82.835938 59.308594 84.019531 59.199219 C 85.089844 59.097656 86.007812 58.589844 86.703125 57.730469 C 86.789062 57.625 86.953125 57.585938 87.085938 57.582031 M 66.132812 71.863281 C 60.953125 71.863281 55.773438 71.863281 50.566406 71.863281 C 49.496094 77.21875 48.429688 82.546875 47.359375 87.894531 C 47.476562 87.90625 47.539062 87.921875 47.601562 87.921875 C 52.511719 87.925781 57.417969 87.925781 62.328125 87.9375 C 62.578125 87.9375 62.660156 87.84375 62.703125 87.617188 C 62.910156 86.53125 63.171875 85.457031 63.324219 84.363281 C 63.386719 83.90625 63.5625 83.863281 63.941406 83.863281 C 72.769531 83.871094 81.597656 83.871094 90.425781 83.871094 C 90.542969 83.871094 90.660156 83.863281 90.777344 83.871094 C 91.03125 83.894531 91.128906 83.789062 91.179688 83.53125 C 91.738281 80.726562 92.3125 77.925781 92.878906 75.121094 C 93.097656 74.054688 93.3125 72.984375 93.535156 71.863281 C 84.40625 71.863281 75.308594 71.863281 66.132812 71.863281 Z M 66.132812 71.863281 "/>
<path style=" stroke:none;fill-rule:nonzero;fill:rgb(100%,0%,7.450981%);fill-opacity:1;" d="M 17.683594 66.394531 C 18.535156 60.75 20.1875 55.351562 22.632812 50.195312 C 25.179688 44.828125 28.476562 39.972656 32.519531 35.621094 C 37.371094 30.394531 42.980469 26.1875 49.375 23.03125 C 54.550781 20.472656 59.984375 18.722656 65.6875 17.796875 C 69.398438 17.195312 73.128906 16.945312 76.882812 17.066406 C 85.09375 17.332031 92.90625 19.230469 100.308594 22.800781 C 106.769531 25.917969 112.457031 30.09375 117.359375 35.324219 C 124.472656 42.90625 129.230469 51.773438 131.597656 61.898438 C 132.085938 63.984375 132.386719 66.117188 132.703125 68.234375 C 132.867188 69.316406 132.917969 70.421875 132.960938 71.519531 C 133.027344 73.269531 133.109375 75.023438 133.070312 76.777344 C 133.039062 78.3125 132.855469 79.84375 132.734375 81.378906 C 132.457031 84.816406 131.742188 88.167969 130.761719 91.464844 C 128.175781 100.191406 123.792969 107.902344 117.59375 114.574219 C 112.730469 119.808594 107.101562 124.015625 100.695312 127.167969 C 95.382812 129.777344 89.804688 131.5625 83.945312 132.425781 C 82.398438 132.652344 80.839844 132.875 79.277344 132.945312 C 76.917969 133.050781 74.546875 133.128906 72.191406 133.023438 C 64.582031 132.679688 57.292969 130.941406 50.441406 127.566406 C 47.160156 125.953125 44.082031 123.96875 41.007812 121.988281 C 40.214844 121.476562 40.222656 121.476562 40.425781 120.578125 C 41.507812 115.8125 42.585938 111.046875 43.664062 106.28125 C 43.679688 106.21875 43.683594 106.152344 43.710938 106.03125 C 43.761719 105.828125 43.792969 105.675781 43.832031 105.480469 C 43.675781 105.480469 43.550781 105.480469 43.421875 105.480469 C 36.734375 105.480469 30.046875 105.480469 23.359375 105.480469 C 23.230469 105.480469 23.101562 105.492188 22.972656 105.5 C 22.777344 105.488281 22.585938 105.476562 22.355469 105.460938 C 22.601562 104.230469 22.84375 103.023438 23.082031 101.816406 C 24.371094 95.378906 25.660156 88.9375 26.949219 82.5 C 28.242188 76.035156 29.535156 69.570312 30.828125 63.109375 C 31.640625 59.054688 32.453125 55 33.257812 50.945312 C 33.300781 50.71875 33.351562 50.605469 33.613281 50.605469 C 38.613281 50.613281 43.613281 50.613281 48.613281 50.613281 C 48.675781 50.613281 48.742188 50.625 48.859375 50.640625 C 46.042969 64.804688 43.230469 78.945312 40.40625 93.144531 C 52.140625 93.144531 63.824219 93.144531 75.550781 93.144531 C 74.707031 97.285156 73.875 101.367188 73.035156 105.476562 C 72.859375 105.476562 72.707031 105.476562 72.550781 105.476562 C 68.214844 105.476562 63.878906 105.480469 59.542969 105.46875 C 59.222656 105.46875 59.113281 105.589844 59.0625 105.867188 C 58.527344 108.609375 57.988281 111.351562 57.453125 114.089844 C 57.238281 115.175781 57.027344 116.257812 56.804688 117.339844 C 56.75 117.597656 56.796875 117.722656 57.0625 117.835938 C 60.644531 119.328125 64.34375 120.378906 68.183594 120.953125 C 70.765625 121.339844 73.359375 121.527344 75.964844 121.464844 C 84.699219 121.257812 92.785156 118.851562 100.121094 114.097656 C 108.738281 108.515625 114.878906 100.898438 118.535156 91.296875 C 120.003906 87.433594 120.890625 83.4375 121.269531 79.320312 C 121.625 75.492188 121.488281 71.679688 120.953125 67.878906 C 119.476562 57.398438 115.183594 48.214844 108.167969 40.296875 C 106.179688 38.050781 104 36.003906 101.605469 34.125 C 101.539062 34.082031 101.511719 34.066406 101.484375 34.054688 C 101.484375 34.054688 101.488281 34.058594 101.476562 34.039062 C 101.425781 33.996094 101.382812 33.976562 101.34375 33.957031 C 101.34375 33.957031 101.339844 33.96875 101.339844 33.945312 C 101.3125 33.910156 101.285156 33.898438 101.257812 33.886719 C 101.257812 33.886719 101.257812 33.898438 101.253906 33.875 C 101.226562 33.839844 101.203125 33.828125 101.175781 33.816406 C 101.175781 33.816406 101.175781 33.824219 101.167969 33.800781 C 101.117188 33.757812 101.074219 33.738281 101.03125 33.71875 C 101.03125 33.71875 101.027344 33.730469 101.03125 33.710938 C 101.003906 33.675781 100.976562 33.660156 100.949219 33.648438 C 100.949219 33.648438 100.945312 33.660156 100.945312 33.640625 C 100.917969 33.605469 100.890625 33.589844 100.863281 33.578125 C 100.863281 33.578125 100.867188 33.585938 100.859375 33.5625 C 100.808594 33.519531 100.765625 33.503906 100.722656 33.484375 C 100.722656 33.484375 100.714844 33.492188 100.71875 33.472656 C 100.691406 33.4375 100.664062 33.425781 100.636719 33.414062 C 100.636719 33.414062 100.632812 33.425781 100.632812 33.40625 C 100.605469 33.367188 100.578125 33.347656 100.550781 33.332031 C 100.546875 33.308594 100.535156 33.292969 100.484375 33.257812 C 100.382812 33.191406 100.3125 33.144531 100.242188 33.097656 C 100.238281 33.074219 100.222656 33.058594 100.171875 33.027344 C 100.070312 32.960938 100 32.917969 99.929688 32.875 C 99.929688 32.875 99.925781 32.882812 99.917969 32.859375 C 99.8125 32.773438 99.710938 32.710938 99.613281 32.648438 C 99.613281 32.648438 99.609375 32.652344 99.601562 32.632812 C 99.523438 32.566406 99.453125 32.527344 99.382812 32.484375 C 99.382812 32.484375 99.378906 32.492188 99.371094 32.46875 C 91.582031 26.972656 82.945312 23.851562 73.46875 23.058594 C 70.207031 22.789062 66.945312 22.84375 63.691406 23.191406 C 59.71875 23.613281 55.839844 24.457031 52.078125 25.796875 C 40.816406 29.820312 31.914062 36.855469 25.382812 46.871094 C 24.472656 48.269531 23.710938 49.773438 22.863281 51.242188 C 22.828125 51.304688 22.8125 51.355469 22.800781 51.402344 C 22.804688 51.402344 22.804688 51.394531 22.78125 51.40625 C 22.746094 51.464844 22.734375 51.511719 22.722656 51.558594 C 22.726562 51.558594 22.726562 51.550781 22.703125 51.5625 C 22.667969 51.621094 22.652344 51.664062 22.640625 51.710938 C 22.644531 51.710938 22.644531 51.699219 22.625 51.710938 C 22.597656 51.746094 22.589844 51.773438 22.566406 51.816406 C 22.527344 51.898438 22.507812 51.960938 22.484375 52.019531 C 21.8125 53.539062 21.089844 55.039062 20.480469 56.582031 C 19.234375 59.734375 18.394531 63.003906 17.789062 66.375 C 17.738281 66.402344 17.710938 66.398438 17.683594 66.394531 Z M 17.683594 66.394531 "/>
<path style=" stroke:none;fill-rule:nonzero;fill:rgb(100%,0%,7.450981%);fill-opacity:1;" d="M 66.171875 71.863281 C 75.308594 71.863281 84.40625 71.863281 93.535156 71.863281 C 93.3125 72.984375 93.097656 74.054688 92.878906 75.121094 C 92.3125 77.925781 91.738281 80.726562 91.179688 83.53125 C 91.128906 83.789062 91.03125 83.894531 90.777344 83.871094 C 90.660156 83.863281 90.542969 83.871094 90.425781 83.871094 C 81.597656 83.871094 72.769531 83.871094 63.941406 83.863281 C 63.5625 83.863281 63.386719 83.90625 63.324219 84.363281 C 63.171875 85.457031 62.910156 86.53125 62.703125 87.617188 C 62.660156 87.84375 62.578125 87.9375 62.328125 87.9375 C 57.417969 87.925781 52.511719 87.925781 47.601562 87.921875 C 47.539062 87.921875 47.476562 87.90625 47.359375 87.894531 C 48.429688 82.546875 49.496094 77.21875 50.566406 71.863281 C 55.773438 71.863281 60.953125 71.863281 66.171875 71.863281 Z M 66.171875 71.863281 "/>
<path style=" stroke:none;fill-rule:nonzero;fill:rgb(99.607843%,99.607843%,99.607843%);fill-opacity:1;" d="M 60.390625 60.449219 C 63.050781 61.222656 65.433594 60.75 67.492188 58.847656 C 67.703125 58.65625 67.914062 58.464844 68.195312 58.207031 C 68.265625 58.300781 68.363281 58.4375 68.5 58.609375 C 69.601562 59.757812 70.667969 60.875 71.75 62.003906 C 71.066406 62.921875 69.691406 64.101562 68.480469 64.667969 C 64.9375 66.332031 61.277344 66.457031 57.546875 65.40625 C 56.484375 65.109375 55.472656 64.667969 54.589844 63.992188 C 53.230469 62.953125 52.160156 61.667969 51.476562 60.082031 C 50.042969 55.707031 50.773438 51.65625 53.453125 47.988281 C 55.503906 45.175781 58.398438 43.644531 61.792969 43.054688 C 64.347656 42.613281 66.890625 42.664062 69.375 43.519531 C 69.824219 43.671875 70.257812 43.882812 70.742188 44.089844 C 71.972656 44.734375 72.960938 45.574219 73.695312 46.703125 C 73.851562 46.9375 73.84375 47.082031 73.597656 47.269531 C 72.890625 47.800781 72.210938 48.363281 71.519531 48.914062 C 70.789062 49.496094 70.0625 50.074219 69.328125 50.65625 C 69.277344 50.609375 69.246094 50.589844 69.226562 50.558594 C 68.226562 49.058594 66.839844 48.210938 65.039062 48.082031 C 62.753906 47.914062 60.738281 48.53125 59.164062 50.261719 C 57.628906 51.957031 57.097656 54.007812 57.199219 56.242188 C 57.289062 58.261719 58.503906 59.832031 60.390625 60.449219 Z M 60.390625 60.449219 "/>
<path style=" stroke:none;fill-rule:nonzero;fill:rgb(3.529412%,2.352941%,2.352941%);fill-opacity:1;" d="M 22.882812 51.226562 C 23.710938 49.773438 24.472656 48.269531 25.382812 46.871094 C 31.914062 36.855469 40.816406 29.820312 52.078125 25.796875 C 55.839844 24.457031 59.71875 23.613281 63.691406 23.191406 C 66.945312 22.84375 70.207031 22.789062 73.46875 23.058594 C 82.945312 23.851562 91.582031 26.972656 99.375 32.46875 C 99.214844 32.417969 99.03125 32.359375 98.871094 32.265625 C 96.925781 31.136719 95.035156 29.910156 93.039062 28.890625 C 89.183594 26.917969 85.113281 25.503906 80.871094 24.625 C 79.253906 24.285156 77.609375 24.046875 75.96875 23.839844 C 74.636719 23.671875 73.289062 23.589844 71.945312 23.523438 C 70.714844 23.460938 69.472656 23.394531 68.246094 23.457031 C 66.515625 23.542969 64.789062 23.722656 63.0625 23.90625 C 59.265625 24.3125 55.597656 25.273438 52.011719 26.5625 C 49.183594 27.585938 46.433594 28.792969 43.871094 30.378906 C 42.007812 31.53125 40.160156 32.722656 38.382812 34 C 37.113281 34.910156 35.9375 35.960938 34.769531 37.003906 C 33.742188 37.925781 32.71875 38.863281 31.8125 39.894531 C 30.316406 41.597656 28.851562 43.335938 27.484375 45.140625 C 25.871094 47.277344 24.460938 49.558594 23.316406 51.988281 C 22.433594 53.851562 21.558594 55.730469 20.847656 57.660156 C 20.136719 59.59375 19.554688 61.582031 19.054688 63.582031 C 18.636719 65.246094 18.421875 66.960938 18.125 68.652344 C 18.050781 69.070312 18 69.492188 17.867188 69.90625 C 17.929688 69.292969 17.964844 68.679688 18.0625 68.074219 C 18.304688 66.578125 18.535156 65.082031 18.839844 63.601562 C 19.382812 60.964844 20.105469 58.378906 21.054688 55.863281 C 21.503906 54.671875 22 53.5 22.46875 52.316406 C 22.5 52.234375 22.503906 52.140625 22.5 52.039062 C 22.507812 51.960938 22.527344 51.898438 22.582031 51.804688 C 22.625 51.75 22.636719 51.726562 22.644531 51.699219 C 22.644531 51.699219 22.644531 51.710938 22.664062 51.699219 C 22.695312 51.644531 22.710938 51.597656 22.726562 51.550781 C 22.726562 51.550781 22.726562 51.558594 22.746094 51.546875 C 22.777344 51.488281 22.789062 51.441406 22.804688 51.394531 C 22.804688 51.394531 22.804688 51.402344 22.824219 51.386719 C 22.855469 51.324219 22.871094 51.277344 22.882812 51.226562 Z M 22.882812 51.226562 "/>
<path style=" stroke:none;fill-rule:nonzero;fill:rgb(99.215686%,99.215686%,99.215686%);fill-opacity:1;" d="M 72.109375 63.8125 C 72.332031 63.800781 72.40625 63.894531 72.429688 64.128906 C 72.546875 65.234375 72.6875 66.339844 72.832031 67.550781 C 72.988281 67.261719 73.105469 67.054688 73.21875 66.84375 C 73.703125 65.925781 74.195312 65.011719 74.667969 64.085938 C 74.773438 63.882812 74.890625 63.8125 75.109375 63.824219 C 75.523438 63.839844 75.9375 63.828125 76.367188 63.828125 C 76.503906 65.070312 76.640625 66.28125 76.773438 67.488281 C 76.796875 67.496094 76.820312 67.5 76.847656 67.503906 C 77.488281 66.28125 78.128906 65.058594 78.777344 63.828125 C 79.277344 63.828125 79.773438 63.824219 80.265625 63.832031 C 80.3125 63.832031 80.359375 63.886719 80.382812 63.96875 C 79.40625 65.835938 78.449219 67.648438 77.507812 69.46875 C 77.398438 69.679688 77.273438 69.765625 77.027344 69.757812 C 76.5625 69.742188 76.09375 69.765625 75.625 69.769531 C 75.5625 69.449219 75.496094 69.128906 75.421875 68.742188 C 75.324219 67.894531 75.230469 67.109375 75.128906 66.210938 C 74.519531 67.363281 73.96875 68.402344 73.425781 69.449219 C 73.316406 69.660156 73.195312 69.777344 72.925781 69.761719 C 72.445312 69.730469 71.964844 69.757812 71.484375 69.761719 C 71.382812 69.054688 71.277344 68.355469 71.1875 67.648438 C 71.070312 66.761719 70.96875 65.875 70.855469 64.921875 C 70.808594 64.519531 70.769531 64.183594 70.726562 63.8125 C 71.214844 63.8125 71.660156 63.8125 72.109375 63.8125 Z M 72.109375 63.8125 "/>
<path style=" stroke:none;fill-rule:nonzero;fill:rgb(99.215686%,99.215686%,99.215686%);fill-opacity:1;" d="M 79.984375 54.140625 C 80.152344 53.34375 80.320312 52.546875 80.476562 51.800781 C 81.726562 51.800781 82.949219 51.761719 84.164062 51.824219 C 84.609375 51.84375 85.039062 52.109375 85.515625 52.292969 C 85.761719 52.515625 86.003906 52.683594 86.167969 52.910156 C 86.773438 53.746094 86.765625 54.6875 86.519531 55.628906 C 86.09375 57.253906 84.644531 58.300781 82.808594 58.34375 C 81.691406 58.367188 80.570312 58.363281 79.453125 58.375 C 79.367188 58.363281 79.28125 58.351562 79.167969 58.339844 C 79.203125 58.15625 79.238281 57.984375 79.28125 57.753906 C 79.523438 56.511719 79.753906 55.324219 79.984375 54.140625 M 84.761719 54.621094 C 84.707031 53.875 84.425781 53.457031 83.757812 53.335938 C 83.207031 53.234375 82.636719 53.25 82.066406 53.210938 C 81.820312 54.457031 81.59375 55.628906 81.363281 56.808594 C 81.808594 56.808594 82.195312 56.808594 82.648438 56.832031 C 83.925781 56.804688 84.734375 55.976562 84.761719 54.621094 Z M 84.761719 54.621094 "/>
<path style=" stroke:none;fill-rule:nonzero;fill:rgb(99.215686%,99.215686%,99.215686%);fill-opacity:1;" d="M 71.804688 57.003906 C 70.777344 54.832031 72.171875 51.59375 75.542969 51.640625 C 76.140625 51.648438 76.730469 51.847656 77.371094 51.984375 C 78.1875 52.410156 78.660156 53.042969 78.828125 53.890625 C 79.171875 55.621094 78.25 57.390625 76.667969 58.09375 C 74.8125 58.921875 72.90625 58.492188 71.804688 57.003906 M 76.957031 54.316406 C 76.78125 53.601562 76.328125 53.234375 75.621094 53.1875 C 73.941406 53.070312 73.25 54.613281 73.417969 55.746094 C 73.515625 56.390625 73.9375 56.789062 74.664062 56.894531 C 76.132812 57.007812 77.230469 55.796875 76.957031 54.316406 Z M 76.957031 54.316406 "/>
<path style=" stroke:none;fill-rule:nonzero;fill:rgb(5.882353%,5.882353%,5.882353%);fill-opacity:1;" d="M 60.386719 60.425781 C 58.503906 59.832031 57.289062 58.261719 57.199219 56.242188 C 57.097656 54.007812 57.628906 51.957031 59.164062 50.261719 C 60.738281 48.53125 62.753906 47.914062 65.039062 48.082031 C 66.839844 48.210938 68.226562 49.058594 69.226562 50.558594 C 69.246094 50.589844 69.277344 50.609375 69.328125 50.65625 C 70.0625 50.074219 70.789062 49.496094 71.519531 48.914062 C 72.210938 48.363281 72.890625 47.800781 73.597656 47.269531 C 73.84375 47.082031 73.851562 46.9375 73.695312 46.703125 C 72.960938 45.574219 71.972656 44.734375 70.769531 44.09375 C 71.285156 44.011719 71.660156 44.355469 72.066406 44.59375 C 73.023438 45.160156 73.835938 45.894531 74.449219 46.832031 C 74.785156 47.34375 74.664062 47.921875 74.179688 48.308594 C 73.066406 49.191406 71.964844 50.09375 70.851562 50.980469 C 70.054688 51.617188 69.585938 51.527344 68.949219 50.738281 C 68.238281 49.851562 67.261719 49.351562 66.160156 49.164062 C 64.34375 48.855469 62.617188 49.136719 61.074219 50.203125 C 59.769531 51.101562 58.972656 52.359375 58.519531 53.863281 C 58.175781 55.011719 58.078125 56.179688 58.285156 57.359375 C 58.488281 58.503906 59.066406 59.429688 60.046875 60.089844 C 60.171875 60.171875 60.269531 60.296875 60.386719 60.425781 Z M 60.386719 60.425781 "/>
<path style=" stroke:none;fill-rule:nonzero;fill:rgb(99.215686%,99.215686%,99.215686%);fill-opacity:1;" d="M 87.34375 58.371094 C 87.21875 58.363281 87.09375 58.355469 86.9375 58.34375 C 86.988281 58.074219 87.035156 57.828125 87.09375 57.523438 C 87.308594 56.433594 87.511719 55.40625 87.710938 54.375 C 87.875 53.589844 88.046875 52.804688 88.191406 52.015625 C 88.234375 51.78125 88.320312 51.726562 88.542969 51.726562 C 90.074219 51.734375 91.605469 51.730469 93.136719 51.738281 C 93.226562 51.738281 93.320312 51.832031 93.394531 51.9375 C 93.292969 52.394531 93.210938 52.792969 93.125 53.210938 C 92.007812 53.210938 90.917969 53.210938 89.8125 53.210938 C 89.738281 53.578125 89.671875 53.925781 89.597656 54.316406 C 90.597656 54.316406 91.546875 54.316406 92.523438 54.316406 C 92.425781 54.796875 92.339844 55.238281 92.242188 55.707031 C 91.261719 55.707031 90.289062 55.707031 89.3125 55.707031 C 89.238281 56.109375 89.167969 56.484375 89.09375 56.871094 C 89.613281 56.871094 90.082031 56.871094 90.546875 56.871094 C 91.183594 56.871094 91.824219 56.871094 92.496094 56.871094 C 92.488281 57.003906 92.484375 57.101562 92.460938 57.253906 C 92.375 57.652344 92.304688 57.992188 92.222656 58.371094 C 90.589844 58.371094 88.964844 58.371094 87.34375 58.371094 Z M 87.34375 58.371094 "/>
<path style=" stroke:none;fill-rule:nonzero;fill:rgb(6.666667%,6.666667%,6.666667%);fill-opacity:1;" d="M 72.109375 63.785156 C 71.660156 63.8125 71.214844 63.8125 70.726562 63.8125 C 70.769531 64.183594 70.808594 64.519531 70.847656 64.886719 C 70.460938 65.089844 70.058594 65.226562 69.695312 65.433594 C 68.519531 66.101562 67.265625 66.527344 65.945312 66.792969 C 64.488281 67.089844 63.011719 67.1875 61.535156 67.097656 C 58.917969 66.941406 56.460938 66.238281 54.398438 64.558594 C 53.074219 63.480469 52.019531 62.160156 51.484375 60.496094 C 51.445312 60.378906 51.453125 60.246094 51.457031 60.101562 C 52.160156 61.667969 53.230469 62.953125 54.589844 63.992188 C 55.472656 64.667969 56.484375 65.109375 57.546875 65.40625 C 61.277344 66.457031 64.9375 66.332031 68.480469 64.667969 C 69.691406 64.101562 71.066406 62.921875 71.75 62.003906 C 70.667969 60.875 69.601562 59.757812 68.523438 58.617188 C 68.871094 58.40625 69.152344 58.585938 69.390625 58.8125 C 70.320312 59.699219 71.242188 60.59375 72.15625 61.496094 C 72.753906 62.082031 72.871094 62.664062 72.308594 63.300781 C 72.203125 63.417969 72.175781 63.601562 72.109375 63.785156 Z M 72.109375 63.785156 "/>
<path style=" stroke:none;fill-rule:nonzero;fill:rgb(98.823529%,98.823529%,98.823529%);fill-opacity:1;" d="M 89.15625 64.0625 C 89.246094 63.984375 89.335938 63.84375 89.433594 63.839844 C 89.910156 63.816406 90.394531 63.828125 90.914062 63.828125 C 90.769531 64.570312 90.628906 65.285156 90.484375 66.015625 C 91.242188 66.015625 91.964844 66.015625 92.71875 66.015625 C 92.863281 65.300781 93.007812 64.589844 93.171875 63.792969 C 93.71875 63.832031 94.277344 63.875 94.828125 63.976562 C 94.433594 65.941406 94.050781 67.839844 93.65625 69.769531 C 93.171875 69.769531 92.71875 69.769531 92.265625 69.769531 C 92.191406 69.757812 92.117188 69.75 91.996094 69.730469 C 92.0625 69.347656 92.132812 68.964844 92.214844 68.527344 C 92.296875 68.132812 92.363281 67.796875 92.433594 67.433594 C 91.726562 67.433594 91.066406 67.425781 90.40625 67.445312 C 90.320312 67.449219 90.183594 67.585938 90.160156 67.6875 C 90.003906 68.363281 89.875 69.046875 89.726562 69.769531 C 89.210938 69.769531 88.707031 69.769531 88.203125 69.769531 C 88.167969 69.675781 88.089844 69.570312 88.109375 69.484375 C 88.3125 68.398438 88.53125 67.316406 88.753906 66.171875 C 88.894531 65.429688 89.023438 64.746094 89.15625 64.0625 Z M 89.15625 64.0625 "/>
<path style=" stroke:none;fill-rule:nonzero;fill:rgb(99.215686%,99.215686%,99.215686%);fill-opacity:1;" d="M 83.261719 64.0625 C 83.339844 63.984375 83.417969 63.839844 83.5 63.835938 C 85.164062 63.824219 86.832031 63.828125 88.496094 63.832031 C 88.53125 63.832031 88.566406 63.886719 88.597656 63.980469 C 88.507812 64.417969 88.425781 64.792969 88.339844 65.171875 C 87.726562 65.171875 87.15625 65.171875 86.554688 65.171875 C 86.242188 66.703125 85.9375 68.226562 85.625 69.769531 C 85.128906 69.769531 84.671875 69.769531 84.21875 69.769531 C 83.886719 69.78125 83.976562 69.5625 84.011719 69.378906 C 84.222656 68.335938 84.429688 67.289062 84.65625 66.1875 C 84.730469 65.820312 84.789062 65.507812 84.855469 65.160156 C 84.230469 65.160156 83.652344 65.160156 83.0625 65.160156 C 83.132812 64.773438 83.195312 64.417969 83.261719 64.0625 Z M 83.261719 64.0625 "/>
<path style=" stroke:none;fill-rule:nonzero;fill:rgb(6.666667%,6.666667%,6.666667%);fill-opacity:1;" d="M 71.804688 57.039062 C 72.90625 58.492188 74.8125 58.921875 76.667969 58.09375 C 78.25 57.390625 79.171875 55.621094 78.828125 53.890625 C 78.660156 53.042969 78.1875 52.410156 77.398438 51.984375 C 78.398438 52.046875 79.027344 52.675781 79.523438 53.496094 C 79.652344 53.710938 79.796875 53.921875 79.960938 54.136719 C 79.753906 55.324219 79.523438 56.511719 79.28125 57.722656 C 79.101562 57.855469 78.90625 57.933594 78.773438 58.070312 C 77.328125 59.554688 75.589844 59.75 73.710938 59.207031 C 72.941406 58.984375 72.355469 58.449219 71.96875 57.742188 C 71.863281 57.546875 71.855469 57.296875 71.804688 57.039062 Z M 71.804688 57.039062 "/>
<path style=" stroke:none;fill-rule:nonzero;fill:rgb(5.882353%,5.882353%,5.882353%);fill-opacity:1;" d="M 87.6875 54.371094 C 87.511719 55.40625 87.308594 56.433594 87.09375 57.488281 C 86.953125 57.585938 86.789062 57.625 86.703125 57.730469 C 86.007812 58.589844 85.089844 59.097656 84.019531 59.199219 C 82.835938 59.308594 81.640625 59.289062 80.449219 59.289062 C 79.796875 59.285156 79.546875 59.03125 79.453125 58.402344 C 80.570312 58.363281 81.691406 58.367188 82.808594 58.34375 C 84.644531 58.300781 86.09375 57.253906 86.519531 55.628906 C 86.765625 54.6875 86.773438 53.746094 86.167969 52.910156 C 86.003906 52.683594 85.761719 52.515625 85.542969 52.292969 C 86.289062 52.332031 86.742188 52.828125 87.125 53.40625 C 87.328125 53.710938 87.484375 54.046875 87.6875 54.371094 Z M 87.6875 54.371094 "/>
<path style=" stroke:none;fill-rule:nonzero;fill:rgb(2.352941%,2.352941%,2.352941%);fill-opacity:1;" d="M 22.972656 105.53125 C 23.101562 105.492188 23.230469 105.480469 23.359375 105.480469 C 30.046875 105.480469 36.734375 105.480469 43.421875 105.480469 C 43.550781 105.480469 43.675781 105.480469 43.832031 105.480469 C 43.792969 105.675781 43.761719 105.828125 43.714844 106 C 40.914062 106.023438 38.132812 106.015625 35.347656 106.015625 C 31.371094 106.015625 27.390625 106.015625 23.414062 106.015625 C 23.257812 106.015625 23.105469 106.015625 22.933594 106.015625 C 22.945312 105.835938 22.957031 105.699219 22.972656 105.53125 Z M 22.972656 105.53125 "/>
<path style=" stroke:none;fill-rule:nonzero;fill:rgb(5.882353%,5.882353%,5.882353%);fill-opacity:1;" d="M 90.554688 56.839844 C 90.082031 56.871094 89.613281 56.871094 89.09375 56.871094 C 89.167969 56.484375 89.238281 56.109375 89.3125 55.707031 C 90.289062 55.707031 91.261719 55.707031 92.242188 55.707031 C 92.339844 55.238281 92.425781 54.796875 92.523438 54.316406 C 91.546875 54.316406 90.597656 54.316406 89.597656 54.316406 C 89.671875 53.925781 89.738281 53.578125 89.8125 53.210938 C 90.917969 53.210938 92.007812 53.210938 93.125 53.210938 C 93.210938 52.792969 93.292969 52.394531 93.394531 51.96875 C 93.988281 52.105469 94.230469 52.378906 94.21875 52.835938 C 94.199219 53.429688 93.84375 53.9375 93.363281 54.0625 C 93.117188 54.125 92.867188 54.1875 92.621094 54.253906 C 92.585938 54.292969 92.554688 54.335938 92.519531 54.378906 C 92.601562 54.410156 92.699219 54.421875 92.765625 54.472656 C 93.289062 54.871094 93.414062 55.253906 93.222656 55.832031 C 93.042969 56.375 92.671875 56.621094 92.035156 56.640625 C 91.582031 56.660156 91.128906 56.695312 90.679688 56.726562 C 90.636719 56.730469 90.601562 56.78125 90.554688 56.839844 Z M 90.554688 56.839844 "/>
<path style=" stroke:none;fill-rule:nonzero;fill:rgb(98.823529%,98.823529%,98.823529%);fill-opacity:1;" d="M 80.078125 69.769531 C 79.847656 69.78125 79.855469 69.667969 79.894531 69.480469 C 80.074219 68.609375 80.238281 67.734375 80.425781 66.804688 C 80.609375 65.855469 80.78125 64.957031 80.953125 64.0625 C 81.027344 63.984375 81.101562 63.839844 81.183594 63.839844 C 81.667969 63.820312 82.152344 63.832031 82.640625 63.839844 C 82.660156 63.839844 82.683594 63.886719 82.691406 63.96875 C 82.296875 65.925781 81.917969 67.824219 81.527344 69.769531 C 81.035156 69.769531 80.554688 69.769531 80.078125 69.769531 Z M 80.078125 69.769531 "/>
<path style=" stroke:none;fill-rule:nonzero;fill:rgb(6.666667%,6.666667%,6.666667%);fill-opacity:1;" d="M 84.21875 69.804688 C 84.671875 69.769531 85.128906 69.769531 85.625 69.769531 C 85.9375 68.226562 86.242188 66.703125 86.554688 65.171875 C 87.15625 65.171875 87.726562 65.171875 88.339844 65.171875 C 88.425781 64.792969 88.507812 64.417969 88.601562 64.015625 C 88.769531 64.007812 88.933594 64.03125 89.125 64.058594 C 89.023438 64.746094 88.894531 65.429688 88.75 66.144531 C 87.707031 66.164062 87.40625 66.054688 87.226562 67.394531 C 87.128906 68.121094 86.9375 68.835938 86.792969 69.558594 C 86.597656 70.53125 85.65625 71.042969 84.746094 70.648438 C 84.40625 70.496094 84.164062 70.253906 84.21875 69.804688 Z M 84.21875 69.804688 "/>
<path style=" stroke:none;fill-rule:nonzero;fill:rgb(5.882353%,5.882353%,5.882353%);fill-opacity:1;" d="M 80.921875 64.0625 C 80.78125 64.957031 80.609375 65.855469 80.421875 66.773438 C 80.257812 66.949219 80.074219 67.078125 79.976562 67.253906 C 79.492188 68.128906 79.035156 69.015625 78.566406 69.898438 C 78.144531 70.695312 76.855469 71.035156 76.125 70.503906 C 75.910156 70.347656 75.792969 70.054688 75.628906 69.796875 C 76.09375 69.765625 76.5625 69.742188 77.027344 69.757812 C 77.273438 69.765625 77.398438 69.679688 77.507812 69.46875 C 78.449219 67.648438 79.40625 65.835938 80.378906 64.003906 C 80.5625 64.011719 80.722656 64.035156 80.921875 64.0625 Z M 80.921875 64.0625 "/>
<path style=" stroke:none;fill-rule:nonzero;fill:rgb(5.882353%,5.882353%,5.882353%);fill-opacity:1;" d="M 80.078125 69.800781 C 80.554688 69.769531 81.035156 69.769531 81.527344 69.769531 C 81.917969 67.824219 82.296875 65.925781 82.691406 64 C 82.875 64.003906 83.039062 64.03125 83.230469 64.0625 C 83.195312 64.417969 83.132812 64.773438 83.0625 65.160156 C 83.652344 65.160156 84.230469 65.160156 84.855469 65.160156 C 84.789062 65.507812 84.730469 65.820312 84.65625 66.15625 C 84.382812 66.152344 84.125 66.121094 83.867188 66.09375 C 83.582031 66.0625 83.390625 66.164062 83.328125 66.464844 C 83.132812 67.386719 82.933594 68.308594 82.734375 69.230469 C 82.707031 69.371094 82.683594 69.511719 82.648438 69.648438 C 82.425781 70.550781 81.570312 70.988281 80.6875 70.652344 C 80.304688 70.507812 80.109375 70.234375 80.078125 69.800781 Z M 80.078125 69.800781 "/>
<path style=" stroke:none;fill-rule:nonzero;fill:rgb(5.882353%,5.882353%,5.882353%);fill-opacity:1;" d="M 92.265625 69.800781 C 92.71875 69.769531 93.171875 69.769531 93.65625 69.769531 C 94.050781 67.839844 94.433594 65.941406 94.835938 64.011719 C 95.488281 64.101562 95.8125 64.53125 95.6875 65.140625 C 95.386719 66.632812 95.085938 68.125 94.761719 69.609375 C 94.550781 70.5625 93.609375 70.996094 92.722656 70.574219 C 92.414062 70.429688 92.242188 70.1875 92.265625 69.800781 Z M 92.265625 69.800781 "/>
<path style=" stroke:none;fill-rule:nonzero;fill:rgb(6.666667%,6.666667%,6.666667%);fill-opacity:1;" d="M 88.203125 69.800781 C 88.707031 69.769531 89.210938 69.769531 89.726562 69.769531 C 89.875 69.046875 90.003906 68.363281 90.160156 67.6875 C 90.183594 67.585938 90.320312 67.449219 90.40625 67.445312 C 91.066406 67.425781 91.726562 67.433594 92.433594 67.433594 C 92.363281 67.796875 92.296875 68.132812 92.214844 68.492188 C 92.183594 68.519531 92.167969 68.515625 92.15625 68.515625 C 91.179688 68.507812 91.085938 68.554688 90.949219 69.515625 C 90.757812 70.871094 89.625 70.953125 88.726562 70.640625 C 88.363281 70.515625 88.269531 70.167969 88.203125 69.800781 Z M 88.203125 69.800781 "/>
<path style=" stroke:none;fill-rule:nonzero;fill:rgb(5.882353%,5.882353%,5.882353%);fill-opacity:1;" d="M 71.488281 69.789062 C 71.964844 69.757812 72.445312 69.730469 72.925781 69.761719 C 73.195312 69.777344 73.316406 69.660156 73.425781 69.449219 C 73.96875 68.402344 74.519531 67.363281 75.128906 66.210938 C 75.230469 67.109375 75.324219 67.894531 75.40625 68.714844 C 75.179688 69.003906 74.945312 69.25 74.742188 69.515625 C 74.625 69.667969 74.558594 69.855469 74.460938 70.027344 C 73.953125 70.890625 72.765625 70.882812 72.101562 70.621094 C 71.734375 70.476562 71.59375 70.164062 71.488281 69.789062 Z M 71.488281 69.789062 "/>
<path style=" stroke:none;fill-rule:nonzero;fill:rgb(5.882353%,5.882353%,5.882353%);fill-opacity:1;" d="M 87.34375 58.402344 C 88.964844 58.371094 90.589844 58.371094 92.222656 58.371094 C 92.304688 57.992188 92.375 57.652344 92.460938 57.289062 C 92.804688 57.226562 92.992188 57.414062 93.117188 57.675781 C 93.289062 58.042969 93.199219 58.394531 92.96875 58.699219 C 92.746094 58.988281 92.445312 59.148438 92.058594 59.144531 C 90.8125 59.132812 89.5625 59.144531 88.316406 59.140625 C 87.773438 59.136719 87.503906 58.9375 87.34375 58.402344 Z M 87.34375 58.402344 "/>
<path style=" stroke:none;fill-rule:nonzero;fill:rgb(51.372552%,1.176471%,5.098039%);fill-opacity:1;" d="M 17.414062 69.453125 C 17.316406 70.792969 17.167969 72.136719 17.128906 73.480469 C 17.089844 74.8125 17.152344 76.152344 17.171875 77.484375 C 17.175781 77.640625 17.171875 77.796875 17.128906 77.949219 C 16.960938 75.132812 17 72.316406 17.320312 69.476562 C 17.378906 69.449219 17.398438 69.453125 17.414062 69.453125 Z M 17.414062 69.453125 "/>
<path style=" stroke:none;fill-rule:nonzero;fill:rgb(67.058825%,0.784314%,5.882353%);fill-opacity:1;" d="M 17.417969 69.417969 C 17.398438 69.453125 17.378906 69.449219 17.332031 69.449219 C 17.421875 68.453125 17.539062 67.453125 17.671875 66.425781 C 17.710938 66.398438 17.738281 66.402344 17.785156 66.40625 C 17.691406 67.269531 17.578125 68.136719 17.464844 69 C 17.449219 69.128906 17.4375 69.257812 17.417969 69.417969 Z M 17.417969 69.417969 "/>
<path style=" stroke:none;fill-rule:nonzero;fill:rgb(3.529412%,2.352941%,2.352941%);fill-opacity:1;" d="M 99.617188 32.675781 C 99.710938 32.710938 99.8125 32.773438 99.921875 32.859375 C 99.828125 32.824219 99.722656 32.765625 99.617188 32.675781 Z M 99.617188 32.675781 "/>
<path style=" stroke:none;fill-rule:nonzero;fill:rgb(3.529412%,2.352941%,2.352941%);fill-opacity:1;" d="M 99.382812 32.515625 C 99.453125 32.527344 99.523438 32.566406 99.605469 32.628906 C 99.539062 32.617188 99.464844 32.578125 99.382812 32.515625 Z M 99.382812 32.515625 "/>
<path style=" stroke:none;fill-rule:nonzero;fill:rgb(3.529412%,2.352941%,2.352941%);fill-opacity:1;" d="M 100.242188 33.128906 C 100.3125 33.144531 100.382812 33.191406 100.46875 33.257812 C 100.402344 33.238281 100.324219 33.199219 100.242188 33.128906 Z M 100.242188 33.128906 "/>
<path style=" stroke:none;fill-rule:nonzero;fill:rgb(3.529412%,2.352941%,2.352941%);fill-opacity:1;" d="M 99.929688 32.90625 C 100 32.917969 100.070312 32.960938 100.15625 33.023438 C 100.089844 33.007812 100.011719 32.972656 99.929688 32.90625 Z M 99.929688 32.90625 "/>
<path style=" stroke:none;fill-rule:nonzero;fill:rgb(3.529412%,2.352941%,2.352941%);fill-opacity:1;" d="M 101.347656 33.980469 C 101.382812 33.976562 101.425781 33.996094 101.480469 34.035156 C 101.445312 34.039062 101.402344 34.023438 101.347656 33.980469 Z M 101.347656 33.980469 "/>
<path style=" stroke:none;fill-rule:nonzero;fill:rgb(3.529412%,2.352941%,2.352941%);fill-opacity:1;" d="M 100.730469 33.507812 C 100.765625 33.503906 100.808594 33.519531 100.863281 33.5625 C 100.828125 33.566406 100.78125 33.550781 100.730469 33.507812 Z M 100.730469 33.507812 "/>
<path style=" stroke:none;fill-rule:nonzero;fill:rgb(3.529412%,2.352941%,2.352941%);fill-opacity:1;" d="M 101.039062 33.746094 C 101.074219 33.738281 101.117188 33.757812 101.171875 33.796875 C 101.136719 33.804688 101.089844 33.785156 101.039062 33.746094 Z M 101.039062 33.746094 "/>
<path style=" stroke:none;fill-rule:nonzero;fill:rgb(3.529412%,2.352941%,2.352941%);fill-opacity:1;" d="M 101.496094 34.074219 C 101.511719 34.066406 101.539062 34.082031 101.578125 34.117188 C 101.566406 34.121094 101.539062 34.109375 101.496094 34.074219 Z M 101.496094 34.074219 "/>
<path style=" stroke:none;fill-rule:nonzero;fill:rgb(3.529412%,2.352941%,2.352941%);fill-opacity:1;" d="M 101.265625 33.910156 C 101.285156 33.898438 101.3125 33.910156 101.347656 33.945312 C 101.324219 33.957031 101.300781 33.941406 101.265625 33.910156 Z M 101.265625 33.910156 "/>
<path style=" stroke:none;fill-rule:nonzero;fill:rgb(3.529412%,2.352941%,2.352941%);fill-opacity:1;" d="M 101.183594 33.835938 C 101.203125 33.828125 101.226562 33.839844 101.261719 33.875 C 101.242188 33.882812 101.21875 33.871094 101.183594 33.835938 Z M 101.183594 33.835938 "/>
<path style=" stroke:none;fill-rule:nonzero;fill:rgb(3.529412%,2.352941%,2.352941%);fill-opacity:1;" d="M 100.871094 33.597656 C 100.890625 33.589844 100.917969 33.605469 100.953125 33.636719 C 100.933594 33.648438 100.90625 33.632812 100.871094 33.597656 Z M 100.871094 33.597656 "/>
<path style=" stroke:none;fill-rule:nonzero;fill:rgb(3.529412%,2.352941%,2.352941%);fill-opacity:1;" d="M 100.558594 33.355469 C 100.578125 33.347656 100.605469 33.367188 100.636719 33.40625 C 100.617188 33.410156 100.59375 33.394531 100.558594 33.355469 Z M 100.558594 33.355469 "/>
<path style=" stroke:none;fill-rule:nonzero;fill:rgb(3.529412%,2.352941%,2.352941%);fill-opacity:1;" d="M 100.644531 33.4375 C 100.664062 33.425781 100.691406 33.4375 100.722656 33.472656 C 100.703125 33.484375 100.675781 33.472656 100.644531 33.4375 Z M 100.644531 33.4375 "/>
<path style=" stroke:none;fill-rule:nonzero;fill:rgb(3.529412%,2.352941%,2.352941%);fill-opacity:1;" d="M 100.957031 33.671875 C 100.976562 33.660156 101.003906 33.675781 101.035156 33.710938 C 101.015625 33.71875 100.988281 33.707031 100.957031 33.671875 Z M 100.957031 33.671875 "/>
<path style=" stroke:none;fill-rule:nonzero;fill:rgb(9.803922%,9.803922%,9.803922%);fill-opacity:1;" d="M 22.703125 51.5625 C 22.710938 51.597656 22.695312 51.644531 22.660156 51.699219 C 22.652344 51.664062 22.667969 51.621094 22.703125 51.5625 Z M 22.703125 51.5625 "/>
<path style=" stroke:none;fill-rule:nonzero;fill:rgb(9.803922%,9.803922%,9.803922%);fill-opacity:1;" d="M 22.78125 51.40625 C 22.789062 51.441406 22.777344 51.488281 22.742188 51.546875 C 22.734375 51.511719 22.746094 51.464844 22.78125 51.40625 Z M 22.78125 51.40625 "/>
<path style=" stroke:none;fill-rule:nonzero;fill:rgb(9.803922%,9.803922%,9.803922%);fill-opacity:1;" d="M 22.863281 51.242188 C 22.871094 51.277344 22.855469 51.324219 22.820312 51.390625 C 22.8125 51.355469 22.828125 51.304688 22.863281 51.242188 Z M 22.863281 51.242188 "/>
<path style=" stroke:none;fill-rule:nonzero;fill:rgb(9.803922%,9.803922%,9.803922%);fill-opacity:1;" d="M 22.625 51.710938 C 22.636719 51.726562 22.625 51.75 22.601562 51.789062 C 22.589844 51.773438 22.597656 51.746094 22.625 51.710938 Z M 22.625 51.710938 "/>
<path style=" stroke:none;fill-rule:nonzero;fill:rgb(6.666667%,6.666667%,6.666667%);fill-opacity:1;" d="M 82.582031 56.808594 C 82.195312 56.808594 81.808594 56.808594 81.363281 56.808594 C 81.59375 55.628906 81.820312 54.457031 82.066406 53.210938 C 82.636719 53.25 83.207031 53.234375 83.757812 53.335938 C 84.425781 53.457031 84.707031 53.875 84.730469 54.652344 C 84.402344 54.554688 84.117188 54.394531 83.808594 54.316406 C 83.339844 54.199219 83.03125 54.355469 82.933594 54.789062 C 82.78125 55.453125 82.695312 56.136719 82.582031 56.808594 Z M 82.582031 56.808594 "/>
<path style=" stroke:none;fill-rule:nonzero;fill:rgb(9.803922%,9.803922%,9.803922%);fill-opacity:1;" d="M 82.617188 56.820312 C 82.695312 56.136719 82.78125 55.453125 82.933594 54.789062 C 83.03125 54.355469 83.339844 54.199219 83.808594 54.316406 C 84.117188 54.394531 84.402344 54.554688 84.726562 54.683594 C 84.734375 55.976562 83.925781 56.804688 82.617188 56.820312 Z M 82.617188 56.820312 "/>
<path style=" stroke:none;fill-rule:nonzero;fill:rgb(9.803922%,9.803922%,9.803922%);fill-opacity:1;" d="M 76.945312 54.375 C 77.230469 55.796875 76.132812 57.007812 74.632812 56.855469 C 74.402344 56.390625 74.222656 55.980469 74.367188 55.480469 C 74.582031 54.746094 75.136719 54.050781 75.984375 54.148438 C 76.308594 54.183594 76.625 54.296875 76.945312 54.375 Z M 76.945312 54.375 "/>
<path style=" stroke:none;fill-rule:nonzero;fill:rgb(5.882353%,5.882353%,5.882353%);fill-opacity:1;" d="M 76.953125 54.34375 C 76.625 54.296875 76.308594 54.183594 75.984375 54.148438 C 75.136719 54.050781 74.582031 54.746094 74.367188 55.480469 C 74.222656 55.980469 74.402344 56.390625 74.605469 56.84375 C 73.9375 56.789062 73.515625 56.390625 73.417969 55.746094 C 73.25 54.613281 73.941406 53.070312 75.621094 53.1875 C 76.328125 53.234375 76.78125 53.601562 76.953125 54.34375 Z M 76.953125 54.34375 "/>
</g>
</svg>
