<?xml version="1.0" encoding="UTF-8"?>
<svg xmlns="http://www.w3.org/2000/svg" xmlns:xlink="http://www.w3.org/1999/xlink" width="100px" height="100px" viewBox="0 0 100 100" version="1.1">
<g id="surface1">
<path style=" stroke:none;fill-rule:nonzero;fill:rgb(9.803922%,9.803922%,9.803922%);fill-opacity:1;" d="M 55.625 100.050781 C 37.082031 100.050781 18.566406 100.050781 0.0507812 100.050781 C 0.0507812 66.71875 0.0507812 33.386719 0.0507812 0.0507812 C 33.386719 0.0507812 66.71875 0.0507812 100.050781 0.0507812 C 100.050781 33.386719 100.050781 66.71875 100.050781 100.050781 C 85.25 100.050781 70.453125 100.050781 55.625 100.050781 M 67.097656 22.304688 C 67.117188 22.3125 67.132812 22.320312 67.144531 22.328125 C 67.144531 22.328125 67.148438 22.320312 67.15625 22.355469 C 67.1875 22.367188 67.21875 22.378906 67.242188 22.390625 C 67.242188 22.390625 67.242188 22.386719 67.253906 22.414062 C 67.269531 22.421875 67.289062 22.429688 67.296875 22.441406 C 67.296875 22.441406 67.300781 22.433594 67.308594 22.460938 C 67.324219 22.472656 67.34375 22.480469 67.351562 22.488281 C 67.351562 22.488281 67.355469 22.480469 67.363281 22.511719 C 67.394531 22.523438 67.425781 22.535156 67.453125 22.546875 C 67.453125 22.546875 67.449219 22.542969 67.460938 22.570312 C 67.480469 22.578125 67.496094 22.589844 67.503906 22.597656 C 67.503906 22.597656 67.503906 22.589844 67.515625 22.621094 C 67.53125 22.628906 67.550781 22.636719 67.558594 22.644531 C 67.558594 22.644531 67.5625 22.636719 67.570312 22.671875 C 67.601562 22.683594 67.632812 22.695312 67.65625 22.707031 C 67.65625 22.707031 67.65625 22.703125 67.671875 22.730469 C 67.691406 22.738281 67.710938 22.746094 67.761719 22.765625 C 69.332031 24.003906 70.785156 25.367188 72.113281 26.867188 C 76.789062 32.144531 79.652344 38.265625 80.636719 45.253906 C 80.992188 47.785156 81.082031 50.328125 80.847656 52.878906 C 80.59375 55.625 80.003906 58.289062 79.023438 60.863281 C 76.585938 67.265625 72.492188 72.34375 66.746094 76.066406 C 61.855469 79.234375 56.464844 80.839844 50.640625 80.976562 C 48.90625 81.019531 47.175781 80.890625 45.457031 80.636719 C 42.898438 80.253906 40.429688 79.550781 38.042969 78.554688 C 37.867188 78.484375 37.832031 78.398438 37.867188 78.226562 C 38.019531 77.507812 38.160156 76.785156 38.300781 76.0625 C 38.660156 74.234375 39.019531 72.40625 39.375 70.578125 C 39.410156 70.394531 39.484375 70.3125 39.695312 70.3125 C 42.585938 70.320312 45.476562 70.320312 48.367188 70.320312 C 48.46875 70.320312 48.574219 70.320312 48.691406 70.320312 C 49.25 67.578125 49.804688 64.855469 50.367188 62.097656 C 42.546875 62.097656 34.757812 62.097656 26.9375 62.097656 C 28.820312 52.628906 30.695312 43.203125 32.574219 33.757812 C 32.492188 33.75 32.453125 33.742188 32.410156 33.742188 C 29.078125 33.742188 25.742188 33.742188 22.410156 33.738281 C 22.234375 33.738281 22.203125 33.8125 22.171875 33.960938 C 21.636719 36.667969 21.09375 39.367188 20.550781 42.070312 C 19.691406 46.382812 18.828125 50.691406 17.964844 55 C 17.105469 59.292969 16.246094 63.585938 15.390625 67.878906 C 15.226562 68.679688 15.070312 69.484375 14.90625 70.304688 C 15.058594 70.316406 15.1875 70.324219 15.3125 70.375 C 15.304688 70.464844 15.296875 70.558594 15.289062 70.675781 C 15.402344 70.675781 15.507812 70.675781 15.609375 70.675781 C 18.261719 70.675781 20.914062 70.675781 23.566406 70.675781 C 25.421875 70.679688 27.277344 70.679688 29.128906 70.726562 C 29.125 70.769531 29.121094 70.8125 29.109375 70.855469 C 28.390625 74.03125 27.671875 77.210938 26.953125 80.386719 C 26.816406 80.984375 26.808594 80.984375 27.339844 81.328125 C 29.386719 82.644531 31.441406 83.96875 33.628906 85.046875 C 38.195312 87.292969 43.054688 88.453125 48.128906 88.683594 C 49.699219 88.753906 51.277344 88.699219 52.851562 88.628906 C 53.890625 88.582031 54.929688 88.4375 55.964844 88.285156 C 59.871094 87.710938 63.589844 86.519531 67.128906 84.777344 C 71.402344 82.675781 75.15625 79.871094 78.394531 76.382812 C 82.53125 71.933594 85.449219 66.792969 87.175781 60.976562 C 87.828125 58.777344 88.304688 56.542969 88.488281 54.253906 C 88.570312 53.230469 88.691406 52.207031 88.714844 51.183594 C 88.738281 50.015625 88.683594 48.847656 88.640625 47.679688 C 88.609375 46.949219 88.578125 46.210938 88.46875 45.488281 C 88.257812 44.078125 88.058594 42.65625 87.730469 41.265625 C 86.152344 34.515625 82.980469 28.605469 78.238281 23.546875 C 74.96875 20.0625 71.179688 17.277344 66.875 15.199219 C 61.9375 12.820312 56.730469 11.554688 51.257812 11.378906 C 48.753906 11.296875 46.265625 11.464844 43.792969 11.863281 C 39.992188 12.480469 36.367188 13.648438 32.914062 15.351562 C 28.652344 17.457031 24.914062 20.265625 21.679688 23.746094 C 18.984375 26.648438 16.785156 29.886719 15.089844 33.460938 C 13.457031 36.902344 12.355469 40.5 11.773438 44.304688 C 11.695312 44.96875 11.613281 45.632812 11.519531 46.335938 C 11.332031 48.210938 11.308594 50.089844 11.417969 51.96875 C 11.449219 51.863281 11.449219 51.761719 11.449219 51.65625 C 11.4375 50.765625 11.390625 49.875 11.417969 48.988281 C 11.445312 48.089844 11.542969 47.195312 11.617188 46.257812 C 11.625 46.171875 11.632812 46.085938 11.644531 46 C 11.71875 45.421875 11.796875 44.847656 11.878906 44.226562 C 12.261719 42.003906 12.824219 39.824219 13.652344 37.722656 C 14.058594 36.691406 14.542969 35.691406 15.011719 34.703125 C 15.003906 34.761719 15 34.824219 14.980469 34.878906 C 14.664062 35.664062 14.335938 36.449219 14.039062 37.242188 C 13.402344 38.921875 12.921875 40.644531 12.558594 42.398438 C 12.355469 43.386719 12.203125 44.386719 12.042969 45.382812 C 11.976562 45.785156 11.953125 46.195312 11.914062 46.601562 C 12 46.328125 12.035156 46.046875 12.082031 45.769531 C 12.28125 44.640625 12.425781 43.496094 12.703125 42.386719 C 13.035156 41.054688 13.421875 39.730469 13.898438 38.441406 C 14.375 37.152344 14.957031 35.902344 15.542969 34.65625 C 16.304688 33.039062 17.246094 31.519531 18.324219 30.09375 C 19.234375 28.890625 20.210938 27.730469 21.207031 26.597656 C 21.8125 25.910156 22.496094 25.28125 23.179688 24.671875 C 23.957031 23.972656 24.742188 23.273438 25.589844 22.664062 C 26.773438 21.816406 28.003906 21.023438 29.246094 20.253906 C 30.953125 19.195312 32.789062 18.390625 34.675781 17.710938 C 37.0625 16.847656 39.511719 16.210938 42.042969 15.9375 C 43.191406 15.8125 44.34375 15.695312 45.496094 15.636719 C 46.316406 15.59375 47.140625 15.640625 47.964844 15.679688 C 48.859375 15.726562 49.757812 15.78125 50.644531 15.890625 C 51.742188 16.03125 52.835938 16.191406 53.914062 16.414062 C 56.742188 17.003906 59.457031 17.945312 62.027344 19.257812 C 63.355469 19.941406 64.617188 20.757812 65.914062 21.507812 C 66.019531 21.570312 66.144531 21.609375 66.253906 21.660156 C 66.253906 21.660156 66.253906 21.65625 66.257812 21.695312 C 66.308594 21.71875 66.359375 21.742188 66.40625 21.769531 C 66.40625 21.769531 66.410156 21.765625 66.410156 21.804688 C 66.480469 21.84375 66.550781 21.882812 66.617188 21.921875 C 66.617188 21.921875 66.621094 21.917969 66.621094 21.957031 C 66.675781 21.980469 66.726562 22.003906 66.800781 22.03125 C 66.816406 22.039062 66.824219 22.050781 66.828125 22.105469 C 66.882812 22.132812 66.933594 22.160156 67.007812 22.1875 C 67.023438 22.195312 67.03125 22.207031 67.046875 22.25 C 67.0625 22.261719 67.078125 22.273438 67.085938 22.285156 C 67.085938 22.285156 67.089844 22.277344 67.097656 22.304688 M 53.605469 44.574219 C 53.492188 45.15625 53.382812 45.738281 53.261719 46.320312 C 53.234375 46.445312 53.234375 46.519531 53.386719 46.554688 C 53.40625 46.824219 53.535156 47.007812 53.792969 47.101562 C 54.382812 47.324219 54.949219 47.035156 55.101562 46.433594 C 55.121094 46.339844 55.136719 46.246094 55.15625 46.152344 C 55.289062 45.539062 55.421875 44.925781 55.550781 44.308594 C 55.59375 44.109375 55.722656 44.039062 55.914062 44.0625 C 56.082031 44.082031 56.253906 44.101562 56.429688 44.164062 C 56.289062 44.859375 56.148438 45.554688 56.007812 46.253906 C 55.984375 46.375 55.925781 46.519531 56.144531 46.558594 C 56.109375 46.835938 56.269531 47 56.5 47.097656 C 57.105469 47.363281 57.734375 47.023438 57.863281 46.371094 C 57.957031 45.890625 58.085938 45.414062 58.152344 44.929688 C 58.269531 44.035156 58.472656 44.109375 59.164062 44.15625 C 59.019531 44.878906 58.875 45.601562 58.738281 46.324219 C 58.726562 46.382812 58.78125 46.449219 58.804688 46.554688 C 58.847656 46.78125 58.910156 47.011719 59.148438 47.09375 C 59.75 47.300781 60.503906 47.25 60.632812 46.34375 C 60.722656 45.703125 60.785156 45.671875 61.4375 45.679688 C 61.445312 45.679688 61.453125 45.679688 61.46875 45.722656 C 61.421875 45.976562 61.375 46.230469 61.328125 46.488281 C 61.410156 46.5 61.460938 46.507812 61.511719 46.554688 C 61.496094 46.792969 61.609375 46.953125 61.816406 47.050781 C 62.40625 47.332031 63.035156 47.042969 63.175781 46.40625 C 63.390625 45.417969 63.59375 44.421875 63.792969 43.429688 C 63.875 43.019531 63.660156 42.734375 63.226562 42.609375 C 62.851562 42.582031 62.476562 42.554688 62.113281 42.527344 C 62.007812 43.058594 61.910156 43.535156 61.8125 44.011719 C 61.3125 44.011719 60.828125 44.011719 60.324219 44.011719 C 60.417969 43.523438 60.511719 43.046875 60.609375 42.550781 C 60.261719 42.550781 59.941406 42.542969 59.621094 42.558594 C 59.558594 42.5625 59.5 42.65625 59.394531 42.703125 C 59.289062 42.6875 59.179688 42.671875 59.066406 42.609375 C 59.042969 42.589844 59.023438 42.554688 59 42.554688 C 57.886719 42.550781 56.777344 42.550781 55.664062 42.558594 C 55.613281 42.558594 55.558594 42.65625 55.46875 42.707031 C 55.359375 42.6875 55.25 42.667969 55.136719 42.609375 C 55.121094 42.589844 55.109375 42.558594 55.09375 42.558594 C 54.769531 42.554688 54.445312 42.546875 54.121094 42.558594 C 54.070312 42.5625 54.019531 42.65625 53.925781 42.707031 C 53.816406 42.691406 53.707031 42.675781 53.601562 42.609375 C 53.570312 42.589844 53.542969 42.554688 53.511719 42.554688 C 53.179688 42.550781 52.851562 42.550781 52.515625 42.550781 C 52.085938 43.371094 51.660156 44.1875 51.230469 45.003906 C 51.214844 45 51.199219 44.996094 51.183594 44.992188 C 51.09375 44.1875 51.003906 43.382812 50.910156 42.550781 C 50.625 42.550781 50.347656 42.558594 50.074219 42.546875 C 49.925781 42.542969 49.847656 42.585938 49.777344 42.726562 C 49.464844 43.339844 49.136719 43.949219 48.8125 44.5625 C 48.738281 44.703125 48.660156 44.839844 48.554688 45.035156 C 48.457031 44.226562 48.363281 43.492188 48.285156 42.75 C 48.269531 42.597656 48.222656 42.53125 48.074219 42.503906 C 48.117188 42.402344 48.136719 42.277344 48.207031 42.199219 C 48.582031 41.777344 48.5 41.386719 48.105469 40.996094 C 47.492188 40.394531 46.878906 39.800781 46.261719 39.207031 C 46.101562 39.058594 45.914062 38.9375 45.644531 39.050781 C 45.578125 38.957031 45.511719 38.867188 45.464844 38.804688 C 45.273438 38.976562 45.132812 39.101562 44.996094 39.230469 C 43.621094 40.5 42.035156 40.816406 40.253906 40.265625 C 40.179688 40.195312 40.113281 40.117188 40.03125 40.058594 C 39.378906 39.621094 38.992188 39.003906 38.859375 38.238281 C 38.71875 37.453125 38.785156 36.671875 39.015625 35.90625 C 39.3125 34.90625 39.847656 34.070312 40.714844 33.46875 C 41.746094 32.757812 42.894531 32.570312 44.105469 32.777344 C 44.839844 32.898438 45.492188 33.234375 45.96875 33.824219 C 46.390625 34.351562 46.703125 34.410156 47.234375 33.988281 C 47.976562 33.398438 48.710938 32.796875 49.453125 32.203125 C 49.773438 31.949219 49.855469 31.5625 49.632812 31.222656 C 49.222656 30.597656 48.683594 30.109375 48.042969 29.730469 C 47.773438 29.570312 47.523438 29.339844 47.132812 29.378906 C 46.839844 29.253906 46.550781 29.117188 46.25 29.011719 C 44.59375 28.445312 42.898438 28.40625 41.195312 28.703125 C 38.933594 29.097656 37.003906 30.117188 35.636719 31.992188 C 33.847656 34.4375 33.363281 37.140625 34.292969 40.082031 C 34.300781 40.164062 34.296875 40.253906 34.324219 40.332031 C 34.679688 41.441406 35.382812 42.320312 36.265625 43.039062 C 37.640625 44.160156 39.277344 44.628906 41.023438 44.734375 C 42.007812 44.792969 42.992188 44.726562 43.964844 44.53125 C 44.84375 44.351562 45.679688 44.066406 46.464844 43.621094 C 46.707031 43.484375 46.972656 43.394531 47.242188 43.324219 C 47.3125 43.917969 47.378906 44.507812 47.457031 45.097656 C 47.519531 45.570312 47.589844 46.039062 47.660156 46.546875 C 47.730469 46.773438 47.824219 46.984375 48.066406 47.082031 C 48.511719 47.253906 49.304688 47.261719 49.640625 46.683594 C 49.707031 46.570312 49.75 46.445312 49.828125 46.34375 C 49.964844 46.164062 50.121094 46.003906 50.289062 45.871094 C 50.332031 46.085938 50.375 46.300781 50.421875 46.550781 C 50.53125 46.703125 50.605469 46.898438 50.75 47.003906 C 51.238281 47.355469 52.097656 47.128906 52.378906 46.597656 C 52.691406 46.011719 52.996094 45.417969 53.316406 44.835938 C 53.382812 44.71875 53.507812 44.632812 53.605469 44.574219 M 58.058594 38.386719 C 58.023438 38.550781 57.992188 38.71875 57.957031 38.894531 C 58.0625 38.902344 58.144531 38.910156 58.230469 38.953125 C 58.335938 39.292969 58.515625 39.425781 58.878906 39.425781 C 59.710938 39.429688 60.542969 39.421875 61.375 39.429688 C 61.632812 39.429688 61.832031 39.328125 61.976562 39.132812 C 62.132812 38.929688 62.195312 38.695312 62.078125 38.449219 C 61.996094 38.277344 61.871094 38.152344 61.652344 38.128906 C 61.65625 38.066406 61.660156 38.003906 61.664062 37.914062 C 61.214844 37.914062 60.789062 37.914062 60.375 37.875 C 60.398438 37.855469 60.425781 37.820312 60.453125 37.816406 C 60.753906 37.796875 61.054688 37.773438 61.355469 37.761719 C 61.78125 37.746094 62.027344 37.582031 62.148438 37.21875 C 62.273438 36.835938 62.191406 36.582031 61.84375 36.316406 C 61.800781 36.28125 61.734375 36.273438 61.679688 36.253906 C 61.703125 36.222656 61.722656 36.195312 61.746094 36.167969 C 61.910156 36.125 62.078125 36.085938 62.242188 36.042969 C 62.5625 35.957031 62.800781 35.621094 62.8125 35.226562 C 62.820312 34.917969 62.65625 34.738281 62.273438 34.585938 C 62.210938 34.554688 62.152344 34.492188 62.089844 34.492188 C 61.070312 34.484375 60.050781 34.492188 59.027344 34.484375 C 58.878906 34.484375 58.820312 34.523438 58.792969 34.675781 C 58.699219 35.203125 58.582031 35.726562 58.441406 36.246094 C 58.320312 36.03125 58.21875 35.808594 58.085938 35.605469 C 57.828125 35.21875 57.523438 34.890625 56.984375 34.84375 C 56.691406 34.742188 56.40625 34.5625 56.109375 34.546875 C 55.300781 34.507812 54.484375 34.535156 53.652344 34.535156 C 53.546875 35.03125 53.4375 35.5625 53.289062 36.089844 C 53.199219 35.945312 53.101562 35.808594 53.015625 35.664062 C 52.6875 35.117188 52.265625 34.699219 51.550781 34.640625 C 51.15625 34.566406 50.757812 34.433594 50.363281 34.429688 C 48.113281 34.394531 47.183594 36.554688 47.867188 38.046875 C 47.902344 38.199219 47.90625 38.363281 47.980469 38.496094 C 48.238281 38.96875 48.625 39.324219 49.140625 39.472656 C 50.394531 39.832031 51.554688 39.703125 52.515625 38.714844 C 52.605469 38.621094 52.734375 38.570312 52.847656 38.542969 C 52.824219 38.65625 52.800781 38.769531 52.777344 38.894531 C 52.851562 38.902344 52.910156 38.910156 52.96875 38.957031 C 53.03125 39.355469 53.199219 39.523438 53.632812 39.523438 C 54.425781 39.527344 55.222656 39.539062 56.011719 39.464844 C 56.726562 39.398438 57.335938 39.058594 57.800781 38.488281 C 57.859375 38.417969 57.96875 38.390625 58.058594 38.386719 M 44.089844 47.910156 C 40.636719 47.910156 37.183594 47.910156 33.710938 47.910156 C 32.996094 51.480469 32.285156 55.03125 31.574219 58.597656 C 31.652344 58.605469 31.691406 58.613281 31.734375 58.613281 C 35.007812 58.617188 38.28125 58.617188 41.550781 58.625 C 41.71875 58.625 41.773438 58.5625 41.800781 58.410156 C 41.941406 57.6875 42.113281 56.96875 42.214844 56.242188 C 42.257812 55.9375 42.375 55.910156 42.628906 55.910156 C 48.511719 55.914062 54.398438 55.914062 60.28125 55.914062 C 60.359375 55.914062 60.441406 55.90625 60.515625 55.914062 C 60.6875 55.929688 60.753906 55.859375 60.789062 55.6875 C 61.160156 53.816406 61.542969 51.949219 61.921875 50.082031 C 62.066406 49.371094 62.207031 48.65625 62.359375 47.910156 C 56.269531 47.910156 50.207031 47.910156 44.089844 47.910156 Z M 44.089844 47.910156 "/>
<path style=" stroke:none;fill-rule:nonzero;fill:rgb(100%,0%,7.450981%);fill-opacity:1;" d="M 11.789062 44.261719 C 12.355469 40.5 13.457031 36.902344 15.089844 33.460938 C 16.785156 29.886719 18.984375 26.648438 21.679688 23.746094 C 24.914062 20.265625 28.652344 17.457031 32.914062 15.351562 C 36.367188 13.648438 39.992188 12.480469 43.792969 11.863281 C 46.265625 11.464844 48.753906 11.296875 51.257812 11.378906 C 56.730469 11.554688 61.9375 12.820312 66.875 15.199219 C 71.179688 17.277344 74.96875 20.0625 78.238281 23.546875 C 82.980469 28.605469 86.152344 34.515625 87.730469 41.265625 C 88.058594 42.65625 88.257812 44.078125 88.46875 45.488281 C 88.578125 46.210938 88.609375 46.949219 88.640625 47.679688 C 88.683594 48.847656 88.738281 50.015625 88.714844 51.183594 C 88.691406 52.207031 88.570312 53.230469 88.488281 54.253906 C 88.304688 56.542969 87.828125 58.777344 87.175781 60.976562 C 85.449219 66.792969 82.53125 71.933594 78.394531 76.382812 C 75.15625 79.871094 71.402344 82.675781 67.128906 84.777344 C 63.589844 86.519531 59.871094 87.710938 55.964844 88.285156 C 54.929688 88.4375 53.890625 88.582031 52.851562 88.628906 C 51.277344 88.699219 49.699219 88.753906 48.128906 88.683594 C 43.054688 88.453125 38.195312 87.292969 33.628906 85.046875 C 31.441406 83.96875 29.386719 82.644531 27.339844 81.328125 C 26.808594 80.984375 26.816406 80.984375 26.953125 80.386719 C 27.671875 77.210938 28.390625 74.03125 29.109375 70.855469 C 29.121094 70.8125 29.125 70.769531 29.140625 70.6875 C 29.175781 70.550781 29.195312 70.453125 29.222656 70.320312 C 29.117188 70.320312 29.03125 70.320312 28.949219 70.320312 C 24.492188 70.320312 20.03125 70.320312 15.574219 70.320312 C 15.488281 70.320312 15.402344 70.328125 15.3125 70.332031 C 15.1875 70.324219 15.058594 70.316406 14.90625 70.304688 C 15.070312 69.484375 15.226562 68.679688 15.390625 67.878906 C 16.246094 63.585938 17.105469 59.292969 17.964844 55 C 18.828125 50.691406 19.691406 46.382812 20.550781 42.070312 C 21.09375 39.367188 21.636719 36.667969 22.171875 33.960938 C 22.203125 33.8125 22.234375 33.738281 22.410156 33.738281 C 25.742188 33.742188 29.078125 33.742188 32.410156 33.742188 C 32.453125 33.742188 32.492188 33.75 32.574219 33.757812 C 30.695312 43.203125 28.820312 52.628906 26.9375 62.097656 C 34.757812 62.097656 42.546875 62.097656 50.367188 62.097656 C 49.804688 64.855469 49.25 67.578125 48.691406 70.320312 C 48.574219 70.320312 48.46875 70.320312 48.367188 70.320312 C 45.476562 70.320312 42.585938 70.320312 39.695312 70.3125 C 39.484375 70.3125 39.410156 70.394531 39.375 70.578125 C 39.019531 72.40625 38.660156 74.234375 38.300781 76.0625 C 38.160156 76.785156 38.019531 77.507812 37.867188 78.226562 C 37.832031 78.398438 37.867188 78.484375 38.042969 78.554688 C 40.429688 79.550781 42.898438 80.253906 45.457031 80.636719 C 47.175781 80.890625 48.90625 81.019531 50.640625 80.976562 C 56.464844 80.839844 61.855469 79.234375 66.746094 76.066406 C 72.492188 72.34375 76.585938 67.265625 79.023438 60.863281 C 80.003906 58.289062 80.59375 55.625 80.847656 52.878906 C 81.082031 50.328125 80.992188 47.785156 80.636719 45.253906 C 79.652344 38.265625 76.789062 32.144531 72.113281 26.867188 C 70.785156 25.367188 69.332031 24.003906 67.734375 22.75 C 67.691406 22.722656 67.675781 22.710938 67.65625 22.703125 C 67.65625 22.703125 67.65625 22.707031 67.652344 22.691406 C 67.617188 22.664062 67.589844 22.652344 67.5625 22.636719 C 67.5625 22.636719 67.558594 22.644531 67.558594 22.632812 C 67.542969 22.609375 67.523438 22.601562 67.503906 22.589844 C 67.503906 22.589844 67.503906 22.597656 67.503906 22.585938 C 67.484375 22.5625 67.46875 22.550781 67.449219 22.542969 C 67.449219 22.542969 67.453125 22.546875 67.445312 22.53125 C 67.414062 22.503906 67.382812 22.492188 67.355469 22.480469 C 67.355469 22.480469 67.351562 22.488281 67.351562 22.472656 C 67.335938 22.449219 67.316406 22.441406 67.300781 22.433594 C 67.300781 22.433594 67.296875 22.441406 67.296875 22.425781 C 67.277344 22.402344 67.261719 22.394531 67.242188 22.386719 C 67.242188 22.386719 67.242188 22.390625 67.238281 22.375 C 67.207031 22.347656 67.175781 22.335938 67.148438 22.320312 C 67.148438 22.320312 67.144531 22.328125 67.144531 22.3125 C 67.128906 22.292969 67.109375 22.285156 67.089844 22.277344 C 67.089844 22.277344 67.085938 22.285156 67.089844 22.269531 C 67.070312 22.242188 67.050781 22.230469 67.035156 22.222656 C 67.03125 22.207031 67.023438 22.195312 66.988281 22.171875 C 66.921875 22.125 66.875 22.097656 66.828125 22.066406 C 66.824219 22.050781 66.816406 22.039062 66.78125 22.015625 C 66.714844 21.972656 66.667969 21.945312 66.621094 21.917969 C 66.621094 21.917969 66.617188 21.921875 66.613281 21.90625 C 66.542969 21.847656 66.476562 21.808594 66.410156 21.765625 C 66.410156 21.765625 66.40625 21.769531 66.402344 21.753906 C 66.347656 21.710938 66.300781 21.683594 66.253906 21.65625 C 66.253906 21.65625 66.253906 21.660156 66.246094 21.644531 C 61.054688 17.980469 55.296875 15.898438 48.980469 15.371094 C 46.804688 15.191406 44.632812 15.230469 42.460938 15.460938 C 39.8125 15.742188 37.226562 16.304688 34.71875 17.199219 C 27.210938 19.878906 21.277344 24.570312 16.921875 31.246094 C 16.3125 32.179688 15.808594 33.179688 15.242188 34.160156 C 15.21875 34.203125 15.207031 34.234375 15.199219 34.269531 C 15.203125 34.269531 15.203125 34.261719 15.1875 34.269531 C 15.164062 34.3125 15.15625 34.339844 15.148438 34.371094 C 15.152344 34.371094 15.148438 34.367188 15.136719 34.375 C 15.113281 34.414062 15.101562 34.445312 15.09375 34.472656 C 15.097656 34.472656 15.097656 34.46875 15.082031 34.472656 C 15.066406 34.496094 15.0625 34.515625 15.046875 34.546875 C 15.019531 34.597656 15.003906 34.640625 14.988281 34.679688 C 14.542969 35.691406 14.058594 36.691406 13.652344 37.722656 C 12.824219 39.824219 12.261719 42.003906 11.859375 44.25 C 11.824219 44.269531 11.808594 44.265625 11.789062 44.261719 Z M 11.789062 44.261719 "/>
<path style=" stroke:none;fill-rule:nonzero;fill:rgb(100%,0%,7.450981%);fill-opacity:1;" d="M 44.113281 47.910156 C 50.207031 47.910156 56.269531 47.910156 62.359375 47.910156 C 62.207031 48.65625 62.066406 49.371094 61.921875 50.082031 C 61.542969 51.949219 61.160156 53.816406 60.789062 55.6875 C 60.753906 55.859375 60.6875 55.929688 60.515625 55.914062 C 60.441406 55.90625 60.359375 55.914062 60.28125 55.914062 C 54.398438 55.914062 48.511719 55.914062 42.628906 55.910156 C 42.375 55.910156 42.257812 55.9375 42.214844 56.242188 C 42.113281 56.96875 41.941406 57.6875 41.800781 58.410156 C 41.773438 58.5625 41.71875 58.625 41.550781 58.625 C 38.28125 58.617188 35.007812 58.617188 31.734375 58.613281 C 31.691406 58.613281 31.652344 58.605469 31.574219 58.597656 C 32.285156 55.03125 32.996094 51.480469 33.710938 47.910156 C 37.183594 47.910156 40.636719 47.910156 44.113281 47.910156 Z M 44.113281 47.910156 "/>
<path style=" stroke:none;fill-rule:nonzero;fill:rgb(99.607843%,99.607843%,99.607843%);fill-opacity:1;" d="M 40.261719 40.300781 C 42.035156 40.816406 43.621094 40.5 44.996094 39.230469 C 45.132812 39.101562 45.273438 38.976562 45.464844 38.804688 C 45.511719 38.867188 45.578125 38.957031 45.667969 39.074219 C 46.402344 39.839844 47.113281 40.582031 47.832031 41.335938 C 47.375 41.949219 46.460938 42.734375 45.652344 43.113281 C 43.292969 44.222656 40.851562 44.304688 38.367188 43.605469 C 37.65625 43.40625 36.980469 43.109375 36.394531 42.660156 C 35.488281 41.96875 34.773438 41.113281 34.316406 40.054688 C 33.363281 37.140625 33.847656 34.4375 35.636719 31.992188 C 37.003906 30.117188 38.933594 29.097656 41.195312 28.703125 C 42.898438 28.40625 44.59375 28.445312 46.25 29.011719 C 46.550781 29.117188 46.839844 29.253906 47.164062 29.394531 C 47.980469 29.824219 48.640625 30.382812 49.128906 31.132812 C 49.234375 31.292969 49.230469 31.390625 49.066406 31.511719 C 48.59375 31.867188 48.140625 32.242188 47.679688 32.609375 C 47.195312 32.996094 46.707031 33.382812 46.21875 33.769531 C 46.1875 33.738281 46.164062 33.726562 46.148438 33.707031 C 45.484375 32.707031 44.558594 32.140625 43.359375 32.054688 C 41.835938 31.941406 40.492188 32.355469 39.445312 33.507812 C 38.417969 34.636719 38.066406 36.003906 38.132812 37.496094 C 38.191406 38.839844 39 39.886719 40.261719 40.300781 Z M 40.261719 40.300781 "/>
<path style=" stroke:none;fill-rule:nonzero;fill:rgb(3.529412%,2.352941%,2.352941%);fill-opacity:1;" d="M 15.253906 34.152344 C 15.808594 33.179688 16.3125 32.179688 16.921875 31.246094 C 21.277344 24.570312 27.210938 19.878906 34.71875 17.199219 C 37.226562 16.304688 39.8125 15.742188 42.460938 15.460938 C 44.632812 15.230469 46.804688 15.191406 48.980469 15.371094 C 55.296875 15.898438 61.054688 17.980469 66.25 21.644531 C 66.144531 21.609375 66.019531 21.570312 65.914062 21.507812 C 64.617188 20.757812 63.355469 19.941406 62.027344 19.257812 C 59.457031 17.945312 56.742188 17.003906 53.914062 16.414062 C 52.835938 16.191406 51.742188 16.03125 50.644531 15.890625 C 49.757812 15.78125 48.859375 15.726562 47.964844 15.679688 C 47.140625 15.640625 46.316406 15.59375 45.496094 15.636719 C 44.34375 15.695312 43.191406 15.8125 42.042969 15.9375 C 39.511719 16.210938 37.0625 16.847656 34.675781 17.710938 C 32.789062 18.390625 30.953125 19.195312 29.246094 20.253906 C 28.003906 21.023438 26.773438 21.816406 25.589844 22.664062 C 24.742188 23.273438 23.957031 23.972656 23.179688 24.671875 C 22.496094 25.28125 21.8125 25.910156 21.207031 26.597656 C 20.210938 27.730469 19.234375 28.890625 18.324219 30.09375 C 17.246094 31.519531 16.304688 33.039062 15.542969 34.65625 C 14.957031 35.902344 14.375 37.152344 13.898438 38.441406 C 13.421875 39.730469 13.035156 41.054688 12.703125 42.386719 C 12.425781 43.496094 12.28125 44.640625 12.082031 45.769531 C 12.035156 46.046875 12 46.328125 11.914062 46.601562 C 11.953125 46.195312 11.976562 45.785156 12.042969 45.382812 C 12.203125 44.386719 12.355469 43.386719 12.558594 42.398438 C 12.921875 40.644531 13.402344 38.921875 14.039062 37.242188 C 14.335938 36.449219 14.664062 35.664062 14.980469 34.878906 C 15 34.824219 15.003906 34.761719 15 34.691406 C 15.003906 34.640625 15.019531 34.597656 15.054688 34.535156 C 15.085938 34.5 15.089844 34.484375 15.097656 34.46875 C 15.097656 34.46875 15.097656 34.472656 15.109375 34.46875 C 15.132812 34.429688 15.140625 34.398438 15.148438 34.367188 C 15.148438 34.367188 15.152344 34.371094 15.164062 34.363281 C 15.183594 34.324219 15.191406 34.292969 15.203125 34.261719 C 15.203125 34.261719 15.203125 34.269531 15.214844 34.257812 C 15.238281 34.21875 15.246094 34.183594 15.253906 34.152344 Z M 15.253906 34.152344 "/>
<path style=" stroke:none;fill-rule:nonzero;fill:rgb(99.215686%,99.215686%,99.215686%);fill-opacity:1;" d="M 48.074219 42.542969 C 48.222656 42.53125 48.269531 42.597656 48.285156 42.75 C 48.363281 43.492188 48.457031 44.226562 48.554688 45.035156 C 48.660156 44.839844 48.738281 44.703125 48.8125 44.5625 C 49.136719 43.949219 49.464844 43.339844 49.777344 42.726562 C 49.847656 42.585938 49.925781 42.542969 50.074219 42.546875 C 50.347656 42.558594 50.625 42.550781 50.910156 42.550781 C 51.003906 43.382812 51.09375 44.1875 51.183594 44.992188 C 51.199219 44.996094 51.214844 45 51.230469 45.003906 C 51.660156 44.1875 52.085938 43.371094 52.515625 42.550781 C 52.851562 42.550781 53.179688 42.550781 53.511719 42.554688 C 53.542969 42.554688 53.570312 42.589844 53.585938 42.644531 C 52.9375 43.890625 52.300781 45.101562 51.671875 46.3125 C 51.597656 46.453125 51.515625 46.511719 51.351562 46.503906 C 51.042969 46.496094 50.730469 46.511719 50.417969 46.515625 C 50.375 46.300781 50.332031 46.085938 50.28125 45.828125 C 50.214844 45.265625 50.15625 44.742188 50.085938 44.140625 C 49.679688 44.910156 49.3125 45.601562 48.949219 46.296875 C 48.875 46.441406 48.796875 46.519531 48.617188 46.507812 C 48.296875 46.488281 47.976562 46.503906 47.65625 46.507812 C 47.589844 46.039062 47.519531 45.570312 47.457031 45.097656 C 47.378906 44.507812 47.3125 43.917969 47.238281 43.28125 C 47.207031 43.011719 47.179688 42.789062 47.148438 42.542969 C 47.476562 42.542969 47.773438 42.542969 48.074219 42.542969 Z M 48.074219 42.542969 "/>
<path style=" stroke:none;fill-rule:nonzero;fill:rgb(99.215686%,99.215686%,99.215686%);fill-opacity:1;" d="M 53.324219 36.09375 C 53.4375 35.5625 53.546875 35.03125 53.652344 34.535156 C 54.484375 34.535156 55.300781 34.507812 56.109375 34.546875 C 56.40625 34.5625 56.691406 34.742188 57.011719 34.859375 C 57.175781 35.007812 57.335938 35.125 57.445312 35.273438 C 57.851562 35.832031 57.84375 36.457031 57.679688 37.085938 C 57.394531 38.167969 56.429688 38.867188 55.207031 38.894531 C 54.460938 38.910156 53.714844 38.910156 52.96875 38.914062 C 52.910156 38.910156 52.851562 38.902344 52.777344 38.894531 C 52.800781 38.769531 52.824219 38.65625 52.855469 38.503906 C 53.015625 37.671875 53.167969 36.882812 53.324219 36.09375 M 56.507812 36.414062 C 56.472656 35.917969 56.285156 35.640625 55.839844 35.558594 C 55.472656 35.488281 55.089844 35.5 54.710938 35.472656 C 54.546875 36.304688 54.394531 37.085938 54.242188 37.871094 C 54.539062 37.871094 54.796875 37.871094 55.097656 37.886719 C 55.949219 37.867188 56.488281 37.320312 56.507812 36.414062 Z M 56.507812 36.414062 "/>
<path style=" stroke:none;fill-rule:nonzero;fill:rgb(99.215686%,99.215686%,99.215686%);fill-opacity:1;" d="M 47.871094 38.003906 C 47.183594 36.554688 48.113281 34.394531 50.363281 34.429688 C 50.757812 34.433594 51.15625 34.566406 51.582031 34.65625 C 52.125 34.941406 52.441406 35.363281 52.550781 35.925781 C 52.78125 37.078125 52.167969 38.261719 51.113281 38.730469 C 49.875 39.28125 48.601562 38.996094 47.871094 38.003906 M 51.304688 36.210938 C 51.1875 35.734375 50.882812 35.488281 50.414062 35.457031 C 49.292969 35.378906 48.832031 36.410156 48.945312 37.164062 C 49.011719 37.59375 49.292969 37.859375 49.777344 37.929688 C 50.753906 38.003906 51.484375 37.199219 51.304688 36.210938 Z M 51.304688 36.210938 "/>
<path style=" stroke:none;fill-rule:nonzero;fill:rgb(5.882353%,5.882353%,5.882353%);fill-opacity:1;" d="M 40.257812 40.285156 C 39 39.886719 38.191406 38.839844 38.132812 37.496094 C 38.066406 36.003906 38.417969 34.636719 39.445312 33.507812 C 40.492188 32.355469 41.835938 31.941406 43.359375 32.054688 C 44.558594 32.140625 45.484375 32.707031 46.148438 33.707031 C 46.164062 33.726562 46.1875 33.738281 46.21875 33.769531 C 46.707031 33.382812 47.195312 32.996094 47.679688 32.609375 C 48.140625 32.242188 48.59375 31.867188 49.066406 31.511719 C 49.230469 31.390625 49.234375 31.292969 49.128906 31.132812 C 48.640625 30.382812 47.980469 29.824219 47.179688 29.394531 C 47.523438 29.339844 47.773438 29.570312 48.042969 29.730469 C 48.683594 30.109375 49.222656 30.597656 49.632812 31.222656 C 49.855469 31.5625 49.773438 31.949219 49.453125 32.203125 C 48.710938 32.796875 47.976562 33.398438 47.234375 33.988281 C 46.703125 34.410156 46.390625 34.351562 45.96875 33.824219 C 45.492188 33.234375 44.839844 32.898438 44.105469 32.777344 C 42.894531 32.570312 41.746094 32.757812 40.714844 33.46875 C 39.847656 34.070312 39.3125 34.90625 39.015625 35.90625 C 38.785156 36.671875 38.71875 37.453125 38.859375 38.238281 C 38.992188 39.003906 39.378906 39.621094 40.03125 40.058594 C 40.113281 40.117188 40.179688 40.195312 40.257812 40.285156 Z M 40.257812 40.285156 "/>
<path style=" stroke:none;fill-rule:nonzero;fill:rgb(99.215686%,99.215686%,99.215686%);fill-opacity:1;" d="M 58.230469 38.914062 C 58.144531 38.910156 58.0625 38.902344 57.957031 38.894531 C 57.992188 38.71875 58.023438 38.550781 58.0625 38.347656 C 58.207031 37.621094 58.339844 36.9375 58.476562 36.25 C 58.582031 35.726562 58.699219 35.203125 58.792969 34.675781 C 58.820312 34.523438 58.878906 34.484375 59.027344 34.484375 C 60.050781 34.492188 61.070312 34.484375 62.089844 34.492188 C 62.152344 34.492188 62.210938 34.554688 62.261719 34.625 C 62.195312 34.929688 62.140625 35.195312 62.082031 35.472656 C 61.339844 35.472656 60.613281 35.472656 59.875 35.472656 C 59.828125 35.71875 59.78125 35.949219 59.730469 36.210938 C 60.398438 36.210938 61.03125 36.210938 61.683594 36.210938 C 61.617188 36.53125 61.558594 36.824219 61.496094 37.136719 C 60.839844 37.136719 60.195312 37.136719 59.542969 37.136719 C 59.492188 37.40625 59.445312 37.65625 59.398438 37.914062 C 59.742188 37.914062 60.054688 37.914062 60.363281 37.914062 C 60.789062 37.914062 61.214844 37.914062 61.664062 37.914062 C 61.660156 38.003906 61.65625 38.066406 61.640625 38.167969 C 61.582031 38.433594 61.535156 38.660156 61.484375 38.914062 C 60.394531 38.914062 59.3125 38.914062 58.230469 38.914062 Z M 58.230469 38.914062 "/>
<path style=" stroke:none;fill-rule:nonzero;fill:rgb(6.666667%,6.666667%,6.666667%);fill-opacity:1;" d="M 48.074219 42.523438 C 47.773438 42.542969 47.476562 42.542969 47.148438 42.542969 C 47.179688 42.789062 47.207031 43.011719 47.230469 43.257812 C 46.972656 43.394531 46.707031 43.484375 46.464844 43.621094 C 45.679688 44.066406 44.84375 44.351562 43.964844 44.53125 C 42.992188 44.726562 42.007812 44.792969 41.023438 44.734375 C 39.277344 44.628906 37.640625 44.160156 36.265625 43.039062 C 35.382812 42.320312 34.679688 41.441406 34.324219 40.332031 C 34.296875 40.253906 34.300781 40.164062 34.304688 40.066406 C 34.773438 41.113281 35.488281 41.96875 36.394531 42.660156 C 36.980469 43.109375 37.65625 43.40625 38.367188 43.605469 C 40.851562 44.304688 43.292969 44.222656 45.652344 43.113281 C 46.460938 42.734375 47.375 41.949219 47.832031 41.335938 C 47.113281 40.582031 46.402344 39.839844 45.683594 39.078125 C 45.914062 38.9375 46.101562 39.058594 46.261719 39.207031 C 46.878906 39.800781 47.492188 40.394531 48.105469 40.996094 C 48.5 41.386719 48.582031 41.777344 48.207031 42.199219 C 48.136719 42.277344 48.117188 42.402344 48.074219 42.523438 Z M 48.074219 42.523438 "/>
<path style=" stroke:none;fill-rule:nonzero;fill:rgb(98.823529%,98.823529%,98.823529%);fill-opacity:1;" d="M 59.4375 42.707031 C 59.5 42.65625 59.558594 42.5625 59.621094 42.558594 C 59.941406 42.542969 60.261719 42.550781 60.609375 42.550781 C 60.511719 43.046875 60.417969 43.523438 60.324219 44.011719 C 60.828125 44.011719 61.3125 44.011719 61.8125 44.011719 C 61.910156 43.535156 62.007812 43.058594 62.113281 42.527344 C 62.476562 42.554688 62.851562 42.582031 63.21875 42.652344 C 62.957031 43.960938 62.699219 45.226562 62.4375 46.515625 C 62.117188 46.515625 61.8125 46.515625 61.511719 46.515625 C 61.460938 46.507812 61.410156 46.5 61.328125 46.488281 C 61.375 46.230469 61.421875 45.976562 61.476562 45.683594 C 61.53125 45.421875 61.574219 45.199219 61.625 44.957031 C 61.152344 44.957031 60.710938 44.949219 60.273438 44.964844 C 60.214844 44.964844 60.121094 45.058594 60.105469 45.125 C 60.003906 45.574219 59.914062 46.03125 59.816406 46.515625 C 59.472656 46.515625 59.136719 46.515625 58.800781 46.515625 C 58.78125 46.449219 58.726562 46.382812 58.738281 46.324219 C 58.875 45.601562 59.019531 44.878906 59.167969 44.117188 C 59.261719 43.621094 59.351562 43.164062 59.4375 42.707031 Z M 59.4375 42.707031 "/>
<path style=" stroke:none;fill-rule:nonzero;fill:rgb(99.215686%,99.215686%,99.215686%);fill-opacity:1;" d="M 55.507812 42.707031 C 55.558594 42.65625 55.613281 42.558594 55.664062 42.558594 C 56.777344 42.550781 57.886719 42.550781 59 42.554688 C 59.023438 42.554688 59.042969 42.589844 59.0625 42.652344 C 59.003906 42.945312 58.949219 43.195312 58.894531 43.449219 C 58.484375 43.449219 58.105469 43.449219 57.703125 43.449219 C 57.496094 44.46875 57.289062 45.484375 57.082031 46.515625 C 56.753906 46.515625 56.449219 46.515625 56.144531 46.515625 C 55.925781 46.519531 55.984375 46.375 56.007812 46.253906 C 56.148438 45.554688 56.289062 44.859375 56.4375 44.125 C 56.488281 43.878906 56.527344 43.671875 56.570312 43.441406 C 56.152344 43.441406 55.765625 43.441406 55.375 43.441406 C 55.421875 43.183594 55.464844 42.945312 55.507812 42.707031 Z M 55.507812 42.707031 "/>
<path style=" stroke:none;fill-rule:nonzero;fill:rgb(6.666667%,6.666667%,6.666667%);fill-opacity:1;" d="M 47.867188 38.027344 C 48.601562 38.996094 49.875 39.28125 51.113281 38.730469 C 52.167969 38.261719 52.78125 37.078125 52.550781 35.925781 C 52.441406 35.363281 52.125 34.941406 51.597656 34.65625 C 52.265625 34.699219 52.6875 35.117188 53.015625 35.664062 C 53.101562 35.808594 53.199219 35.945312 53.304688 36.089844 C 53.167969 36.882812 53.015625 37.671875 52.855469 38.480469 C 52.734375 38.570312 52.605469 38.621094 52.515625 38.714844 C 51.554688 39.703125 50.394531 39.832031 49.140625 39.472656 C 48.625 39.324219 48.238281 38.96875 47.980469 38.496094 C 47.90625 38.363281 47.902344 38.199219 47.867188 38.027344 Z M 47.867188 38.027344 "/>
<path style=" stroke:none;fill-rule:nonzero;fill:rgb(5.882353%,5.882353%,5.882353%);fill-opacity:1;" d="M 58.457031 36.246094 C 58.339844 36.9375 58.207031 37.621094 58.0625 38.324219 C 57.96875 38.390625 57.859375 38.417969 57.800781 38.488281 C 57.335938 39.058594 56.726562 39.398438 56.011719 39.464844 C 55.222656 39.539062 54.425781 39.527344 53.632812 39.523438 C 53.199219 39.523438 53.03125 39.355469 52.96875 38.933594 C 53.714844 38.910156 54.460938 38.910156 55.207031 38.894531 C 56.429688 38.867188 57.394531 38.167969 57.679688 37.085938 C 57.84375 36.457031 57.851562 35.832031 57.445312 35.273438 C 57.335938 35.125 57.175781 35.007812 57.027344 34.863281 C 57.523438 34.890625 57.828125 35.21875 58.085938 35.605469 C 58.21875 35.808594 58.320312 36.03125 58.457031 36.246094 Z M 58.457031 36.246094 "/>
<path style=" stroke:none;fill-rule:nonzero;fill:rgb(2.352941%,2.352941%,2.352941%);fill-opacity:1;" d="M 15.3125 70.351562 C 15.402344 70.328125 15.488281 70.320312 15.574219 70.320312 C 20.03125 70.320312 24.492188 70.320312 28.949219 70.320312 C 29.03125 70.320312 29.117188 70.320312 29.222656 70.320312 C 29.195312 70.453125 29.175781 70.550781 29.140625 70.667969 C 27.277344 70.679688 25.421875 70.679688 23.566406 70.675781 C 20.914062 70.675781 18.261719 70.675781 15.609375 70.675781 C 15.507812 70.675781 15.402344 70.675781 15.289062 70.675781 C 15.296875 70.558594 15.304688 70.464844 15.3125 70.351562 Z M 15.3125 70.351562 "/>
<path style=" stroke:none;fill-rule:nonzero;fill:rgb(5.882353%,5.882353%,5.882353%);fill-opacity:1;" d="M 60.367188 37.894531 C 60.054688 37.914062 59.742188 37.914062 59.398438 37.914062 C 59.445312 37.65625 59.492188 37.40625 59.542969 37.136719 C 60.195312 37.136719 60.839844 37.136719 61.496094 37.136719 C 61.558594 36.824219 61.617188 36.53125 61.683594 36.210938 C 61.03125 36.210938 60.398438 36.210938 59.730469 36.210938 C 59.78125 35.949219 59.828125 35.71875 59.875 35.472656 C 60.613281 35.472656 61.339844 35.472656 62.082031 35.472656 C 62.140625 35.195312 62.195312 34.929688 62.265625 34.644531 C 62.65625 34.738281 62.820312 34.917969 62.8125 35.226562 C 62.800781 35.621094 62.5625 35.957031 62.242188 36.042969 C 62.078125 36.085938 61.910156 36.125 61.746094 36.167969 C 61.722656 36.195312 61.703125 36.222656 61.679688 36.253906 C 61.734375 36.273438 61.800781 36.28125 61.84375 36.316406 C 62.191406 36.582031 62.273438 36.835938 62.148438 37.21875 C 62.027344 37.582031 61.78125 37.746094 61.355469 37.761719 C 61.054688 37.773438 60.753906 37.796875 60.453125 37.816406 C 60.425781 37.820312 60.398438 37.855469 60.367188 37.894531 Z M 60.367188 37.894531 "/>
<path style=" stroke:none;fill-rule:nonzero;fill:rgb(98.823529%,98.823529%,98.823529%);fill-opacity:1;" d="M 53.386719 46.515625 C 53.234375 46.519531 53.234375 46.445312 53.261719 46.320312 C 53.382812 45.738281 53.492188 45.15625 53.617188 44.539062 C 53.742188 43.902344 53.855469 43.304688 53.96875 42.707031 C 54.019531 42.65625 54.070312 42.5625 54.121094 42.558594 C 54.445312 42.546875 54.769531 42.554688 55.09375 42.558594 C 55.109375 42.558594 55.121094 42.589844 55.125 42.644531 C 54.863281 43.949219 54.609375 45.214844 54.351562 46.515625 C 54.023438 46.515625 53.703125 46.515625 53.386719 46.515625 Z M 53.386719 46.515625 "/>
<path style=" stroke:none;fill-rule:nonzero;fill:rgb(6.666667%,6.666667%,6.666667%);fill-opacity:1;" d="M 56.144531 46.535156 C 56.449219 46.515625 56.753906 46.515625 57.082031 46.515625 C 57.289062 45.484375 57.496094 44.46875 57.703125 43.449219 C 58.105469 43.449219 58.484375 43.449219 58.894531 43.449219 C 58.949219 43.195312 59.003906 42.945312 59.066406 42.675781 C 59.179688 42.671875 59.289062 42.6875 59.417969 42.707031 C 59.351562 43.164062 59.261719 43.621094 59.167969 44.09375 C 58.472656 44.109375 58.269531 44.035156 58.152344 44.929688 C 58.085938 45.414062 57.957031 45.890625 57.863281 46.371094 C 57.734375 47.023438 57.105469 47.363281 56.5 47.097656 C 56.269531 47 56.109375 46.835938 56.144531 46.535156 Z M 56.144531 46.535156 "/>
<path style=" stroke:none;fill-rule:nonzero;fill:rgb(5.882353%,5.882353%,5.882353%);fill-opacity:1;" d="M 53.945312 42.707031 C 53.855469 43.304688 53.742188 43.902344 53.613281 44.515625 C 53.507812 44.632812 53.382812 44.71875 53.316406 44.835938 C 52.996094 45.417969 52.691406 46.011719 52.378906 46.597656 C 52.097656 47.128906 51.238281 47.355469 50.75 47.003906 C 50.605469 46.898438 50.53125 46.703125 50.417969 46.53125 C 50.730469 46.511719 51.042969 46.496094 51.351562 46.503906 C 51.515625 46.511719 51.597656 46.453125 51.671875 46.3125 C 52.300781 45.101562 52.9375 43.890625 53.585938 42.667969 C 53.707031 42.675781 53.816406 42.691406 53.945312 42.707031 Z M 53.945312 42.707031 "/>
<path style=" stroke:none;fill-rule:nonzero;fill:rgb(5.882353%,5.882353%,5.882353%);fill-opacity:1;" d="M 53.386719 46.535156 C 53.703125 46.515625 54.023438 46.515625 54.351562 46.515625 C 54.609375 45.214844 54.863281 43.949219 55.128906 42.667969 C 55.25 42.667969 55.359375 42.6875 55.488281 42.707031 C 55.464844 42.945312 55.421875 43.183594 55.375 43.441406 C 55.765625 43.441406 56.152344 43.441406 56.570312 43.441406 C 56.527344 43.671875 56.488281 43.878906 56.4375 44.105469 C 56.253906 44.101562 56.082031 44.082031 55.914062 44.0625 C 55.722656 44.039062 55.59375 44.109375 55.550781 44.308594 C 55.421875 44.925781 55.289062 45.539062 55.15625 46.152344 C 55.136719 46.246094 55.121094 46.339844 55.101562 46.433594 C 54.949219 47.035156 54.382812 47.324219 53.792969 47.101562 C 53.535156 47.007812 53.40625 46.824219 53.386719 46.535156 Z M 53.386719 46.535156 "/>
<path style=" stroke:none;fill-rule:nonzero;fill:rgb(5.882353%,5.882353%,5.882353%);fill-opacity:1;" d="M 61.511719 46.535156 C 61.8125 46.515625 62.117188 46.515625 62.4375 46.515625 C 62.699219 45.226562 62.957031 43.960938 63.222656 42.675781 C 63.660156 42.734375 63.875 43.019531 63.792969 43.429688 C 63.59375 44.421875 63.390625 45.417969 63.175781 46.40625 C 63.035156 47.042969 62.40625 47.332031 61.816406 47.050781 C 61.609375 46.953125 61.496094 46.792969 61.511719 46.535156 Z M 61.511719 46.535156 "/>
<path style=" stroke:none;fill-rule:nonzero;fill:rgb(6.666667%,6.666667%,6.666667%);fill-opacity:1;" d="M 58.800781 46.535156 C 59.136719 46.515625 59.472656 46.515625 59.816406 46.515625 C 59.914062 46.03125 60.003906 45.574219 60.105469 45.125 C 60.121094 45.058594 60.214844 44.964844 60.273438 44.964844 C 60.710938 44.949219 61.152344 44.957031 61.625 44.957031 C 61.574219 45.199219 61.53125 45.421875 61.476562 45.664062 C 61.453125 45.679688 61.445312 45.679688 61.4375 45.679688 C 60.785156 45.671875 60.722656 45.703125 60.632812 46.34375 C 60.503906 47.25 59.75 47.300781 59.148438 47.09375 C 58.910156 47.011719 58.847656 46.78125 58.800781 46.535156 Z M 58.800781 46.535156 "/>
<path style=" stroke:none;fill-rule:nonzero;fill:rgb(5.882353%,5.882353%,5.882353%);fill-opacity:1;" d="M 47.660156 46.527344 C 47.976562 46.503906 48.296875 46.488281 48.617188 46.507812 C 48.796875 46.519531 48.875 46.441406 48.949219 46.296875 C 49.3125 45.601562 49.679688 44.910156 50.085938 44.140625 C 50.15625 44.742188 50.214844 45.265625 50.273438 45.808594 C 50.121094 46.003906 49.964844 46.164062 49.828125 46.34375 C 49.75 46.445312 49.707031 46.570312 49.640625 46.683594 C 49.304688 47.261719 48.511719 47.253906 48.066406 47.082031 C 47.824219 46.984375 47.730469 46.773438 47.660156 46.527344 Z M 47.660156 46.527344 "/>
<path style=" stroke:none;fill-rule:nonzero;fill:rgb(5.882353%,5.882353%,5.882353%);fill-opacity:1;" d="M 58.230469 38.933594 C 59.3125 38.914062 60.394531 38.914062 61.484375 38.914062 C 61.535156 38.660156 61.582031 38.433594 61.640625 38.191406 C 61.871094 38.152344 61.996094 38.277344 62.078125 38.449219 C 62.195312 38.695312 62.132812 38.929688 61.976562 39.132812 C 61.832031 39.328125 61.632812 39.429688 61.375 39.429688 C 60.542969 39.421875 59.710938 39.429688 58.878906 39.425781 C 58.515625 39.425781 58.335938 39.292969 58.230469 38.933594 Z M 58.230469 38.933594 "/>
<path style=" stroke:none;fill-rule:nonzero;fill:rgb(51.372552%,1.176471%,5.098039%);fill-opacity:1;" d="M 11.609375 46.300781 C 11.542969 47.195312 11.445312 48.089844 11.417969 48.988281 C 11.390625 49.875 11.4375 50.765625 11.449219 51.65625 C 11.449219 51.761719 11.449219 51.863281 11.417969 51.96875 C 11.308594 50.089844 11.332031 48.210938 11.546875 46.320312 C 11.585938 46.300781 11.597656 46.300781 11.609375 46.300781 Z M 11.609375 46.300781 "/>
<path style=" stroke:none;fill-rule:nonzero;fill:rgb(67.058825%,0.784314%,5.882353%);fill-opacity:1;" d="M 11.613281 46.277344 C 11.597656 46.300781 11.585938 46.300781 11.554688 46.300781 C 11.613281 45.632812 11.695312 44.96875 11.78125 44.285156 C 11.808594 44.265625 11.824219 44.269531 11.855469 44.269531 C 11.796875 44.847656 11.71875 45.421875 11.644531 46 C 11.632812 46.085938 11.625 46.171875 11.613281 46.277344 Z M 11.613281 46.277344 "/>
<path style=" stroke:none;fill-rule:nonzero;fill:rgb(3.529412%,2.352941%,2.352941%);fill-opacity:1;" d="M 66.410156 21.785156 C 66.476562 21.808594 66.542969 21.847656 66.613281 21.90625 C 66.550781 21.882812 66.480469 21.84375 66.410156 21.785156 Z M 66.410156 21.785156 "/>
<path style=" stroke:none;fill-rule:nonzero;fill:rgb(3.529412%,2.352941%,2.352941%);fill-opacity:1;" d="M 66.257812 21.675781 C 66.300781 21.683594 66.347656 21.710938 66.402344 21.753906 C 66.359375 21.742188 66.308594 21.71875 66.257812 21.675781 Z M 66.257812 21.675781 "/>
<path style=" stroke:none;fill-rule:nonzero;fill:rgb(3.529412%,2.352941%,2.352941%);fill-opacity:1;" d="M 66.828125 22.085938 C 66.875 22.097656 66.921875 22.125 66.976562 22.171875 C 66.933594 22.160156 66.882812 22.132812 66.828125 22.085938 Z M 66.828125 22.085938 "/>
<path style=" stroke:none;fill-rule:nonzero;fill:rgb(3.529412%,2.352941%,2.352941%);fill-opacity:1;" d="M 66.621094 21.9375 C 66.667969 21.945312 66.714844 21.972656 66.769531 22.015625 C 66.726562 22.003906 66.675781 21.980469 66.621094 21.9375 Z M 66.621094 21.9375 "/>
<path style=" stroke:none;fill-rule:nonzero;fill:rgb(3.529412%,2.352941%,2.352941%);fill-opacity:1;" d="M 67.566406 22.652344 C 67.589844 22.652344 67.617188 22.664062 67.652344 22.691406 C 67.632812 22.695312 67.601562 22.683594 67.566406 22.652344 Z M 67.566406 22.652344 "/>
<path style=" stroke:none;fill-rule:nonzero;fill:rgb(3.529412%,2.352941%,2.352941%);fill-opacity:1;" d="M 67.152344 22.339844 C 67.175781 22.335938 67.207031 22.347656 67.242188 22.375 C 67.21875 22.378906 67.1875 22.367188 67.152344 22.339844 Z M 67.152344 22.339844 "/>
<path style=" stroke:none;fill-rule:nonzero;fill:rgb(3.529412%,2.352941%,2.352941%);fill-opacity:1;" d="M 67.359375 22.496094 C 67.382812 22.492188 67.414062 22.503906 67.449219 22.53125 C 67.425781 22.535156 67.394531 22.523438 67.359375 22.496094 Z M 67.359375 22.496094 "/>
<path style=" stroke:none;fill-rule:nonzero;fill:rgb(3.529412%,2.352941%,2.352941%);fill-opacity:1;" d="M 67.664062 22.714844 C 67.675781 22.710938 67.691406 22.722656 67.71875 22.742188 C 67.710938 22.746094 67.691406 22.738281 67.664062 22.714844 Z M 67.664062 22.714844 "/>
<path style=" stroke:none;fill-rule:nonzero;fill:rgb(3.529412%,2.352941%,2.352941%);fill-opacity:1;" d="M 67.511719 22.605469 C 67.523438 22.601562 67.542969 22.609375 67.5625 22.632812 C 67.550781 22.636719 67.53125 22.628906 67.511719 22.605469 Z M 67.511719 22.605469 "/>
<path style=" stroke:none;fill-rule:nonzero;fill:rgb(3.529412%,2.352941%,2.352941%);fill-opacity:1;" d="M 67.457031 22.558594 C 67.46875 22.550781 67.484375 22.5625 67.507812 22.585938 C 67.496094 22.589844 67.480469 22.578125 67.457031 22.558594 Z M 67.457031 22.558594 "/>
<path style=" stroke:none;fill-rule:nonzero;fill:rgb(3.529412%,2.352941%,2.352941%);fill-opacity:1;" d="M 67.25 22.398438 C 67.261719 22.394531 67.277344 22.402344 67.300781 22.425781 C 67.289062 22.429688 67.269531 22.421875 67.25 22.398438 Z M 67.25 22.398438 "/>
<path style=" stroke:none;fill-rule:nonzero;fill:rgb(3.529412%,2.352941%,2.352941%);fill-opacity:1;" d="M 67.039062 22.234375 C 67.050781 22.230469 67.070312 22.242188 67.09375 22.269531 C 67.078125 22.273438 67.0625 22.261719 67.039062 22.234375 Z M 67.039062 22.234375 "/>
<path style=" stroke:none;fill-rule:nonzero;fill:rgb(3.529412%,2.352941%,2.352941%);fill-opacity:1;" d="M 67.09375 22.292969 C 67.109375 22.285156 67.128906 22.292969 67.148438 22.316406 C 67.132812 22.320312 67.117188 22.3125 67.09375 22.292969 Z M 67.09375 22.292969 "/>
<path style=" stroke:none;fill-rule:nonzero;fill:rgb(3.529412%,2.352941%,2.352941%);fill-opacity:1;" d="M 67.304688 22.449219 C 67.316406 22.441406 67.335938 22.449219 67.355469 22.472656 C 67.34375 22.480469 67.324219 22.472656 67.304688 22.449219 Z M 67.304688 22.449219 "/>
<path style=" stroke:none;fill-rule:nonzero;fill:rgb(9.803922%,9.803922%,9.803922%);fill-opacity:1;" d="M 15.136719 34.375 C 15.140625 34.398438 15.132812 34.429688 15.105469 34.46875 C 15.101562 34.445312 15.113281 34.414062 15.136719 34.375 Z M 15.136719 34.375 "/>
<path style=" stroke:none;fill-rule:nonzero;fill:rgb(9.803922%,9.803922%,9.803922%);fill-opacity:1;" d="M 15.1875 34.269531 C 15.191406 34.292969 15.183594 34.324219 15.160156 34.363281 C 15.15625 34.339844 15.164062 34.3125 15.1875 34.269531 Z M 15.1875 34.269531 "/>
<path style=" stroke:none;fill-rule:nonzero;fill:rgb(9.803922%,9.803922%,9.803922%);fill-opacity:1;" d="M 15.242188 34.160156 C 15.246094 34.183594 15.238281 34.21875 15.214844 34.257812 C 15.207031 34.234375 15.21875 34.203125 15.242188 34.160156 Z M 15.242188 34.160156 "/>
<path style=" stroke:none;fill-rule:nonzero;fill:rgb(9.803922%,9.803922%,9.803922%);fill-opacity:1;" d="M 15.082031 34.472656 C 15.089844 34.484375 15.085938 34.5 15.066406 34.523438 C 15.0625 34.515625 15.066406 34.496094 15.082031 34.472656 Z M 15.082031 34.472656 "/>
<path style=" stroke:none;fill-rule:nonzero;fill:rgb(6.666667%,6.666667%,6.666667%);fill-opacity:1;" d="M 55.054688 37.871094 C 54.796875 37.871094 54.539062 37.871094 54.242188 37.871094 C 54.394531 37.085938 54.546875 36.304688 54.710938 35.472656 C 55.089844 35.5 55.472656 35.488281 55.839844 35.558594 C 56.285156 35.640625 56.472656 35.917969 56.488281 36.433594 C 56.269531 36.371094 56.078125 36.261719 55.871094 36.210938 C 55.558594 36.132812 55.355469 36.238281 55.289062 36.527344 C 55.1875 36.96875 55.128906 37.421875 55.054688 37.871094 Z M 55.054688 37.871094 "/>
<path style=" stroke:none;fill-rule:nonzero;fill:rgb(9.803922%,9.803922%,9.803922%);fill-opacity:1;" d="M 55.078125 37.878906 C 55.128906 37.421875 55.1875 36.96875 55.289062 36.527344 C 55.355469 36.238281 55.558594 36.132812 55.871094 36.210938 C 56.078125 36.261719 56.269531 36.371094 56.484375 36.457031 C 56.488281 37.320312 55.949219 37.867188 55.078125 37.878906 Z M 55.078125 37.878906 "/>
<path style=" stroke:none;fill-rule:nonzero;fill:rgb(9.803922%,9.803922%,9.803922%);fill-opacity:1;" d="M 51.296875 36.25 C 51.484375 37.199219 50.753906 38.003906 49.753906 37.902344 C 49.601562 37.59375 49.480469 37.320312 49.578125 36.988281 C 49.722656 36.496094 50.089844 36.035156 50.65625 36.097656 C 50.871094 36.121094 51.082031 36.199219 51.296875 36.25 Z M 51.296875 36.25 "/>
<path style=" stroke:none;fill-rule:nonzero;fill:rgb(5.882353%,5.882353%,5.882353%);fill-opacity:1;" d="M 51.300781 36.230469 C 51.082031 36.199219 50.871094 36.121094 50.65625 36.097656 C 50.089844 36.035156 49.722656 36.496094 49.578125 36.988281 C 49.480469 37.320312 49.601562 37.59375 49.738281 37.894531 C 49.292969 37.859375 49.011719 37.59375 48.945312 37.164062 C 48.832031 36.410156 49.292969 35.378906 50.414062 35.457031 C 50.882812 35.488281 51.1875 35.734375 51.300781 36.230469 Z M 51.300781 36.230469 "/>
</g>
</svg>
