<svg version="1.1" id="Layer_1" xmlns="http://www.w3.org/2000/svg" xmlns:xlink="http://www.w3.org/1999/xlink" x="0px" y="0px"
	 width="100%" viewBox="0 0 1920 1920" enable-background="new 0 0 1920 1920" xml:space="preserve">
<path fill="#191919" opacity="1.000000" stroke="none" 
	d="
M1068.000000,1921.000000 
	C712.000000,1921.000000 356.500000,1921.000000 1.000000,1921.000000 
	C1.000000,1281.000000 1.000000,641.000000 1.000000,1.000000 
	C641.000000,1.000000 1281.000000,1.000000 1921.000000,1.000000 
	C1921.000000,641.000000 1921.000000,1281.000000 1921.000000,1921.000000 
	C1636.833374,1921.000000 1352.666626,1921.000000 1068.000000,1921.000000 
M1288.312256,428.273346 
	C1288.649292,428.427887 1288.986328,428.582458 1289.173706,428.708069 
	C1289.173706,428.708069 1289.261719,428.583679 1289.388672,429.242340 
	C1289.984009,429.454071 1290.579468,429.665802 1291.075928,429.917480 
	C1291.075928,429.917480 1291.061035,429.811829 1291.284546,430.333313 
	C1291.609009,430.508026 1291.933594,430.682770 1292.108887,430.863586 
	C1292.108887,430.863586 1292.143188,430.718262 1292.312256,431.277069 
	C1292.647583,431.440613 1292.982788,431.604156 1293.155273,431.766327 
	C1293.155273,431.766327 1293.216797,431.615540 1293.379517,432.260529 
	C1293.972168,432.472534 1294.564819,432.684540 1295.063965,432.932343 
	C1295.063965,432.932343 1295.049072,432.833374 1295.276733,433.345703 
	C1295.592651,433.530121 1295.908569,433.714539 1296.077271,433.905396 
	C1296.077271,433.905396 1296.099487,433.759735 1296.300659,434.300781 
	C1296.632568,434.468445 1296.964600,434.636108 1297.130005,434.805817 
	C1297.130005,434.805817 1297.179688,434.646912 1297.364990,435.272186 
	C1297.944458,435.496887 1298.523804,435.721588 1299.030396,435.972076 
	C1299.030396,435.972076 1299.013672,435.896667 1299.327881,436.405823 
	C1299.680786,436.580902 1300.033813,436.755951 1301.001343,437.134735 
	C1331.203979,460.862030 1359.087891,487.073822 1384.550049,515.812683 
	C1474.330688,617.146973 1529.295776,734.675964 1548.198486,868.859497 
	C1555.050903,917.502991 1556.790161,966.297852 1552.272461,1015.307129 
	C1547.416138,1067.991943 1536.063232,1119.170166 1517.243774,1168.589966 
	C1470.447754,1291.476807 1391.832397,1388.988037 1281.560669,1460.453125 
	C1187.639893,1521.321411 1084.140747,1552.105957 972.329895,1554.766479 
	C938.986389,1555.559937 905.787781,1553.125122 872.765747,1548.199585 
	C823.620483,1540.868896 776.244873,1527.378784 730.404907,1508.281372 
	C727.021545,1506.871948 726.394226,1505.241821 727.078308,1501.952393 
	C729.956482,1488.113892 732.664001,1474.239868 735.386597,1460.369385 
	C742.274597,1425.276733 749.152649,1390.182129 755.985596,1355.078857 
	C756.672668,1351.549194 758.069824,1349.989990 762.158875,1350.002197 
	C817.656921,1350.168457 873.155640,1350.114014 928.654175,1350.113892 
	C930.626343,1350.113892 932.598511,1350.113892 934.874084,1350.113892 
	C945.599976,1297.499878 956.252441,1245.245850 967.053589,1192.262695 
	C816.925476,1192.262695 667.385620,1192.262695 517.204163,1192.262695 
	C553.348633,1010.502991 589.346497,829.480713 625.399536,648.180969 
	C623.880432,648.020630 623.073975,647.861267 622.267517,647.861084 
	C558.269226,647.848083 494.270874,647.874390 430.272736,647.770752 
	C426.882996,647.765259 426.267273,649.218384 425.700439,652.076172 
	C415.403076,703.989563 404.983551,755.878845 394.599213,807.775024 
	C378.043091,890.515076 361.494629,973.256592 344.941071,1055.997070 
	C328.452759,1138.411621 311.960663,1220.825073 295.474243,1303.239868 
	C292.384308,1318.686401 289.313141,1334.136597 286.173615,1349.884644 
	C289.107574,1350.077637 291.570831,1350.239624 294.024506,1351.170288 
	C293.873444,1352.943970 293.722351,1354.717651 293.527527,1357.004883 
	C295.746338,1357.004883 297.713837,1357.005005 299.681335,1357.005005 
	C350.610779,1357.005005 401.540192,1356.991821 452.469635,1357.009399 
	C488.086151,1357.021851 523.702637,1357.076050 559.287048,1357.940308 
	C559.164551,1358.763550 559.095093,1359.598633 558.911987,1360.408203 
	C545.108093,1421.412109 531.312256,1482.418091 517.467773,1543.412842 
	C514.863586,1554.886230 514.739624,1554.916870 524.912415,1561.466064 
	C564.259705,1586.797729 603.653625,1612.181396 645.666870,1632.863892 
	C733.372437,1676.039673 826.640198,1698.276978 924.059021,1702.694458 
	C954.217285,1704.062134 984.550964,1703.029419 1014.742004,1701.690186 
	C1034.727661,1700.803589 1054.683105,1697.963257 1074.512451,1695.048340 
	C1149.520752,1684.021606 1220.912231,1661.173218 1288.882080,1627.744873 
	C1370.916504,1587.399048 1442.971436,1533.552246 1505.206299,1466.568481 
	C1584.565674,1381.153564 1640.661865,1282.446045 1673.773682,1170.731079 
	C1686.277588,1128.544556 1695.474731,1085.625488 1698.986206,1041.643677 
	C1700.553345,1022.013489 1702.897705,1002.394043 1703.311523,982.736511 
	C1703.783203,960.322021 1702.755127,937.860291 1701.878174,915.438721 
	C1701.328979,901.401062 1700.707886,887.271240 1698.617310,873.409241 
	C1694.525513,846.277832 1690.694702,818.997925 1684.452515,792.318420 
	C1654.131836,662.720581 1593.251709,549.217529 1502.191528,452.126862 
	C1439.434814,385.214050 1366.662964,331.753357 1283.969482,291.862030 
	C1189.206055,246.148132 1089.205566,221.829102 984.116699,218.445328 
	C936.063171,216.898056 888.285522,220.104492 840.800171,227.810562 
	C767.819580,239.654099 698.239319,262.067871 631.986206,294.785187 
	C550.153564,335.196014 478.339081,389.072510 416.240784,455.937714 
	C364.507690,511.642029 322.302551,573.797119 289.713348,642.486206 
	C258.395844,708.494873 237.231781,777.598328 226.033020,850.649109 
	C224.519623,863.412781 223.006226,876.176514 221.150421,889.662415 
	C217.587051,925.657227 217.092606,961.694824 219.257309,997.769043 
	C219.802856,995.791260 219.826416,993.806091 219.799179,991.821594 
	C219.564606,974.730957 218.726868,957.622498 219.246323,940.555115 
	C219.770233,923.342041 221.638550,906.169922 223.029282,888.129700 
	C223.209213,886.494263 223.361374,884.855164 223.573532,883.223877 
	C225.015701,872.135864 226.470551,861.049561 228.044571,849.165283 
	C235.442978,806.439880 246.219894,764.592896 262.146210,724.241760 
	C269.942932,704.487854 279.197388,685.309204 288.251282,666.295715 
	C288.044250,667.416504 288.016357,668.608582 287.603271,669.647400 
	C281.585907,684.780823 275.259705,699.796692 269.513794,715.031616 
	C257.357361,747.263733 248.076294,780.370544 241.138504,814.084778 
	C237.236893,833.044800 234.287704,852.207336 231.212204,871.327393 
	C229.965652,879.077087 229.524902,886.956360 228.717484,894.776733 
	C230.403839,889.500366 231.041443,884.107483 231.982513,878.768127 
	C235.803253,857.090393 238.570023,835.142578 243.892303,813.835632 
	C250.283371,788.249878 257.729889,762.791016 266.846191,738.061157 
	C275.964417,713.326111 287.171600,689.305969 298.432831,665.429749 
	C313.082794,634.368652 331.134918,605.149170 351.823486,577.811279 
	C369.320343,554.690857 388.044434,532.437073 407.200897,510.657776 
	C418.820007,497.447845 431.900818,485.429962 445.038666,473.674225 
	C459.985199,460.300079 475.028473,446.840607 491.291565,435.177917 
	C514.072876,418.840881 537.702209,403.616669 561.545349,388.847198 
	C594.327881,368.540314 629.544373,353.079681 665.751831,340.023682 
	C711.625061,323.482239 758.615662,311.213257 807.223572,306.000610 
	C829.281189,303.635162 851.383423,301.347015 873.526245,300.229553 
	C889.265320,299.435303 905.125488,300.277222 920.896240,301.082367 
	C938.095825,301.960419 955.337524,302.980957 972.409912,305.135345 
	C993.412903,307.785736 1014.426453,310.871552 1035.141846,315.180573 
	C1089.432129,326.473450 1141.558960,344.544434 1190.900269,369.778687 
	C1216.455322,382.847992 1240.670898,398.533569 1265.526367,412.977386 
	C1267.600342,414.182526 1269.940063,414.929993 1272.065552,415.900909 
	C1272.065552,415.900909 1272.103027,415.817505 1272.137573,416.549347 
	C1273.125854,417.013428 1274.114258,417.477478 1275.023682,417.965546 
	C1275.023682,417.965546 1275.053467,417.888672 1275.097778,418.629639 
	C1276.451050,419.382996 1277.804199,420.136383 1279.067139,420.903229 
	C1279.067139,420.903229 1279.101807,420.818695 1279.142578,421.558136 
	C1280.149292,422.028809 1281.155884,422.499512 1282.576050,423.028442 
	C1282.864868,423.139343 1283.032227,423.347748 1283.125244,424.416260 
	C1284.137695,424.934235 1285.150146,425.452240 1286.571411,426.025360 
	C1286.857910,426.133484 1287.023071,426.339081 1287.264771,427.215118 
	C1287.587036,427.441589 1287.909424,427.668060 1288.078491,427.857574 
	C1288.078491,427.857574 1288.145142,427.714722 1288.312256,428.273346 
M1029.258301,855.842102 
	C1027.073242,867.015869 1024.972168,878.207214 1022.636658,889.349426 
	C1022.133118,891.752014 1022.069580,893.180237 1025.006958,893.843872 
	C1025.386475,898.987671 1027.901367,902.517395 1032.788818,904.359253 
	C1044.114136,908.627197 1055.026245,903.071228 1057.914673,891.498413 
	C1058.355225,889.733215 1058.643433,887.930420 1059.024048,886.149658 
	C1061.547485,874.343018 1064.095337,862.541504 1066.594238,850.729614 
	C1067.407104,846.886963 1069.847290,845.577148 1073.521484,845.997925 
	C1076.808228,846.374329 1080.095215,846.748718 1083.412964,847.961365 
	C1080.723511,861.320374 1078.026123,874.677734 1075.352173,888.039856 
	C1074.881104,890.394226 1073.740479,893.175293 1078.002808,893.888123 
	C1077.301270,899.271179 1080.397461,902.374268 1084.762573,904.281616 
	C1096.389893,909.362183 1108.470459,902.816101 1110.947510,890.341248 
	C1112.781982,881.101807 1115.246338,871.954041 1116.501343,862.640259 
	C1118.811523,845.495117 1122.669312,846.879395 1135.950928,847.783630 
	C1133.199585,861.654358 1130.403564,875.516602 1127.781372,889.411743 
	C1127.573120,890.515015 1128.567749,891.845398 1129.021362,893.827148 
	C1129.872681,898.173950 1131.071045,902.617065 1135.675049,904.208618 
	C1147.201904,908.193176 1161.688721,907.169861 1164.146973,889.791870 
	C1165.885498,877.500854 1167.086792,876.909851 1179.604492,877.020691 
	C1179.770508,877.022156 1179.936646,877.027527 1180.190063,877.854065 
	C1179.306274,882.746155 1178.422485,887.638306 1177.536865,892.540588 
	C1179.088379,892.777466 1180.046143,892.923706 1181.004761,893.866577 
	C1180.699219,898.416809 1182.889893,901.492310 1186.843018,903.367310 
	C1198.207642,908.757324 1210.272339,903.210571 1212.938843,891.022156 
	C1217.101318,871.997253 1220.965454,852.905884 1224.808472,833.812988 
	C1226.385132,825.979736 1222.246094,820.501648 1213.926636,818.131165 
	C1206.754150,817.598450 1199.581543,817.065735 1192.584473,816.546021 
	C1190.513672,826.757080 1188.671265,835.842285 1186.809082,845.024658 
	C1177.174561,845.024658 1167.881592,845.024658 1158.210815,845.024658 
	C1160.045776,835.638794 1161.836548,826.478699 1163.690918,816.993530 
	C1157.028076,816.993530 1150.866333,816.833496 1144.726685,817.129150 
	C1143.505859,817.187988 1142.369263,818.992065 1140.408081,819.917480 
	C1138.341431,819.614197 1136.274902,819.310974 1134.103516,818.117615 
	C1133.658813,817.749451 1133.214966,817.060547 1132.769165,817.059326 
	C1111.440430,817.001038 1090.111084,816.960815 1068.783569,817.124817 
	C1067.764893,817.132568 1066.760742,819.005859 1064.966309,819.988464 
	C1062.876465,819.624695 1060.786743,819.260925 1058.618408,818.080811 
	C1058.339355,817.750427 1058.064331,817.135315 1057.780762,817.131409 
	C1051.564331,817.044800 1045.341797,816.890869 1039.135010,817.129150 
	C1038.116821,817.168274 1037.166992,818.989807 1035.364502,819.997253 
	C1033.274048,819.673218 1031.183594,819.349182 1029.173584,818.112061 
	C1028.584473,817.742126 1027.999146,817.057861 1027.405518,817.050598 
	C1021.083252,816.972778 1014.759644,817.002258 1008.332703,817.002258 
	C1000.061401,832.758728 991.843506,848.413452 983.625549,864.068115 
	C983.314819,864.001465 983.004028,863.934814 982.693298,863.868164 
	C980.980225,848.393372 979.267212,832.918579 977.504395,816.994446 
	C971.989380,816.994446 966.695740,817.143188 961.416199,816.934509 
	C958.591858,816.822754 957.079956,817.680481 955.737549,820.319824 
	C949.715820,832.159363 943.402466,843.850647 937.180969,855.588318 
	C935.751953,858.284302 934.269958,860.952209 932.250671,864.666077 
	C930.396790,849.170837 928.579712,835.017395 927.106079,820.828247 
	C926.796875,817.851135 925.864136,816.629333 923.012573,816.094543 
	C923.839600,814.121338 924.224854,811.757263 925.567444,810.240234 
	C932.758850,802.114441 931.231201,794.645691 923.592896,787.134827 
	C911.875000,775.612366 900.100098,764.145813 888.206177,752.805725 
	C885.159607,749.901062 881.565002,747.604675 876.345459,749.757202 
	C875.073792,748.008118 873.802124,746.259033 872.921875,745.048218 
	C869.284058,748.355591 866.577271,750.781677 863.908081,753.248535 
	C837.554321,777.604980 807.068665,783.641785 772.873474,773.114075 
	C771.460266,771.779785 770.200500,770.217224 768.609375,769.147461 
	C756.065125,760.713074 748.645630,748.837585 746.068542,734.183044 
	C743.418030,719.111450 744.654724,704.127319 749.068054,689.425171 
	C754.831909,670.224182 765.045044,654.115479 781.734619,642.591858 
	C801.521545,628.929382 823.590698,625.334473 846.855286,629.288879 
	C860.942627,631.683289 873.433044,638.102112 882.569092,649.446411 
	C890.715515,659.561890 896.682800,660.696716 906.879944,652.572083 
	C921.131165,641.217224 935.226501,629.666626 949.491516,618.329468 
	C955.676636,613.413818 957.227173,605.997437 952.956116,599.470947 
	C945.097412,587.462158 934.706665,578.072693 922.431885,570.819214 
	C917.244995,567.754272 912.446533,563.351868 904.971802,564.058838 
	C899.314514,561.698669 893.766968,559.019043 887.981689,557.031311 
	C856.208618,546.114746 823.662109,545.428772 790.955750,551.104248 
	C747.524475,558.640869 710.467590,578.258423 684.206360,614.226807 
	C649.898010,661.216858 640.568237,713.062988 658.400574,769.567871 
	C658.588989,771.164124 658.521301,772.842712 659.004395,774.344177 
	C665.859314,795.650696 679.366638,812.539124 696.283203,826.325317 
	C722.693665,847.848328 754.135010,856.857544 787.634949,858.874451 
	C806.549377,860.013245 825.444519,858.746155 844.102966,854.967957 
	C860.981201,851.550171 877.072083,846.098633 892.105164,837.538574 
	C896.742371,834.898193 901.887634,833.149780 907.017944,831.836121 
	C908.399048,843.194641 909.711487,854.562073 911.182983,865.908875 
	C912.352661,874.927979 913.716919,883.921814 915.082397,893.664001 
	C916.395203,898.077087 918.223694,902.106018 922.904419,903.948975 
	C931.415527,907.299927 946.623718,907.421143 953.087830,896.325317 
	C954.341736,894.173096 955.189209,891.734131 956.690735,889.787170 
	C959.317444,886.380859 962.305908,883.253418 965.555237,880.703857 
	C966.371582,884.825867 967.187866,888.947876 968.093201,893.770264 
	C970.163208,896.707642 971.657104,900.437134 974.408142,902.438232 
	C983.738708,909.225037 1000.257446,904.877686 1005.654358,894.690918 
	C1011.640259,883.392456 1017.517456,872.034119 1023.694702,860.841309 
	C1024.943237,858.578918 1027.321411,856.939819 1029.258301,855.842102 
M1114.688599,737.044006 
	C1114.068604,740.208801 1113.448730,743.373596 1112.777954,746.798157 
	C1114.803467,746.942871 1116.405884,747.057373 1118.020996,747.893188 
	C1120.051270,754.396545 1123.479736,756.970093 1130.445679,756.987061 
	C1146.420288,757.026001 1162.395752,756.919312 1178.369507,757.047241 
	C1183.322388,757.086853 1187.160889,755.072449 1189.979126,751.357117 
	C1192.926880,747.471008 1194.123291,742.960388 1191.888550,738.248962 
	C1190.308838,734.918335 1187.900757,732.509216 1183.735596,732.095337 
	C1183.794067,730.876465 1183.852661,729.657593 1183.935425,727.931824 
	C1175.347290,727.931824 1167.171875,727.931824 1159.176758,727.203003 
	C1159.679565,726.822571 1160.160522,726.146301 1160.688599,726.107239 
	C1166.464355,725.679626 1172.243042,725.235901 1178.029419,725.024353 
	C1186.214111,724.725037 1190.944580,721.585693 1193.248047,714.626892 
	C1195.687134,707.258240 1194.081787,702.370422 1187.397949,697.273254 
	C1186.538452,696.617859 1185.311890,696.443848 1184.255371,696.046875 
	C1184.680298,695.506836 1185.105347,694.966858 1185.530273,694.426819 
	C1188.711548,693.616272 1191.895996,692.817505 1195.073486,691.992554 
	C1201.224365,690.395813 1205.739380,683.901611 1205.983154,676.323975 
	C1206.171753,670.462036 1203.026001,666.967468 1195.653198,664.078796 
	C1194.479492,663.439941 1193.309204,662.251160 1192.131714,662.244202 
	C1172.539551,662.127991 1152.946045,662.212891 1133.353882,662.099609 
	C1130.506714,662.083191 1129.381592,662.821350 1128.844482,665.795776 
	C1127.018433,675.906067 1124.794434,685.944458 1122.042358,695.890564 
	C1119.786621,691.788086 1117.791260,687.513489 1115.218994,683.620056 
	C1110.319702,676.204468 1104.479248,669.869995 1094.097534,668.992371 
	C1088.506470,667.013794 1082.987427,663.616821 1077.310669,663.328796 
	C1061.747070,662.539307 1046.117310,663.056641 1030.124512,663.056641 
	C1028.112915,672.614685 1025.966919,682.810669 1023.143127,692.900696 
	C1021.389282,690.183594 1019.562500,687.510376 1017.894287,684.741638 
	C1011.570374,674.245300 1003.514587,666.209473 989.772095,665.071594 
	C982.168579,663.657227 974.581116,661.122375 966.958984,661.013733 
	C923.778442,660.397827 905.949402,701.865540 919.060852,730.528381 
	C919.736328,733.400940 919.827820,736.592651 921.192017,739.088867 
	C926.152283,748.164795 933.631165,754.999451 943.501587,757.844177 
	C967.556091,764.776672 989.821167,762.280090 1008.286987,743.319153 
	C1010.011414,741.548584 1012.519897,740.541748 1014.657227,739.999573 
	C1014.234741,742.188599 1013.812256,744.377625 1013.355835,746.742737 
	C1014.785278,746.912354 1015.896912,747.044189 1017.009094,747.945374 
	C1018.213318,755.611145 1021.404358,758.860046 1029.742065,758.879028 
	C1044.979004,758.913696 1060.294434,759.145630 1075.432373,757.737915 
	C1089.151489,756.462158 1100.876465,749.939575 1109.790527,738.945251 
	C1110.885986,737.594116 1113.024658,737.088867 1114.688599,737.044006 
M846.500000,919.846191 
	C780.200195,919.846191 713.900330,919.846191 647.239319,919.846191 
	C633.530457,988.400391 619.893799,1056.593262 606.203064,1125.056519 
	C607.700195,1125.218628 608.505859,1125.381348 609.311646,1125.382080 
	C672.139282,1125.442505 734.966919,1125.467773 797.794373,1125.605347 
	C800.979370,1125.612305 802.053955,1124.420532 802.609131,1121.490234 
	C805.240540,1107.602539 808.603577,1093.826538 810.555908,1079.849976 
	C811.373657,1073.995728 813.603638,1073.451538 818.458862,1073.456177 
	C931.450989,1073.565186 1044.443237,1073.540283 1157.435425,1073.540161 
	C1158.935303,1073.540161 1160.444458,1073.428101 1161.933105,1073.556396 
	C1165.192871,1073.837158 1166.453735,1072.501465 1167.114868,1069.176514 
	C1174.251465,1033.282593 1181.596558,997.430176 1188.870117,961.563416 
	C1191.643555,947.887634 1194.379761,934.204346 1197.269531,919.846130 
	C1080.380981,919.846130 963.940491,919.846130 846.500000,919.846191 
z"/>
<path fill="#FF0013" opacity="1.000000" stroke="none" 
	d="
M226.363617,849.850708 
	C237.231781,777.598328 258.395844,708.494873 289.713348,642.486206 
	C322.302551,573.797119 364.507690,511.642029 416.240784,455.937714 
	C478.339081,389.072510 550.153564,335.196014 631.986206,294.785187 
	C698.239319,262.067871 767.819580,239.654099 840.800171,227.810562 
	C888.285522,220.104492 936.063171,216.898056 984.116699,218.445328 
	C1089.205566,221.829102 1189.206055,246.148132 1283.969482,291.862030 
	C1366.662964,331.753357 1439.434814,385.214050 1502.191528,452.126862 
	C1593.251709,549.217529 1654.131836,662.720581 1684.452515,792.318420 
	C1690.694702,818.997925 1694.525513,846.277832 1698.617310,873.409241 
	C1700.707886,887.271240 1701.328979,901.401062 1701.878174,915.438721 
	C1702.755127,937.860291 1703.783203,960.322021 1703.311523,982.736511 
	C1702.897705,1002.394043 1700.553345,1022.013489 1698.986206,1041.643677 
	C1695.474731,1085.625488 1686.277588,1128.544556 1673.773682,1170.731079 
	C1640.661865,1282.446045 1584.565674,1381.153564 1505.206299,1466.568481 
	C1442.971436,1533.552246 1370.916504,1587.399048 1288.882080,1627.744873 
	C1220.912231,1661.173218 1149.520752,1684.021606 1074.512451,1695.048340 
	C1054.683105,1697.963257 1034.727661,1700.803589 1014.742004,1701.690186 
	C984.550964,1703.029419 954.217285,1704.062134 924.059021,1702.694458 
	C826.640198,1698.276978 733.372437,1676.039673 645.666870,1632.863892 
	C603.653625,1612.181396 564.259705,1586.797729 524.912415,1561.466064 
	C514.739624,1554.916870 514.863586,1554.886230 517.467773,1543.412842 
	C531.312256,1482.418091 545.108093,1421.412109 558.911987,1360.408203 
	C559.095093,1359.598633 559.164551,1358.763550 559.517578,1357.224121 
	C560.138428,1354.585205 560.528870,1352.662598 561.037720,1350.156860 
	C559.034668,1350.156860 557.425293,1350.156860 555.815918,1350.156860 
	C470.214050,1350.156860 384.612213,1350.155640 299.010345,1350.167114 
	C297.351593,1350.167358 295.692841,1350.319946 294.034088,1350.401367 
	C291.570831,1350.239624 289.107574,1350.077637 286.173615,1349.884644 
	C289.313141,1334.136597 292.384308,1318.686401 295.474243,1303.239868 
	C311.960663,1220.825073 328.452759,1138.411621 344.941071,1055.997070 
	C361.494629,973.256592 378.043091,890.515076 394.599213,807.775024 
	C404.983551,755.878845 415.403076,703.989563 425.700439,652.076172 
	C426.267273,649.218384 426.882996,647.765259 430.272736,647.770752 
	C494.270874,647.874390 558.269226,647.848083 622.267517,647.861084 
	C623.073975,647.861267 623.880432,648.020630 625.399536,648.180969 
	C589.346497,829.480713 553.348633,1010.502991 517.204163,1192.262695 
	C667.385620,1192.262695 816.925476,1192.262695 967.053589,1192.262695 
	C956.252441,1245.245850 945.599976,1297.499878 934.874084,1350.113892 
	C932.598511,1350.113892 930.626343,1350.113892 928.654175,1350.113892 
	C873.155640,1350.114014 817.656921,1350.168457 762.158875,1350.002197 
	C758.069824,1349.989990 756.672668,1351.549194 755.985596,1355.078857 
	C749.152649,1390.182129 742.274597,1425.276733 735.386597,1460.369385 
	C732.664001,1474.239868 729.956482,1488.113892 727.078308,1501.952393 
	C726.394226,1505.241821 727.021545,1506.871948 730.404907,1508.281372 
	C776.244873,1527.378784 823.620483,1540.868896 872.765747,1548.199585 
	C905.787781,1553.125122 938.986389,1555.559937 972.329895,1554.766479 
	C1084.140747,1552.105957 1187.639893,1521.321411 1281.560669,1460.453125 
	C1391.832397,1388.988037 1470.447754,1291.476807 1517.243774,1168.589966 
	C1536.063232,1119.170166 1547.416138,1067.991943 1552.272461,1015.307129 
	C1556.790161,966.297852 1555.050903,917.502991 1548.198486,868.859497 
	C1529.295776,734.675964 1474.330688,617.146973 1384.550049,515.812683 
	C1359.087891,487.073822 1331.203979,460.862030 1300.530762,436.780396 
	C1299.711304,436.249603 1299.362549,436.073120 1299.013672,435.896667 
	C1299.013672,435.896667 1299.030396,435.972076 1298.919922,435.686890 
	C1298.266113,435.150146 1297.722900,434.898529 1297.179688,434.646912 
	C1297.179688,434.646912 1297.130005,434.805817 1297.143433,434.517151 
	C1296.804443,434.072235 1296.451904,433.915985 1296.099487,433.759766 
	C1296.099487,433.759735 1296.077271,433.905396 1296.068359,433.624084 
	C1295.722534,433.172974 1295.385864,433.003174 1295.049072,432.833374 
	C1295.049072,432.833374 1295.063965,432.932343 1294.969482,432.635864 
	C1294.322388,432.098114 1293.769531,431.856812 1293.216797,431.615540 
	C1293.216797,431.615540 1293.155273,431.766327 1293.175049,431.477112 
	C1292.844238,431.031311 1292.493774,430.874786 1292.143188,430.718262 
	C1292.143188,430.718262 1292.108887,430.863586 1292.105713,430.577606 
	C1291.755371,430.131714 1291.408203,429.971771 1291.061035,429.811829 
	C1291.061035,429.811829 1291.075928,429.917480 1290.986572,429.618134 
	C1290.351929,429.073730 1289.806885,428.828705 1289.261719,428.583679 
	C1289.261719,428.583679 1289.173706,428.708069 1289.189941,428.433868 
	C1288.852539,428.011353 1288.498901,427.863037 1288.145142,427.714722 
	C1288.145142,427.714722 1288.078491,427.857574 1288.087646,427.575317 
	C1287.753418,427.076050 1287.410278,426.859100 1287.067017,426.642120 
	C1287.023071,426.339081 1286.857910,426.133484 1286.190674,425.722229 
	C1284.899414,424.830627 1283.988770,424.242126 1283.078125,423.653625 
	C1283.032227,423.347748 1282.864868,423.139343 1282.197266,422.729156 
	C1280.912964,421.892822 1280.007446,421.355774 1279.101807,420.818695 
	C1279.101807,420.818695 1279.067139,420.903229 1278.961426,420.608429 
	C1277.588257,419.505310 1276.320801,418.696991 1275.053467,417.888672 
	C1275.053467,417.888672 1275.023682,417.965546 1274.908447,417.678436 
	C1273.896484,416.866699 1272.999756,416.342102 1272.103027,415.817505 
	C1272.103027,415.817505 1272.065552,415.900909 1271.949829,415.598083 
	C1172.227417,345.246185 1061.697266,305.276978 940.388306,295.161133 
	C898.635864,291.679413 856.916565,292.421204 815.237976,296.852295 
	C764.396301,302.257568 714.732178,313.047089 666.609985,330.222534 
	C522.439697,381.678802 408.502014,471.735352 324.916199,599.931458 
	C313.226868,617.859375 303.522949,637.081787 292.638885,655.901367 
	C292.190002,656.714172 292.002197,657.330566 291.862244,657.942383 
	C291.910095,657.937744 291.875580,657.847961 291.610565,658.011841 
	C291.168640,658.765015 290.991730,659.354248 290.862000,659.940186 
	C290.909180,659.936890 290.876801,659.848022 290.608948,660.004456 
	C290.138184,660.737244 289.935333,661.313660 289.798401,661.897583 
	C289.864349,661.905151 289.840576,661.774536 289.593689,661.888245 
	C289.258820,662.343872 289.170868,662.685791 288.865906,663.263000 
	C288.363312,664.288940 288.077728,665.079590 287.792114,665.870239 
	C279.197388,685.309204 269.942932,704.487854 262.146210,724.241760 
	C246.219894,764.592896 235.442978,806.439880 227.721832,849.585205 
	C227.053940,849.953674 226.708771,849.902222 226.363617,849.850708 
z"/>
<path fill="#FF0013" opacity="1.000000" stroke="none" 
	d="
M847.000000,919.846191 
	C963.940491,919.846130 1080.380981,919.846130 1197.269531,919.846130 
	C1194.379761,934.204346 1191.643555,947.887634 1188.870117,961.563416 
	C1181.596558,997.430176 1174.251465,1033.282593 1167.114868,1069.176514 
	C1166.453735,1072.501465 1165.192871,1073.837158 1161.933105,1073.556396 
	C1160.444458,1073.428101 1158.935303,1073.540161 1157.435425,1073.540161 
	C1044.443237,1073.540283 931.450989,1073.565186 818.458862,1073.456177 
	C813.603638,1073.451538 811.373657,1073.995728 810.555908,1079.849976 
	C808.603577,1093.826538 805.240540,1107.602539 802.609131,1121.490234 
	C802.053955,1124.420532 800.979370,1125.612305 797.794373,1125.605347 
	C734.966919,1125.467773 672.139282,1125.442505 609.311646,1125.382080 
	C608.505859,1125.381348 607.700195,1125.218628 606.203064,1125.056519 
	C619.893799,1056.593262 633.530457,988.400391 647.239319,919.846191 
	C713.900330,919.846191 780.200195,919.846191 847.000000,919.846191 
z"/>
<path fill="#FEFEFE" opacity="1.000000" stroke="none" 
	d="
M772.990479,773.774048 
	C807.068665,783.641785 837.554321,777.604980 863.908081,753.248535 
	C866.577271,750.781677 869.284058,748.355591 872.921875,745.048218 
	C873.802124,746.259033 875.073792,748.008118 876.791870,750.191895 
	C890.905273,764.915222 904.572388,779.203796 918.386841,793.646423 
	C909.632751,805.424500 892.073364,820.490417 876.549988,827.769043 
	C831.187866,849.038269 784.340027,850.674133 736.612549,837.211121 
	C723.015686,833.375793 710.056152,827.726685 698.773682,819.111755 
	C681.344849,805.803650 667.628235,789.362305 658.891052,769.043762 
	C640.568237,713.062988 649.898010,661.216858 684.206360,614.226807 
	C710.467590,578.258423 747.524475,558.640869 790.955750,551.104248 
	C823.662109,545.428772 856.208618,546.114746 887.981689,557.031311 
	C893.766968,559.019043 899.314514,561.698669 905.523193,564.372681 
	C921.237183,572.618835 933.884827,583.353455 943.303955,597.776245 
	C945.285645,600.810608 945.201782,602.670959 942.050476,605.044922 
	C933.016907,611.849670 924.296570,619.069946 915.446228,626.118164 
	C906.117798,633.547180 896.781311,640.966187 887.420105,648.411987 
	C886.771606,647.805908 886.340576,647.531799 886.082031,647.142944 
	C873.320862,627.953979 855.545227,617.124084 832.505066,615.436890 
	C803.235535,613.293457 777.455322,621.208862 757.315796,643.373108 
	C737.633972,665.033752 730.851318,691.303101 732.131897,719.898743 
	C733.289612,745.750732 748.833069,765.847778 772.990479,773.774048 
z"/>
<path fill="#090606" opacity="1.000000" stroke="none" 
	d="
M292.899963,655.705017 
	C303.522949,637.081787 313.226868,617.859375 324.916199,599.931458 
	C408.502014,471.735352 522.439697,381.678802 666.609985,330.222534 
	C714.732178,313.047089 764.396301,302.257568 815.237976,296.852295 
	C856.916565,292.421204 898.635864,291.679413 940.388306,295.161133 
	C1061.697266,305.276978 1172.227417,345.246185 1271.995239,415.592651 
	C1269.940063,414.929993 1267.600342,414.182526 1265.526367,412.977386 
	C1240.670898,398.533569 1216.455322,382.847992 1190.900269,369.778687 
	C1141.558960,344.544434 1089.432129,326.473450 1035.141846,315.180573 
	C1014.426453,310.871552 993.412903,307.785736 972.409912,305.135345 
	C955.337524,302.980957 938.095825,301.960419 920.896240,301.082367 
	C905.125488,300.277222 889.265320,299.435303 873.526245,300.229553 
	C851.383423,301.347015 829.281189,303.635162 807.223572,306.000610 
	C758.615662,311.213257 711.625061,323.482239 665.751831,340.023682 
	C629.544373,353.079681 594.327881,368.540314 561.545349,388.847198 
	C537.702209,403.616669 514.072876,418.840881 491.291565,435.177917 
	C475.028473,446.840607 459.985199,460.300079 445.038666,473.674225 
	C431.900818,485.429962 418.820007,497.447845 407.200897,510.657776 
	C388.044434,532.437073 369.320343,554.690857 351.823486,577.811279 
	C331.134918,605.149170 313.082794,634.368652 298.432831,665.429749 
	C287.171600,689.305969 275.964417,713.326111 266.846191,738.061157 
	C257.729889,762.791016 250.283371,788.249878 243.892303,813.835632 
	C238.570023,835.142578 235.803253,857.090393 231.982513,878.768127 
	C231.041443,884.107483 230.403839,889.500366 228.717484,894.776733 
	C229.524902,886.956360 229.965652,879.077087 231.212204,871.327393 
	C234.287704,852.207336 237.236893,833.044800 241.138504,814.084778 
	C248.076294,780.370544 257.357361,747.263733 269.513794,715.031616 
	C275.259705,699.796692 281.585907,684.780823 287.603271,669.647400 
	C288.016357,668.608582 288.044250,667.416504 288.021698,666.083008 
	C288.077728,665.079590 288.363312,664.288940 289.074341,663.110779 
	C289.613342,662.407043 289.726959,662.090759 289.840576,661.774536 
	C289.840576,661.774536 289.864349,661.905151 290.102173,661.772949 
	C290.518951,661.043213 290.697876,660.445618 290.876831,659.848022 
	C290.876801,659.848022 290.909180,659.936890 291.147766,659.789185 
	C291.549438,659.043640 291.712494,658.445801 291.875580,657.847961 
	C291.875580,657.847961 291.910095,657.937744 292.156067,657.772705 
	C292.568024,656.973450 292.734009,656.339233 292.899963,655.705017 
z"/>
<path fill="#FDFDFD" opacity="1.000000" stroke="none" 
	d="
M922.993286,816.823242 
	C925.864136,816.629333 926.796875,817.851135 927.106079,820.828247 
	C928.579712,835.017395 930.396790,849.170837 932.250671,864.666077 
	C934.269958,860.952209 935.751953,858.284302 937.180969,855.588318 
	C943.402466,843.850647 949.715820,832.159363 955.737549,820.319824 
	C957.079956,817.680481 958.591858,816.822754 961.416199,816.934509 
	C966.695740,817.143188 971.989380,816.994446 977.504395,816.994446 
	C979.267212,832.918579 980.980225,848.393372 982.693298,863.868164 
	C983.004028,863.934814 983.314819,864.001465 983.625549,864.068115 
	C991.843506,848.413452 1000.061401,832.758728 1008.332703,817.002258 
	C1014.759644,817.002258 1021.083252,816.972778 1027.405518,817.050598 
	C1027.999146,817.057861 1028.584473,817.742126 1028.878906,818.801086 
	C1016.398926,842.714050 1004.171570,865.916260 992.084656,889.191406 
	C990.678406,891.899353 989.093628,893.014648 985.967834,892.906677 
	C979.988953,892.700195 973.992981,892.987549 968.004150,893.069885 
	C967.187866,888.947876 966.371582,884.825867 965.423462,879.908813 
	C964.127319,869.068848 962.962952,859.023926 961.625488,847.486084 
	C953.848877,862.249817 946.779602,875.553345 939.847656,888.927917 
	C938.425598,891.671814 936.921082,893.147461 933.442017,892.936340 
	C927.315308,892.564453 921.146179,892.892090 914.994812,892.926880 
	C913.716919,883.921814 912.352661,874.927979 911.182983,865.908875 
	C909.711487,854.562073 908.399048,843.194641 906.951233,830.992249 
	C906.368652,825.855408 905.852722,821.562378 905.283264,816.823242 
	C911.529724,816.823242 917.261475,816.823242 922.993286,816.823242 
z"/>
<path fill="#FDFDFD" opacity="1.000000" stroke="none" 
	d="
M1023.821045,693.006592 
	C1025.966919,682.810669 1028.112915,672.614685 1030.124512,663.056641 
	C1046.117310,663.056641 1061.747070,662.539307 1077.310669,663.328796 
	C1082.987427,663.616821 1088.506470,667.013794 1094.615479,669.328674 
	C1097.762329,672.179688 1100.833618,674.372314 1102.941040,677.266724 
	C1110.723755,687.955994 1110.576782,700.002930 1107.425781,712.041565 
	C1101.981445,732.841797 1083.459595,746.263611 1059.944458,746.784851 
	C1045.636597,747.101929 1031.320801,747.057861 1017.008484,747.176025 
	C1015.896912,747.044189 1014.785278,746.912354 1013.355835,746.742737 
	C1013.812256,744.377625 1014.234741,742.188599 1014.792908,739.248047 
	C1017.892700,723.333191 1020.856812,708.169861 1023.821045,693.006592 
M1084.968506,699.172668 
	C1084.250732,689.620300 1080.643799,684.272156 1072.097168,682.697998 
	C1065.049194,681.399841 1057.727417,681.587830 1050.448364,681.112061 
	C1047.322754,697.064636 1044.382935,712.068787 1041.428101,727.150330 
	C1047.160156,727.150330 1052.108643,727.150330 1057.906738,727.443787 
	C1074.227539,727.083069 1084.582642,716.522705 1084.968506,699.172668 
z"/>
<path fill="#FDFDFD" opacity="1.000000" stroke="none" 
	d="
M919.112183,729.663025 
	C905.949402,701.865540 923.778442,660.397827 966.958984,661.013733 
	C974.581116,661.122375 982.168579,663.657227 990.340271,665.386047 
	C1000.784424,670.841125 1006.847229,678.971497 1008.992310,689.788757 
	C1013.382080,711.925964 1001.623718,734.620056 981.366394,743.616394 
	C957.575134,754.182068 933.187317,748.715881 919.112183,729.663025 
M985.038818,695.232422 
	C982.812134,686.095215 976.979553,681.409119 967.927368,680.784912 
	C946.429016,679.302429 937.603516,699.066406 939.763611,713.530884 
	C940.996277,721.785522 946.402222,726.882874 955.709900,728.258301 
	C974.496521,729.709045 988.533325,714.204773 985.038818,695.232422 
z"/>
<path fill="#0F0F0F" opacity="1.000000" stroke="none" 
	d="
M772.932007,773.444092 
	C748.833069,765.847778 733.289612,745.750732 732.131897,719.898743 
	C730.851318,691.303101 737.633972,665.033752 757.315796,643.373108 
	C777.455322,621.208862 803.235535,613.293457 832.505066,615.436890 
	C855.545227,617.124084 873.320862,627.953979 886.082031,647.142944 
	C886.340576,647.531799 886.771606,647.805908 887.420105,648.411987 
	C896.781311,640.966187 906.117798,633.547180 915.446228,626.118164 
	C924.296570,619.069946 933.016907,611.849670 942.050476,605.044922 
	C945.201782,602.670959 945.285645,600.810608 943.303955,597.776245 
	C933.884827,583.353455 921.237183,572.618835 905.873047,564.396606 
	C912.446533,563.351868 917.244995,567.754272 922.431885,570.819214 
	C934.706665,578.072693 945.097412,587.462158 952.956116,599.470947 
	C957.227173,605.997437 955.676636,613.413818 949.491516,618.329468 
	C935.226501,629.666626 921.131165,641.217224 906.879944,652.572083 
	C896.682800,660.696716 890.715515,659.561890 882.569092,649.446411 
	C873.433044,638.102112 860.942627,631.683289 846.855286,629.288879 
	C823.590698,625.334473 801.521545,628.929382 781.734619,642.591858 
	C765.045044,654.115479 754.831909,670.224182 749.068054,689.425171 
	C744.654724,704.127319 743.418030,719.111450 746.068542,734.183044 
	C748.645630,748.837585 756.065125,760.713074 768.609375,769.147461 
	C770.200500,770.217224 771.460266,771.779785 772.932007,773.444092 
z"/>
<path fill="#FDFDFD" opacity="1.000000" stroke="none" 
	d="
M1118.008179,747.171875 
	C1116.405884,747.057373 1114.803467,746.942871 1112.777954,746.798157 
	C1113.448730,743.373596 1114.068604,740.208801 1114.823975,736.278931 
	C1117.547119,722.346069 1120.134766,709.178162 1122.722412,696.010315 
	C1124.794434,685.944458 1127.018433,675.906067 1128.844482,665.795776 
	C1129.381592,662.821350 1130.506714,662.083191 1133.353882,662.099609 
	C1152.946045,662.212891 1172.539551,662.127991 1192.131714,662.244202 
	C1193.309204,662.251160 1194.479492,663.439941 1195.444214,664.789429 
	C1194.174194,670.628662 1193.113159,675.757324 1192.005737,681.110840 
	C1177.695923,681.110840 1163.763916,681.110840 1149.587524,681.110840 
	C1148.672485,685.808960 1147.809082,690.242126 1146.838135,695.227783 
	C1159.631592,695.227783 1171.817871,695.227783 1184.310547,695.227783 
	C1183.067993,701.389343 1181.927002,707.046936 1180.715820,713.053223 
	C1168.150879,713.053223 1155.715698,713.053223 1143.196655,713.053223 
	C1142.236450,718.203552 1141.344116,722.989075 1140.422607,727.931824 
	C1147.065186,727.931824 1153.030762,727.931824 1158.996338,727.931824 
	C1167.171875,727.931824 1175.347290,727.931824 1183.935425,727.931824 
	C1183.852661,729.657593 1183.794067,730.876465 1183.504883,732.838501 
	C1182.375366,737.936768 1181.476685,742.291931 1180.469604,747.171875 
	C1159.540894,747.171875 1138.774536,747.171875 1118.008179,747.171875 
z"/>
<path fill="#111111" opacity="1.000000" stroke="none" 
	d="
M923.002930,816.458862 
	C917.261475,816.823242 911.529724,816.823242 905.283264,816.823242 
	C905.852722,821.562378 906.368652,825.855408 906.842407,830.570679 
	C901.887634,833.149780 896.742371,834.898193 892.105164,837.538574 
	C877.072083,846.098633 860.981201,851.550171 844.102966,854.967957 
	C825.444519,858.746155 806.549377,860.013245 787.634949,858.874451 
	C754.135010,856.857544 722.693665,847.848328 696.283203,826.325317 
	C679.366638,812.539124 665.859314,795.650696 659.004395,774.344177 
	C658.521301,772.842712 658.588989,771.164124 658.645813,769.305786 
	C667.628235,789.362305 681.344849,805.803650 698.773682,819.111755 
	C710.056152,827.726685 723.015686,833.375793 736.612549,837.211121 
	C784.340027,850.674133 831.187866,849.038269 876.549988,827.769043 
	C892.073364,820.490417 909.632751,805.424500 918.386841,793.646423 
	C904.572388,779.203796 890.905273,764.915222 877.120239,750.312927 
	C881.565002,747.604675 885.159607,749.901062 888.206177,752.805725 
	C900.100098,764.145813 911.875000,775.612366 923.592896,787.134827 
	C931.231201,794.645691 932.758850,802.114441 925.567444,810.240234 
	C924.224854,811.757263 923.839600,814.121338 923.002930,816.458862 
z"/>
<path fill="#FCFCFC" opacity="1.000000" stroke="none" 
	d="
M1141.193848,819.991394 
	C1142.369263,818.992065 1143.505859,817.187988 1144.726685,817.129150 
	C1150.866333,816.833496 1157.028076,816.993530 1163.690918,816.993530 
	C1161.836548,826.478699 1160.045776,835.638794 1158.210815,845.024658 
	C1167.881592,845.024658 1177.174561,845.024658 1186.809082,845.024658 
	C1188.671265,835.842285 1190.513672,826.757080 1192.584473,816.546021 
	C1199.581543,817.065735 1206.754150,817.598450 1213.814453,818.916138 
	C1208.765381,844.035095 1203.828613,868.369141 1198.817383,893.069946 
	C1192.616455,893.069946 1186.810181,893.069946 1181.004028,893.069946 
	C1180.046143,892.923706 1179.088379,892.777466 1177.536865,892.540588 
	C1178.422485,887.638306 1179.306274,882.746155 1180.374634,877.136414 
	C1181.403076,872.118958 1182.246948,867.819092 1183.163330,863.149597 
	C1174.103149,863.149597 1165.654907,863.030640 1157.218384,863.291443 
	C1156.090942,863.326355 1154.326050,865.124084 1154.039551,866.376221 
	C1152.056274,875.042664 1150.386719,883.780884 1148.499756,893.070190 
	C1141.876465,893.070190 1135.439819,893.070190 1129.003296,893.070190 
	C1128.567749,891.845398 1127.573120,890.515015 1127.781372,889.411743 
	C1130.403564,875.516602 1133.199585,861.654358 1136.059814,847.021118 
	C1137.843872,837.502930 1139.518921,828.747131 1141.193848,819.991394 
z"/>
<path fill="#FDFDFD" opacity="1.000000" stroke="none" 
	d="
M1065.749878,820.010376 
	C1066.760742,819.005859 1067.764893,817.132568 1068.783569,817.124817 
	C1090.111084,816.960815 1111.440430,817.001038 1132.769165,817.059326 
	C1133.214966,817.060547 1133.658813,817.749451 1134.034058,818.941711 
	C1132.901245,824.560242 1131.837891,829.354675 1130.762573,834.202820 
	C1122.913208,834.202820 1115.596436,834.202820 1107.886230,834.202820 
	C1103.922607,853.790710 1099.979126,873.279297 1095.975342,893.065430 
	C1089.644287,893.065430 1083.823730,893.065430 1078.003052,893.065430 
	C1073.740479,893.175293 1074.881104,890.394226 1075.352173,888.039856 
	C1078.026123,874.677734 1080.723511,861.320374 1083.595947,847.223877 
	C1084.543335,842.497314 1085.307861,838.508240 1086.161987,834.051880 
	C1078.153442,834.051880 1070.734497,834.051880 1063.181030,834.051880 
	C1064.085449,829.108093 1064.917603,824.559265 1065.749878,820.010376 
z"/>
<path fill="#111111" opacity="1.000000" stroke="none" 
	d="
M919.086548,730.095703 
	C933.187317,748.715881 957.575134,754.182068 981.366394,743.616394 
	C1001.623718,734.620056 1013.382080,711.925964 1008.992310,689.788757 
	C1006.847229,678.971497 1000.784424,670.841125 990.688782,665.415283 
	C1003.514587,666.209473 1011.570374,674.245300 1017.894287,684.741638 
	C1019.562500,687.510376 1021.389282,690.183594 1023.482056,692.953613 
	C1020.856812,708.169861 1017.892700,723.333191 1014.796387,738.838379 
	C1012.519897,740.541748 1010.011414,741.548584 1008.286987,743.319153 
	C989.821167,762.280090 967.556091,764.776672 943.501587,757.844177 
	C933.631165,754.999451 926.152283,748.164795 921.192017,739.088867 
	C919.827820,736.592651 919.736328,733.400940 919.086548,730.095703 
z"/>
<path fill="#0F0F0F" opacity="1.000000" stroke="none" 
	d="
M1122.382324,695.950439 
	C1120.134766,709.178162 1117.547119,722.346069 1114.819580,735.852783 
	C1113.024658,737.088867 1110.885986,737.594116 1109.790527,738.945251 
	C1100.876465,749.939575 1089.151489,756.462158 1075.432373,757.737915 
	C1060.294434,759.145630 1044.979004,758.913696 1029.742065,758.879028 
	C1021.404358,758.860046 1018.213318,755.611145 1017.008789,747.560669 
	C1031.320801,747.057861 1045.636597,747.101929 1059.944458,746.784851 
	C1083.459595,746.263611 1101.981445,732.841797 1107.425781,712.041565 
	C1110.576782,700.002930 1110.723755,687.955994 1102.941040,677.266724 
	C1100.833618,674.372314 1097.762329,672.179688 1094.961548,669.368530 
	C1104.479248,669.869995 1110.319702,676.204468 1115.218994,683.620056 
	C1117.791260,687.513489 1119.786621,691.788086 1122.382324,695.950439 
z"/>
<path fill="#060606" opacity="1.000000" stroke="none" 
	d="
M294.029297,1350.785889 
	C295.692841,1350.319946 297.351593,1350.167358 299.010345,1350.167114 
	C384.612213,1350.155640 470.214050,1350.156860 555.815918,1350.156860 
	C557.425293,1350.156860 559.034668,1350.156860 561.037720,1350.156860 
	C560.528870,1352.662598 560.138428,1354.585205 559.533569,1356.809692 
	C523.702637,1357.076050 488.086151,1357.021851 452.469635,1357.009399 
	C401.540192,1356.991821 350.610779,1357.005005 299.681335,1357.005005 
	C297.713837,1357.005005 295.746338,1357.004883 293.527527,1357.004883 
	C293.722351,1354.717651 293.873444,1352.943970 294.029297,1350.785889 
z"/>
<path fill="#0F0F0F" opacity="1.000000" stroke="none" 
	d="
M1159.086548,727.567383 
	C1153.030762,727.931824 1147.065186,727.931824 1140.422607,727.931824 
	C1141.344116,722.989075 1142.236450,718.203552 1143.196655,713.053223 
	C1155.715698,713.053223 1168.150879,713.053223 1180.715820,713.053223 
	C1181.927002,707.046936 1183.067993,701.389343 1184.310547,695.227783 
	C1171.817871,695.227783 1159.631592,695.227783 1146.838135,695.227783 
	C1147.809082,690.242126 1148.672485,685.808960 1149.587524,681.110840 
	C1163.763916,681.110840 1177.695923,681.110840 1192.005737,681.110840 
	C1193.113159,675.757324 1194.174194,670.628662 1195.465210,665.197388 
	C1203.026001,666.967468 1206.171753,670.462036 1205.983154,676.323975 
	C1205.739380,683.901611 1201.224365,690.395813 1195.073486,691.992554 
	C1191.895996,692.817505 1188.711548,693.616272 1185.530273,694.426819 
	C1185.105347,694.966858 1184.680298,695.506836 1184.255371,696.046875 
	C1185.311890,696.443848 1186.538452,696.617859 1187.397949,697.273254 
	C1194.081787,702.370422 1195.687134,707.258240 1193.248047,714.626892 
	C1190.944580,721.585693 1186.214111,724.725037 1178.029419,725.024353 
	C1172.243042,725.235901 1166.464355,725.679626 1160.688599,726.107239 
	C1160.160522,726.146301 1159.679565,726.822571 1159.086548,727.567383 
z"/>
<path fill="#FCFCFC" opacity="1.000000" stroke="none" 
	d="
M1025.004028,893.071167 
	C1022.069580,893.180237 1022.133118,891.752014 1022.636658,889.349426 
	C1024.972168,878.207214 1027.073242,867.015869 1029.448730,855.122131 
	C1031.821289,842.930603 1034.003418,831.459106 1036.185547,819.987549 
	C1037.166992,818.989807 1038.116821,817.168274 1039.135010,817.129150 
	C1045.341797,816.890869 1051.564331,817.044800 1057.780762,817.131409 
	C1058.064331,817.135315 1058.339355,817.750427 1058.428223,818.789429 
	C1053.382690,843.828247 1048.527344,868.158325 1043.555786,893.071167 
	C1037.230103,893.071167 1031.117065,893.071167 1025.004028,893.071167 
z"/>
<path fill="#111111" opacity="1.000000" stroke="none" 
	d="
M1078.002930,893.476807 
	C1083.823730,893.065430 1089.644287,893.065430 1095.975342,893.065430 
	C1099.979126,873.279297 1103.922607,853.790710 1107.886230,834.202820 
	C1115.596436,834.202820 1122.913208,834.202820 1130.762573,834.202820 
	C1131.837891,829.354675 1132.901245,824.560242 1134.086426,819.386780 
	C1136.274902,819.310974 1138.341431,819.614197 1140.801025,819.954468 
	C1139.518921,828.747131 1137.843872,837.502930 1136.019775,846.626465 
	C1122.669312,846.879395 1118.811523,845.495117 1116.501343,862.640259 
	C1115.246338,871.954041 1112.781982,881.101807 1110.947510,890.341248 
	C1108.470459,902.816101 1096.389893,909.362183 1084.762573,904.281616 
	C1080.397461,902.374268 1077.301270,899.271179 1078.002930,893.476807 
z"/>
<path fill="#0F0F0F" opacity="1.000000" stroke="none" 
	d="
M1035.775024,819.992432 
	C1034.003418,831.459106 1031.821289,842.930603 1029.408936,854.707764 
	C1027.321411,856.939819 1024.943237,858.578918 1023.694702,860.841309 
	C1017.517456,872.034119 1011.640259,883.392456 1005.654358,894.690918 
	C1000.257446,904.877686 983.738708,909.225037 974.408142,902.438232 
	C971.657104,900.437134 970.163208,896.707642 968.048706,893.420044 
	C973.992981,892.987549 979.988953,892.700195 985.967834,892.906677 
	C989.093628,893.014648 990.678406,891.899353 992.084656,889.191406 
	C1004.171570,865.916260 1016.398926,842.714050 1028.838623,819.257629 
	C1031.183594,819.349182 1033.274048,819.673218 1035.775024,819.992432 
z"/>
<path fill="#0F0F0F" opacity="1.000000" stroke="none" 
	d="
M1025.005493,893.457520 
	C1031.117065,893.071167 1037.230103,893.071167 1043.555786,893.071167 
	C1048.527344,868.158325 1053.382690,843.828247 1058.467407,819.197632 
	C1060.786743,819.260925 1062.876465,819.624695 1065.358154,819.999451 
	C1064.917603,824.559265 1064.085449,829.108093 1063.181030,834.051880 
	C1070.734497,834.051880 1078.153442,834.051880 1086.161987,834.051880 
	C1085.307861,838.508240 1084.543335,842.497314 1083.580444,846.805176 
	C1080.095215,846.748718 1076.808228,846.374329 1073.521484,845.997925 
	C1069.847290,845.577148 1067.407104,846.886963 1066.594238,850.729614 
	C1064.095337,862.541504 1061.547485,874.343018 1059.024048,886.149658 
	C1058.643433,887.930420 1058.355225,889.733215 1057.914673,891.498413 
	C1055.026245,903.071228 1044.114136,908.627197 1032.788818,904.359253 
	C1027.901367,902.517395 1025.386475,898.987671 1025.005493,893.457520 
z"/>
<path fill="#0F0F0F" opacity="1.000000" stroke="none" 
	d="
M1181.004395,893.468262 
	C1186.810181,893.069946 1192.616455,893.069946 1198.817383,893.069946 
	C1203.828613,868.369141 1208.765381,844.035095 1213.876709,819.352295 
	C1222.246094,820.501648 1226.385132,825.979736 1224.808472,833.812988 
	C1220.965454,852.905884 1217.101318,871.997253 1212.938843,891.022156 
	C1210.272339,903.210571 1198.207642,908.757324 1186.843018,903.367310 
	C1182.889893,901.492310 1180.699219,898.416809 1181.004395,893.468262 
z"/>
<path fill="#111111" opacity="1.000000" stroke="none" 
	d="
M1129.012329,893.448669 
	C1135.439819,893.070190 1141.876465,893.070190 1148.499756,893.070190 
	C1150.386719,883.780884 1152.056274,875.042664 1154.039551,866.376221 
	C1154.326050,865.124084 1156.090942,863.326355 1157.218384,863.291443 
	C1165.654907,863.030640 1174.103149,863.149597 1183.163330,863.149597 
	C1182.246948,867.819092 1181.403076,872.118958 1180.330933,876.724915 
	C1179.936646,877.027527 1179.770508,877.022156 1179.604492,877.020691 
	C1167.086792,876.909851 1165.885498,877.500854 1164.146973,889.791870 
	C1161.688721,907.169861 1147.201904,908.193176 1135.675049,904.208618 
	C1131.071045,902.617065 1129.872681,898.173950 1129.012329,893.448669 
z"/>
<path fill="#0F0F0F" opacity="1.000000" stroke="none" 
	d="
M915.038574,893.295410 
	C921.146179,892.892090 927.315308,892.564453 933.442017,892.936340 
	C936.921082,893.147461 938.425598,891.671814 939.847656,888.927917 
	C946.779602,875.553345 953.848877,862.249817 961.625488,847.486084 
	C962.962952,859.023926 964.127319,869.068848 965.217224,879.561462 
	C962.305908,883.253418 959.317444,886.380859 956.690735,889.787170 
	C955.189209,891.734131 954.341736,894.173096 953.087830,896.325317 
	C946.623718,907.421143 931.415527,907.299927 922.904419,903.948975 
	C918.223694,902.106018 916.395203,898.077087 915.038574,893.295410 
z"/>
<path fill="#0F0F0F" opacity="1.000000" stroke="none" 
	d="
M1118.014648,747.532532 
	C1138.774536,747.171875 1159.540894,747.171875 1180.469604,747.171875 
	C1181.476685,742.291931 1182.375366,737.936768 1183.511108,733.281738 
	C1187.900757,732.509216 1190.308838,734.918335 1191.888550,738.248962 
	C1194.123291,742.960388 1192.926880,747.471008 1189.979126,751.357117 
	C1187.160889,755.072449 1183.322388,757.086853 1178.369507,757.047241 
	C1162.395752,756.919312 1146.420288,757.026001 1130.445679,756.987061 
	C1123.479736,756.970093 1120.051270,754.396545 1118.014648,747.532532 
z"/>
<path fill="#83030D" opacity="1.000000" stroke="none" 
	d="
M222.917847,888.979858 
	C221.638550,906.169922 219.770233,923.342041 219.246323,940.555115 
	C218.726868,957.622498 219.564606,974.730957 219.799179,991.821594 
	C219.826416,993.806091 219.802856,995.791260 219.257309,997.769043 
	C217.092606,961.694824 217.587051,925.657227 221.678680,889.316895 
	C222.443909,888.974243 222.680878,888.977051 222.917847,888.979858 
z"/>
<path fill="#AB020F" opacity="1.000000" stroke="none" 
	d="
M222.973557,888.554810 
	C222.680878,888.977051 222.443909,888.974243 221.849884,888.955811 
	C223.006226,876.176514 224.519623,863.412781 226.198318,850.249939 
	C226.708771,849.902222 227.053940,849.953674 227.660202,849.983887 
	C226.470551,861.049561 225.015701,872.135864 223.573532,883.223877 
	C223.361374,884.855164 223.209213,886.494263 222.973557,888.554810 
z"/>
<path fill="#090606" opacity="1.000000" stroke="none" 
	d="
M1275.075684,418.259155 
	C1276.320801,418.696991 1277.588257,419.505310 1279.006592,420.601685 
	C1277.804199,420.136383 1276.451050,419.382996 1275.075684,418.259155 
z"/>
<path fill="#090606" opacity="1.000000" stroke="none" 
	d="
M1272.120361,416.183411 
	C1272.999756,416.342102 1273.896484,416.866699 1274.947876,417.666443 
	C1274.114258,417.477478 1273.125854,417.013428 1272.120361,416.183411 
z"/>
<path fill="#090606" opacity="1.000000" stroke="none" 
	d="
M1283.101685,424.034943 
	C1283.988770,424.242126 1284.899414,424.830627 1285.986328,425.694672 
	C1285.150146,425.452240 1284.137695,424.934235 1283.101685,424.034943 
z"/>
<path fill="#090606" opacity="1.000000" stroke="none" 
	d="
M1279.122192,421.188416 
	C1280.007446,421.355774 1280.912964,421.892822 1281.990601,422.700043 
	C1281.155884,422.499512 1280.149292,422.028809 1279.122192,421.188416 
z"/>
<path fill="#090606" opacity="1.000000" stroke="none" 
	d="
M1297.272339,434.959534 
	C1297.722900,434.898529 1298.266113,435.150146 1298.956299,435.674011 
	C1298.523804,435.721588 1297.944458,435.496887 1297.272339,434.959534 
z"/>
<path fill="#090606" opacity="1.000000" stroke="none" 
	d="
M1289.325195,428.913025 
	C1289.806885,428.828705 1290.351929,429.073730 1291.035889,429.598175 
	C1290.579468,429.665802 1289.984009,429.454071 1289.325195,428.913025 
z"/>
<path fill="#090606" opacity="1.000000" stroke="none" 
	d="
M1293.298096,431.938019 
	C1293.769531,431.856812 1294.322388,432.098114 1295.016357,432.617981 
	C1294.564819,432.684540 1293.972168,432.472534 1293.298096,431.938019 
z"/>
<path fill="#090606" opacity="1.000000" stroke="none" 
	d="
M1299.170776,436.151245 
	C1299.362549,436.073120 1299.711304,436.249603 1300.223389,436.678558 
	C1300.033813,436.755951 1299.680786,436.580902 1299.170776,436.151245 
z"/>
<path fill="#090606" opacity="1.000000" stroke="none" 
	d="
M1296.200073,434.030273 
	C1296.451904,433.915985 1296.804443,434.072235 1297.226685,434.516113 
	C1296.964600,434.636108 1296.632568,434.468445 1296.200073,434.030273 
z"/>
<path fill="#090606" opacity="1.000000" stroke="none" 
	d="
M1295.162842,433.089539 
	C1295.385864,433.003174 1295.722534,433.172974 1296.141846,433.620880 
	C1295.908569,433.714539 1295.592651,433.530121 1295.162842,433.089539 
z"/>
<path fill="#090606" opacity="1.000000" stroke="none" 
	d="
M1291.172852,430.072571 
	C1291.408203,429.971771 1291.755371,430.131714 1292.180298,430.574554 
	C1291.933594,430.682770 1291.609009,430.508026 1291.172852,430.072571 
z"/>
<path fill="#090606" opacity="1.000000" stroke="none" 
	d="
M1287.165894,426.928619 
	C1287.410278,426.859100 1287.753418,427.076050 1288.164185,427.593781 
	C1287.909424,427.668060 1287.587036,427.441589 1287.165894,426.928619 
z"/>
<path fill="#090606" opacity="1.000000" stroke="none" 
	d="
M1288.228760,427.994019 
	C1288.498901,427.863037 1288.852539,428.011353 1289.264893,428.448364 
	C1288.986328,428.582458 1288.649292,428.427887 1288.228760,427.994019 
z"/>
<path fill="#090606" opacity="1.000000" stroke="none" 
	d="
M1292.227783,430.997650 
	C1292.493774,430.874786 1292.844238,431.031311 1293.256470,431.477783 
	C1292.982788,431.604156 1292.647583,431.440613 1292.227783,430.997650 
z"/>
<path fill="#191919" opacity="1.000000" stroke="none" 
	d="
M290.608948,660.004456 
	C290.697876,660.445618 290.518951,661.043213 290.036255,661.765381 
	C289.935333,661.313660 290.138184,660.737244 290.608948,660.004456 
z"/>
<path fill="#191919" opacity="1.000000" stroke="none" 
	d="
M291.610565,658.011841 
	C291.712494,658.445801 291.549438,659.043640 291.100586,659.792480 
	C290.991730,659.354248 291.168640,658.765015 291.610565,658.011841 
z"/>
<path fill="#191919" opacity="1.000000" stroke="none" 
	d="
M292.638885,655.901367 
	C292.734009,656.339233 292.568024,656.973450 292.108215,657.777344 
	C292.002197,657.330566 292.190002,656.714172 292.638885,655.901367 
z"/>
<path fill="#191919" opacity="1.000000" stroke="none" 
	d="
M289.593689,661.888245 
	C289.726959,662.090759 289.613342,662.407043 289.291321,662.875488 
	C289.170868,662.685791 289.258820,662.343872 289.593689,661.888245 
z"/>
<path fill="#111111" opacity="1.000000" stroke="none" 
	d="
M1057.057007,727.150330 
	C1052.108643,727.150330 1047.160156,727.150330 1041.428101,727.150330 
	C1044.382935,712.068787 1047.322754,697.064636 1050.448364,681.112061 
	C1057.727417,681.587830 1065.049194,681.399841 1072.097168,682.697998 
	C1080.643799,684.272156 1084.250732,689.620300 1084.552856,699.531128 
	C1080.346680,698.304138 1076.678101,696.230530 1072.737305,695.247070 
	C1066.740967,693.750610 1062.800049,695.742432 1061.535767,701.308960 
	C1059.602051,709.822632 1058.507690,718.526978 1057.057007,727.150330 
z"/>
<path fill="#191919" opacity="1.000000" stroke="none" 
	d="
M1057.481934,727.297058 
	C1058.507690,718.526978 1059.602051,709.822632 1061.535767,701.308960 
	C1062.800049,695.742432 1066.740967,693.750610 1072.737305,695.247070 
	C1076.678101,696.230530 1080.346680,698.304138 1084.480957,699.940918 
	C1084.582642,716.522705 1074.227539,727.083069 1057.481934,727.297058 
z"/>
<path fill="#191919" opacity="1.000000" stroke="none" 
	d="
M984.919067,695.995544 
	C988.533325,714.204773 974.496521,729.709045 955.308167,727.745544 
	C952.335632,721.820862 950.025635,716.570618 951.908569,710.148621 
	C954.671570,700.725159 961.734070,691.857361 972.585266,693.083618 
	C976.752991,693.554565 980.811035,694.996216 984.919067,695.995544 
z"/>
<path fill="#0F0F0F" opacity="1.000000" stroke="none" 
	d="
M984.978943,695.614014 
	C980.811035,694.996216 976.752991,693.554565 972.585266,693.083618 
	C961.734070,691.857361 954.671570,700.725159 951.908569,710.148621 
	C950.025635,716.570618 952.335632,721.820862 954.951782,727.593750 
	C946.402222,726.882874 940.996277,721.785522 939.763611,713.530884 
	C937.603516,699.066406 946.429016,679.302429 967.927368,680.784912 
	C976.979553,681.409119 982.812134,686.095215 984.978943,695.614014 
z"/>
</svg>